solid OpenSCAD_Model
  facet normal 0 0 -1
    outer loop
      vertex 0 6.6 0
      vertex 0.323027 8.63951 0
      vertex 0.323027 4.56049 0
    endloop
  endfacet
  facet normal 0 0 -1
    outer loop
      vertex 0.323027 4.56049 0
      vertex 0.323027 8.63951 0
      vertex 1.26049 10.4794 0
    endloop
  endfacet
  facet normal 0 0 -1
    outer loop
      vertex 0.323027 4.56049 0
      vertex 1.26049 10.4794 0
      vertex 2.72062 11.9395 0
    endloop
  endfacet
  facet normal 0 0 -1
    outer loop
      vertex 0.323027 4.56049 0
      vertex 2.72062 11.9395 0
      vertex 4.56049 12.877 0
    endloop
  endfacet
  facet normal 0 0 -1
    outer loop
      vertex 0.323027 4.56049 0
      vertex 4.56049 12.877 0
      vertex 6.6 13.2 0
    endloop
  endfacet
  facet normal 0 0 -1
    outer loop
      vertex 8.5 9.8909 0
      vertex 6.6 13.2 0
      vertex 14.7 13.2 0
    endloop
  endfacet
  facet normal 0 0 -1
    outer loop
      vertex 9.44255 9.1 0
      vertex 14.7 13.2 0
      vertex 14.7 9.1 0
    endloop
  endfacet
  facet normal 0 0 -1
    outer loop
      vertex 7.25986 10.3423 0
      vertex 6.6 13.2 0
      vertex 8.5 9.8909 0
    endloop
  endfacet
  facet normal 0 0 -1
    outer loop
      vertex 2.8 6.6 0
      vertex 0.323027 4.56049 0
      vertex 3.02917 7.89968 0
    endloop
  endfacet
  facet normal 0 0 -1
    outer loop
      vertex 5.94014 10.3423 0
      vertex 6.6 13.2 0
      vertex 7.25986 10.3423 0
    endloop
  endfacet
  facet normal 0 0 -1
    outer loop
      vertex 4.7 9.8909 0
      vertex 6.6 13.2 0
      vertex 5.94014 10.3423 0
    endloop
  endfacet
  facet normal 0 0 -1
    outer loop
      vertex 3.68903 9.04259 0
      vertex 6.6 13.2 0
      vertex 4.7 9.8909 0
    endloop
  endfacet
  facet normal 0 0 -1
    outer loop
      vertex 0.323027 4.56049 0
      vertex 6.6 13.2 0
      vertex 3.68903 9.04259 0
    endloop
  endfacet
  facet normal 0 0 -1
    outer loop
      vertex 0.323027 4.56049 0
      vertex 3.68903 9.04259 0
      vertex 3.02917 7.89968 0
    endloop
  endfacet
  facet normal 0 0 -1
    outer loop
      vertex 3.02917 5.30032 0
      vertex 0.323027 4.56049 0
      vertex 2.8 6.6 0
    endloop
  endfacet
  facet normal 0 0 -1
    outer loop
      vertex 0.323027 4.56049 0
      vertex 3.02917 5.30032 0
      vertex 3.68903 4.15741 0
    endloop
  endfacet
  facet normal 0 0 -1
    outer loop
      vertex 3.68903 4.15741 0
      vertex 4.7 3.3091 0
      vertex 0.323027 4.56049 0
    endloop
  endfacet
  facet normal 0 0 -1
    outer loop
      vertex 4.7 3.3091 0
      vertex 5.94014 2.85773 0
      vertex 0.323027 4.56049 0
    endloop
  endfacet
  facet normal 0 0 -1
    outer loop
      vertex 5.94014 2.85773 0
      vertex 14.7 0 0
      vertex 0.323027 4.56049 0
    endloop
  endfacet
  facet normal 0 0 -1
    outer loop
      vertex 8.5 3.3091 0
      vertex 9.44255 4.1 0
      vertex 14.7 4.1 0
    endloop
  endfacet
  facet normal 0 0 -1
    outer loop
      vertex 8.5 3.3091 0
      vertex 14.7 4.1 0
      vertex 7.25986 2.85773 0
    endloop
  endfacet
  facet normal 0 0 -1
    outer loop
      vertex 7.25986 2.85773 0
      vertex 14.7 4.1 0
      vertex 14.7 0 0
    endloop
  endfacet
  facet normal 0 0 -1
    outer loop
      vertex 7.25986 2.85773 0
      vertex 14.7 0 0
      vertex 5.94014 2.85773 0
    endloop
  endfacet
  facet normal 0 0 -1
    outer loop
      vertex 0.323027 4.56049 0
      vertex 14.7 0 0
      vertex 6.6 0 0
    endloop
  endfacet
  facet normal 0 0 -1
    outer loop
      vertex 0.323027 4.56049 0
      vertex 6.6 0 0
      vertex 4.56049 0.323027 0
    endloop
  endfacet
  facet normal 0 0 -1
    outer loop
      vertex 0.323027 4.56049 0
      vertex 4.56049 0.323027 0
      vertex 2.72062 1.26049 0
    endloop
  endfacet
  facet normal 0 0 -1
    outer loop
      vertex 0.323027 4.56049 0
      vertex 2.72062 1.26049 0
      vertex 1.26049 2.72062 0
    endloop
  endfacet
  facet normal 0 0 -1
    outer loop
      vertex 8.5 9.8909 0
      vertex 14.7 13.2 0
      vertex 9.44255 9.1 0
    endloop
  endfacet
  facet normal -0.987688 0.156434 0
    outer loop
      vertex 0 6.6 0
      vertex 0 6.6 13.2
      vertex 0.323027 8.63951 0
    endloop
  endfacet
  facet normal -0.987688 0.156434 0
    outer loop
      vertex 0.323027 8.63951 0
      vertex 0 6.6 13.2
      vertex 0.323027 8.63951 13.2
    endloop
  endfacet
  facet normal -0.987688 -0.156434 0
    outer loop
      vertex 0 6.6 0
      vertex 0.323027 4.56049 0
      vertex 0 6.6 13.2
    endloop
  endfacet
  facet normal -0.987688 -0.156434 0
    outer loop
      vertex 0 6.6 13.2
      vertex 0.323027 4.56049 0
      vertex 0.323027 4.56049 13.2
    endloop
  endfacet
  facet normal -0.891007 -0.45399 0
    outer loop
      vertex 0.323027 4.56049 0
      vertex 1.26049 2.72062 0
      vertex 0.323027 4.56049 13.2
    endloop
  endfacet
  facet normal -0.891007 -0.45399 0
    outer loop
      vertex 0.323027 4.56049 13.2
      vertex 1.26049 2.72062 0
      vertex 1.26049 2.72062 13.2
    endloop
  endfacet
  facet normal -0.707107 -0.707107 0
    outer loop
      vertex 1.26049 2.72062 13.2
      vertex 1.26049 2.72062 0
      vertex 2.72062 1.26049 0
    endloop
  endfacet
  facet normal -0.707107 -0.707107 0
    outer loop
      vertex 2.72062 1.26049 13.2
      vertex 1.26049 2.72062 13.2
      vertex 2.72062 1.26049 0
    endloop
  endfacet
  facet normal -0.45399 -0.891007 0
    outer loop
      vertex 2.72062 1.26049 13.2
      vertex 2.72062 1.26049 0
      vertex 4.56049 0.323027 0
    endloop
  endfacet
  facet normal -0.45399 -0.891007 0
    outer loop
      vertex 4.56049 0.323027 13.2
      vertex 2.72062 1.26049 13.2
      vertex 4.56049 0.323027 0
    endloop
  endfacet
  facet normal -0.156434 -0.987688 0
    outer loop
      vertex 4.56049 0.323027 13.2
      vertex 4.56049 0.323027 0
      vertex 6.6 0 0
    endloop
  endfacet
  facet normal -0.156434 -0.987688 0
    outer loop
      vertex 6.6 0 13.2
      vertex 4.56049 0.323027 13.2
      vertex 6.6 0 0
    endloop
  endfacet
  facet normal 0 -1 0
    outer loop
      vertex 14.1895 0 2.93099e-015
      vertex 6.6 0 0
      vertex 14.7 0 0
    endloop
  endfacet
  facet normal 0 -1 0
    outer loop
      vertex 10.379 0 6.6
      vertex 6.6 0 0
      vertex 14.1895 0 2.93099e-015
    endloop
  endfacet
  facet normal 0 -1 0
    outer loop
      vertex 6.6 0 13.2
      vertex 6.6 0 0
      vertex 10.379 0 6.6
    endloop
  endfacet
  facet normal 0 -1 0
    outer loop
      vertex 12.8 0 7.5
      vertex 6.6 0 13.2
      vertex 12.9425 0 6.6
    endloop
  endfacet
  facet normal 0 -1 0
    outer loop
      vertex 13.0056 0 8.79787
      vertex 6.6 0 13.2
      vertex 12.8 0 7.5
    endloop
  endfacet
  facet normal 0 -1 0
    outer loop
      vertex 13.6021 0 9.9687
      vertex 6.6 0 13.2
      vertex 13.0056 0 8.79787
    endloop
  endfacet
  facet normal 0 -1 0
    outer loop
      vertex 14.5313 0 10.8979
      vertex 6.6 0 13.2
      vertex 13.6021 0 9.9687
    endloop
  endfacet
  facet normal 0 -1 0
    outer loop
      vertex 14.7 0 10.9838
      vertex 6.6 0 13.2
      vertex 14.5313 0 10.8979
    endloop
  endfacet
  facet normal 0 -1 0
    outer loop
      vertex 14.7 0 13.2
      vertex 6.6 0 13.2
      vertex 14.7 0 10.9838
    endloop
  endfacet
  facet normal 0 -1 0
    outer loop
      vertex 14.7 0 2.93099e-015
      vertex 14.1895 0 2.93099e-015
      vertex 14.7 0 0
    endloop
  endfacet
  facet normal 0 -1 0
    outer loop
      vertex 10.379 0 6.6
      vertex 12.9425 0 6.6
      vertex 6.6 0 13.2
    endloop
  endfacet
  facet normal 1 0 0
    outer loop
      vertex 14.7 0 2.93099e-015
      vertex 14.7 0 0
      vertex 14.7 4.1 0
    endloop
  endfacet
  facet normal 1 0 0
    outer loop
      vertex 14.7 4.1 2.02061e-015
      vertex 14.7 0 2.93099e-015
      vertex 14.7 4.1 0
    endloop
  endfacet
  facet normal 0 1 0
    outer loop
      vertex 20.3979 4.1 9.9687
      vertex 21.8105 4.1 13.2
      vertex 25.621 4.1 6.6
    endloop
  endfacet
  facet normal 0 1 0
    outer loop
      vertex 20.3979 4.1 9.9687
      vertex 25.621 4.1 6.6
      vertex 20.9944 4.1 8.79787
    endloop
  endfacet
  facet normal 0 1 0
    outer loop
      vertex 20.9944 4.1 8.79787
      vertex 25.621 4.1 6.6
      vertex 21.2 4.1 7.5
    endloop
  endfacet
  facet normal 0 1 0
    outer loop
      vertex 13.0056 4.1 6.20213
      vertex 14.7 4.1 2.02061e-015
      vertex 9.44255 4.1 13.2
    endloop
  endfacet
  facet normal 0 1 0
    outer loop
      vertex 14.7 4.1 2.02061e-015
      vertex 14.7 4.1 0
      vertex 9.44255 4.1 13.2
    endloop
  endfacet
  facet normal 0 1 0
    outer loop
      vertex 14.7 4.1 0
      vertex 9.44255 4.1 0
      vertex 9.44255 4.1 13.2
    endloop
  endfacet
  facet normal 0 1 0
    outer loop
      vertex 13.6021 4.1 5.0313
      vertex 14.7 4.1 2.02061e-015
      vertex 13.0056 4.1 6.20213
    endloop
  endfacet
  facet normal 0 1 0
    outer loop
      vertex 12.8 4.1 7.5
      vertex 13.0056 4.1 6.20213
      vertex 9.44255 4.1 13.2
    endloop
  endfacet
  facet normal 0 1 0
    outer loop
      vertex 14.5313 4.1 4.10213
      vertex 14.7 4.1 2.02061e-015
      vertex 13.6021 4.1 5.0313
    endloop
  endfacet
  facet normal 0 1 0
    outer loop
      vertex 21.8105 4.1 2.02061e-015
      vertex 14.7 4.1 2.02061e-015
      vertex 14.5313 4.1 4.10213
    endloop
  endfacet
  facet normal 0 1 0
    outer loop
      vertex 21.8105 4.1 2.02061e-015
      vertex 14.5313 4.1 4.10213
      vertex 15.7021 4.1 3.50556
    endloop
  endfacet
  facet normal 0 1 0
    outer loop
      vertex 18.2979 4.1 3.50556
      vertex 21.8105 4.1 2.02061e-015
      vertex 17 4.1 3.3
    endloop
  endfacet
  facet normal 0 1 0
    outer loop
      vertex 19.4687 4.1 4.10213
      vertex 21.8105 4.1 2.02061e-015
      vertex 18.2979 4.1 3.50556
    endloop
  endfacet
  facet normal 0 1 0
    outer loop
      vertex 13.6021 4.1 9.9687
      vertex 9.44255 4.1 13.2
      vertex 14.5313 4.1 10.8979
    endloop
  endfacet
  facet normal 0 1 0
    outer loop
      vertex 25.621 4.1 6.6
      vertex 21.8105 4.1 2.02061e-015
      vertex 19.4687 4.1 4.10213
    endloop
  endfacet
  facet normal 0 1 0
    outer loop
      vertex 25.621 4.1 6.6
      vertex 19.4687 4.1 4.10213
      vertex 20.3979 4.1 5.0313
    endloop
  endfacet
  facet normal 0 1 0
    outer loop
      vertex 25.621 4.1 6.6
      vertex 20.3979 4.1 5.0313
      vertex 20.9944 4.1 6.20213
    endloop
  endfacet
  facet normal 0 1 0
    outer loop
      vertex 25.621 4.1 6.6
      vertex 20.9944 4.1 6.20213
      vertex 21.2 4.1 7.5
    endloop
  endfacet
  facet normal 0 1 0
    outer loop
      vertex 19.4687 4.1 10.8979
      vertex 21.8105 4.1 13.2
      vertex 20.3979 4.1 9.9687
    endloop
  endfacet
  facet normal 0 1 0
    outer loop
      vertex 17 4.1 11.7
      vertex 14.1895 4.1 13.2
      vertex 18.2979 4.1 11.4944
    endloop
  endfacet
  facet normal 0 1 0
    outer loop
      vertex 18.2979 4.1 11.4944
      vertex 21.8105 4.1 13.2
      vertex 19.4687 4.1 10.8979
    endloop
  endfacet
  facet normal 0 1 0
    outer loop
      vertex 14.1895 4.1 13.2
      vertex 21.8105 4.1 13.2
      vertex 18.2979 4.1 11.4944
    endloop
  endfacet
  facet normal 0 1 0
    outer loop
      vertex 15.7021 4.1 11.4944
      vertex 14.1895 4.1 13.2
      vertex 17 4.1 11.7
    endloop
  endfacet
  facet normal 0 1 0
    outer loop
      vertex 14.5313 4.1 10.8979
      vertex 9.44255 4.1 13.2
      vertex 15.7021 4.1 11.4944
    endloop
  endfacet
  facet normal 0 1 0
    outer loop
      vertex 14.1895 4.1 13.2
      vertex 15.7021 4.1 11.4944
      vertex 9.44255 4.1 13.2
    endloop
  endfacet
  facet normal 0 1 0
    outer loop
      vertex 13.0056 4.1 8.79787
      vertex 9.44255 4.1 13.2
      vertex 13.6021 4.1 9.9687
    endloop
  endfacet
  facet normal 0 1 0
    outer loop
      vertex 13.0056 4.1 8.79787
      vertex 12.8 4.1 7.5
      vertex 9.44255 4.1 13.2
    endloop
  endfacet
  facet normal 0 1 0
    outer loop
      vertex 17 4.1 3.3
      vertex 21.8105 4.1 2.02061e-015
      vertex 15.7021 4.1 3.50556
    endloop
  endfacet
  facet normal -0.642788 0.766044 0
    outer loop
      vertex 9.44255 4.1 13.2
      vertex 9.44255 4.1 0
      vertex 8.5 3.3091 13.2
    endloop
  endfacet
  facet normal -0.642788 0.766044 0
    outer loop
      vertex 8.5 3.3091 13.2
      vertex 9.44255 4.1 0
      vertex 8.5 3.3091 0
    endloop
  endfacet
  facet normal -0.34202 0.939693 0
    outer loop
      vertex 8.5 3.3091 13.2
      vertex 8.5 3.3091 0
      vertex 7.25986 2.85773 13.2
    endloop
  endfacet
  facet normal -0.34202 0.939693 0
    outer loop
      vertex 7.25986 2.85773 13.2
      vertex 8.5 3.3091 0
      vertex 7.25986 2.85773 0
    endloop
  endfacet
  facet normal 0 1 0
    outer loop
      vertex 7.25986 2.85773 13.2
      vertex 7.25986 2.85773 0
      vertex 5.94014 2.85773 13.2
    endloop
  endfacet
  facet normal 0 1 0
    outer loop
      vertex 5.94014 2.85773 13.2
      vertex 7.25986 2.85773 0
      vertex 5.94014 2.85773 0
    endloop
  endfacet
  facet normal 0.34202 0.939693 0
    outer loop
      vertex 5.94014 2.85773 13.2
      vertex 5.94014 2.85773 0
      vertex 4.7 3.3091 13.2
    endloop
  endfacet
  facet normal 0.34202 0.939693 0
    outer loop
      vertex 4.7 3.3091 13.2
      vertex 5.94014 2.85773 0
      vertex 4.7 3.3091 0
    endloop
  endfacet
  facet normal 0.642788 0.766044 0
    outer loop
      vertex 4.7 3.3091 13.2
      vertex 4.7 3.3091 0
      vertex 3.68903 4.15741 13.2
    endloop
  endfacet
  facet normal 0.642788 0.766044 0
    outer loop
      vertex 3.68903 4.15741 13.2
      vertex 4.7 3.3091 0
      vertex 3.68903 4.15741 0
    endloop
  endfacet
  facet normal 0.866025 0.5 0
    outer loop
      vertex 3.02917 5.30032 13.2
      vertex 3.68903 4.15741 13.2
      vertex 3.68903 4.15741 0
    endloop
  endfacet
  facet normal 0.866025 0.5 0
    outer loop
      vertex 3.02917 5.30032 0
      vertex 3.02917 5.30032 13.2
      vertex 3.68903 4.15741 0
    endloop
  endfacet
  facet normal 0.984808 0.173648 0
    outer loop
      vertex 2.8 6.6 13.2
      vertex 3.02917 5.30032 13.2
      vertex 3.02917 5.30032 0
    endloop
  endfacet
  facet normal 0.984808 0.173648 0
    outer loop
      vertex 2.8 6.6 0
      vertex 2.8 6.6 13.2
      vertex 3.02917 5.30032 0
    endloop
  endfacet
  facet normal 0.984808 -0.173648 0
    outer loop
      vertex 3.02917 7.89968 0
      vertex 3.02917 7.89968 13.2
      vertex 2.8 6.6 13.2
    endloop
  endfacet
  facet normal 0.984808 -0.173648 0
    outer loop
      vertex 2.8 6.6 0
      vertex 3.02917 7.89968 0
      vertex 2.8 6.6 13.2
    endloop
  endfacet
  facet normal 0.866025 -0.5 0
    outer loop
      vertex 3.68903 9.04259 0
      vertex 3.68903 9.04259 13.2
      vertex 3.02917 7.89968 13.2
    endloop
  endfacet
  facet normal 0.866025 -0.5 0
    outer loop
      vertex 3.02917 7.89968 0
      vertex 3.68903 9.04259 0
      vertex 3.02917 7.89968 13.2
    endloop
  endfacet
  facet normal 0.642788 -0.766044 0
    outer loop
      vertex 4.7 9.8909 0
      vertex 4.7 9.8909 13.2
      vertex 3.68903 9.04259 13.2
    endloop
  endfacet
  facet normal 0.642788 -0.766044 0
    outer loop
      vertex 3.68903 9.04259 0
      vertex 4.7 9.8909 0
      vertex 3.68903 9.04259 13.2
    endloop
  endfacet
  facet normal 0.34202 -0.939693 0
    outer loop
      vertex 5.94014 10.3423 0
      vertex 5.94014 10.3423 13.2
      vertex 4.7 9.8909 13.2
    endloop
  endfacet
  facet normal 0.34202 -0.939693 0
    outer loop
      vertex 4.7 9.8909 0
      vertex 5.94014 10.3423 0
      vertex 4.7 9.8909 13.2
    endloop
  endfacet
  facet normal 0 -1 0
    outer loop
      vertex 7.25986 10.3423 0
      vertex 7.25986 10.3423 13.2
      vertex 5.94014 10.3423 13.2
    endloop
  endfacet
  facet normal 0 -1 0
    outer loop
      vertex 5.94014 10.3423 0
      vertex 7.25986 10.3423 0
      vertex 5.94014 10.3423 13.2
    endloop
  endfacet
  facet normal -0.34202 -0.939693 0
    outer loop
      vertex 8.5 9.8909 0
      vertex 8.5 9.8909 13.2
      vertex 7.25986 10.3423 13.2
    endloop
  endfacet
  facet normal -0.34202 -0.939693 0
    outer loop
      vertex 7.25986 10.3423 0
      vertex 8.5 9.8909 0
      vertex 7.25986 10.3423 13.2
    endloop
  endfacet
  facet normal -0.642788 -0.766044 0
    outer loop
      vertex 9.44255 9.1 0
      vertex 9.44255 9.1 13.2
      vertex 8.5 9.8909 13.2
    endloop
  endfacet
  facet normal -0.642788 -0.766044 0
    outer loop
      vertex 8.5 9.8909 0
      vertex 9.44255 9.1 0
      vertex 8.5 9.8909 13.2
    endloop
  endfacet
  facet normal 0 -1 0
    outer loop
      vertex 25.621 9.1 6.6
      vertex 14.7 9.1 9.10383e-016
      vertex 21.8105 9.1 9.10383e-016
    endloop
  endfacet
  facet normal 0 -1 0
    outer loop
      vertex 19.4687 9.1 4.10213
      vertex 14.7 9.1 9.10383e-016
      vertex 25.621 9.1 6.6
    endloop
  endfacet
  facet normal 0 -1 0
    outer loop
      vertex 17 9.1 11.7
      vertex 18.2979 9.1 11.4944
      vertex 21.8105 9.1 13.2
    endloop
  endfacet
  facet normal 0 -1 0
    outer loop
      vertex 19.4687 9.1 4.10213
      vertex 18.2979 9.1 3.50556
      vertex 14.7 9.1 9.10383e-016
    endloop
  endfacet
  facet normal 0 -1 0
    outer loop
      vertex 18.2979 9.1 3.50556
      vertex 17 9.1 3.3
      vertex 14.7 9.1 9.10383e-016
    endloop
  endfacet
  facet normal 0 -1 0
    outer loop
      vertex 9.44255 9.1 0
      vertex 14.7 9.1 0
      vertex 9.44255 9.1 13.2
    endloop
  endfacet
  facet normal 0 -1 0
    outer loop
      vertex 9.44255 9.1 13.2
      vertex 13.0056 9.1 8.79787
      vertex 14.1895 9.1 13.2
    endloop
  endfacet
  facet normal 0 -1 0
    outer loop
      vertex 9.44255 9.1 13.2
      vertex 12.8 9.1 7.5
      vertex 13.0056 9.1 8.79787
    endloop
  endfacet
  facet normal 0 -1 0
    outer loop
      vertex 14.5313 9.1 4.10213
      vertex 13.6021 9.1 5.0313
      vertex 14.7 9.1 0
    endloop
  endfacet
  facet normal 0 -1 0
    outer loop
      vertex 19.4687 9.1 10.8979
      vertex 20.3979 9.1 9.9687
      vertex 21.8105 9.1 13.2
    endloop
  endfacet
  facet normal 0 -1 0
    outer loop
      vertex 14.1895 9.1 13.2
      vertex 15.7021 9.1 11.4944
      vertex 21.8105 9.1 13.2
    endloop
  endfacet
  facet normal 0 -1 0
    outer loop
      vertex 14.1895 9.1 13.2
      vertex 14.5313 9.1 10.8979
      vertex 15.7021 9.1 11.4944
    endloop
  endfacet
  facet normal 0 -1 0
    outer loop
      vertex 15.7021 9.1 11.4944
      vertex 17 9.1 11.7
      vertex 21.8105 9.1 13.2
    endloop
  endfacet
  facet normal 0 -1 0
    outer loop
      vertex 15.7021 9.1 3.50556
      vertex 14.5313 9.1 4.10213
      vertex 14.7 9.1 9.10383e-016
    endloop
  endfacet
  facet normal 0 -1 0
    outer loop
      vertex 18.2979 9.1 11.4944
      vertex 19.4687 9.1 10.8979
      vertex 21.8105 9.1 13.2
    endloop
  endfacet
  facet normal 0 -1 0
    outer loop
      vertex 14.7 9.1 9.10383e-016
      vertex 14.5313 9.1 4.10213
      vertex 14.7 9.1 0
    endloop
  endfacet
  facet normal 0 -1 0
    outer loop
      vertex 21.8105 9.1 13.2
      vertex 20.3979 9.1 9.9687
      vertex 25.621 9.1 6.6
    endloop
  endfacet
  facet normal 0 -1 0
    outer loop
      vertex 20.3979 9.1 9.9687
      vertex 20.9944 9.1 8.79787
      vertex 25.621 9.1 6.6
    endloop
  endfacet
  facet normal 0 -1 0
    outer loop
      vertex 20.9944 9.1 8.79787
      vertex 21.2 9.1 7.5
      vertex 25.621 9.1 6.6
    endloop
  endfacet
  facet normal 0 -1 0
    outer loop
      vertex 21.2 9.1 7.5
      vertex 20.9944 9.1 6.20213
      vertex 25.621 9.1 6.6
    endloop
  endfacet
  facet normal 0 -1 0
    outer loop
      vertex 20.9944 9.1 6.20213
      vertex 20.3979 9.1 5.0313
      vertex 25.621 9.1 6.6
    endloop
  endfacet
  facet normal 0 -1 0
    outer loop
      vertex 20.3979 9.1 5.0313
      vertex 19.4687 9.1 4.10213
      vertex 25.621 9.1 6.6
    endloop
  endfacet
  facet normal 0 -1 0
    outer loop
      vertex 17 9.1 3.3
      vertex 15.7021 9.1 3.50556
      vertex 14.7 9.1 9.10383e-016
    endloop
  endfacet
  facet normal 0 -1 0
    outer loop
      vertex 13.6021 9.1 5.0313
      vertex 13.0056 9.1 6.20213
      vertex 14.7 9.1 0
    endloop
  endfacet
  facet normal 0 -1 0
    outer loop
      vertex 9.44255 9.1 13.2
      vertex 13.0056 9.1 6.20213
      vertex 12.8 9.1 7.5
    endloop
  endfacet
  facet normal 0 -1 0
    outer loop
      vertex 9.44255 9.1 13.2
      vertex 14.7 9.1 0
      vertex 13.0056 9.1 6.20213
    endloop
  endfacet
  facet normal 0 -1 0
    outer loop
      vertex 13.0056 9.1 8.79787
      vertex 13.6021 9.1 9.9687
      vertex 14.1895 9.1 13.2
    endloop
  endfacet
  facet normal 0 -1 0
    outer loop
      vertex 13.6021 9.1 9.9687
      vertex 14.5313 9.1 10.8979
      vertex 14.1895 9.1 13.2
    endloop
  endfacet
  facet normal 1 0 0
    outer loop
      vertex 14.7 9.1 9.10383e-016
      vertex 14.7 9.1 0
      vertex 14.7 13.2 0
    endloop
  endfacet
  facet normal 0 -2.22045e-016 -1
    outer loop
      vertex 14.7 9.1 9.10383e-016
      vertex 14.7 13.2 0
      vertex 21.8105 9.1 9.10383e-016
    endloop
  endfacet
  facet normal 0 -2.22045e-016 -1
    outer loop
      vertex 21.8105 9.1 9.10383e-016
      vertex 14.7 13.2 0
      vertex 21.8105 13.2 0
    endloop
  endfacet
  facet normal 0 1 -2.22045e-016
    outer loop
      vertex 18.2979 13.2 11.4944
      vertex 14.1895 13.2 13.2
      vertex 21.8105 13.2 13.2
    endloop
  endfacet
  facet normal 0 1 -2.22045e-016
    outer loop
      vertex 21.2 13.2 7.5
      vertex 21.8105 13.2 13.2
      vertex 25.621 13.2 6.6
    endloop
  endfacet
  facet normal 0 1 -2.22045e-016
    outer loop
      vertex 18.2979 13.2 3.50556
      vertex 25.621 13.2 6.6
      vertex 21.8105 13.2 0
    endloop
  endfacet
  facet normal 0 1 -2.22045e-016
    outer loop
      vertex 18.2979 13.2 3.50556
      vertex 21.8105 13.2 0
      vertex 17 13.2 3.3
    endloop
  endfacet
  facet normal 0 1 -2.22045e-016
    outer loop
      vertex 21.8105 13.2 0
      vertex 14.7 13.2 0
      vertex 14.7 13.2 4.01617
    endloop
  endfacet
  facet normal 0 1 -2.22045e-016
    outer loop
      vertex 21.8105 13.2 0
      vertex 14.7 13.2 4.01617
      vertex 15.7021 13.2 3.50556
    endloop
  endfacet
  facet normal 0 1 -2.22045e-016
    outer loop
      vertex 19.4687 13.2 4.10213
      vertex 25.621 13.2 6.6
      vertex 18.2979 13.2 3.50556
    endloop
  endfacet
  facet normal 0 1 -2.22045e-016
    outer loop
      vertex 21.2 13.2 7.5
      vertex 25.621 13.2 6.6
      vertex 20.9944 13.2 6.20213
    endloop
  endfacet
  facet normal 0 1 -2.22045e-016
    outer loop
      vertex 20.3979 13.2 5.0313
      vertex 25.621 13.2 6.6
      vertex 19.4687 13.2 4.10213
    endloop
  endfacet
  facet normal 0 1 -2.22045e-016
    outer loop
      vertex 20.9944 13.2 6.20213
      vertex 25.621 13.2 6.6
      vertex 20.3979 13.2 5.0313
    endloop
  endfacet
  facet normal 0 1 -2.22045e-016
    outer loop
      vertex 20.9944 13.2 8.79787
      vertex 21.8105 13.2 13.2
      vertex 21.2 13.2 7.5
    endloop
  endfacet
  facet normal 0 1 -2.22045e-016
    outer loop
      vertex 18.2979 13.2 11.4944
      vertex 21.8105 13.2 13.2
      vertex 19.4687 13.2 10.8979
    endloop
  endfacet
  facet normal 0 1 -2.22045e-016
    outer loop
      vertex 20.3979 13.2 9.9687
      vertex 21.8105 13.2 13.2
      vertex 20.9944 13.2 8.79787
    endloop
  endfacet
  facet normal 0 1 -2.22045e-016
    outer loop
      vertex 19.4687 13.2 10.8979
      vertex 21.8105 13.2 13.2
      vertex 20.3979 13.2 9.9687
    endloop
  endfacet
  facet normal 0 1 -2.22045e-016
    outer loop
      vertex 17 13.2 11.7
      vertex 14.1895 13.2 13.2
      vertex 18.2979 13.2 11.4944
    endloop
  endfacet
  facet normal 0 1 -2.22045e-016
    outer loop
      vertex 13.0056 13.2 8.79787
      vertex 14.1895 13.2 13.2
      vertex 13.6021 13.2 9.9687
    endloop
  endfacet
  facet normal 0 1 -2.22045e-016
    outer loop
      vertex 15.7021 13.2 11.4944
      vertex 14.1895 13.2 13.2
      vertex 17 13.2 11.7
    endloop
  endfacet
  facet normal 0 1 -2.22045e-016
    outer loop
      vertex 14.5313 13.2 10.8979
      vertex 14.1895 13.2 13.2
      vertex 15.7021 13.2 11.4944
    endloop
  endfacet
  facet normal 0 1 -2.22045e-016
    outer loop
      vertex 13.6021 13.2 9.9687
      vertex 14.1895 13.2 13.2
      vertex 14.5313 13.2 10.8979
    endloop
  endfacet
  facet normal 0 1 -2.22045e-016
    outer loop
      vertex 10.379 13.2 6.6
      vertex 14.1895 13.2 13.2
      vertex 13.0056 13.2 8.79787
    endloop
  endfacet
  facet normal 0 1 -2.22045e-016
    outer loop
      vertex 10.379 13.2 6.6
      vertex 13.0056 13.2 8.79787
      vertex 12.8 13.2 7.5
    endloop
  endfacet
  facet normal 0 1 -2.22045e-016
    outer loop
      vertex 10.379 13.2 6.6
      vertex 12.8 13.2 7.5
      vertex 12.9425 13.2 6.6
    endloop
  endfacet
  facet normal 0 1 -2.22045e-016
    outer loop
      vertex 17 13.2 3.3
      vertex 21.8105 13.2 0
      vertex 15.7021 13.2 3.50556
    endloop
  endfacet
  facet normal 0 1 0
    outer loop
      vertex 13.6021 13.2 5.0313
      vertex 14.7 13.2 0
      vertex 13.0056 13.2 6.20213
    endloop
  endfacet
  facet normal 0 1 0
    outer loop
      vertex 6.6 13.2 0
      vertex 6.6 13.2 13.2
      vertex 10.379 13.2 6.6
    endloop
  endfacet
  facet normal 0 1 0
    outer loop
      vertex 6.6 13.2 0
      vertex 10.379 13.2 6.6
      vertex 14.7 13.2 0
    endloop
  endfacet
  facet normal 0 1 0
    outer loop
      vertex 14.7 13.2 4.01617
      vertex 14.7 13.2 0
      vertex 14.5313 13.2 4.10213
    endloop
  endfacet
  facet normal 0 1 0
    outer loop
      vertex 14.7 13.2 0
      vertex 13.6021 13.2 5.0313
      vertex 14.5313 13.2 4.10213
    endloop
  endfacet
  facet normal 0 1 0
    outer loop
      vertex 10.379 13.2 6.6
      vertex 6.6 13.2 13.2
      vertex 14.1895 13.2 13.2
    endloop
  endfacet
  facet normal 0 1 0
    outer loop
      vertex 13.0056 13.2 6.20213
      vertex 14.7 13.2 0
      vertex 10.379 13.2 6.6
    endloop
  endfacet
  facet normal 0 1 0
    outer loop
      vertex 12.9425 13.2 6.6
      vertex 13.0056 13.2 6.20213
      vertex 10.379 13.2 6.6
    endloop
  endfacet
  facet normal -0.156434 0.987688 0
    outer loop
      vertex 4.56049 12.877 0
      vertex 4.56049 12.877 13.2
      vertex 6.6 13.2 0
    endloop
  endfacet
  facet normal -0.156434 0.987688 0
    outer loop
      vertex 6.6 13.2 0
      vertex 4.56049 12.877 13.2
      vertex 6.6 13.2 13.2
    endloop
  endfacet
  facet normal -0.45399 0.891007 0
    outer loop
      vertex 2.72062 11.9395 0
      vertex 2.72062 11.9395 13.2
      vertex 4.56049 12.877 0
    endloop
  endfacet
  facet normal -0.45399 0.891007 0
    outer loop
      vertex 4.56049 12.877 0
      vertex 2.72062 11.9395 13.2
      vertex 4.56049 12.877 13.2
    endloop
  endfacet
  facet normal -0.707107 0.707107 0
    outer loop
      vertex 1.26049 10.4794 0
      vertex 1.26049 10.4794 13.2
      vertex 2.72062 11.9395 0
    endloop
  endfacet
  facet normal -0.707107 0.707107 0
    outer loop
      vertex 2.72062 11.9395 0
      vertex 1.26049 10.4794 13.2
      vertex 2.72062 11.9395 13.2
    endloop
  endfacet
  facet normal -0.891007 0.45399 0
    outer loop
      vertex 0.323027 8.63951 0
      vertex 0.323027 8.63951 13.2
      vertex 1.26049 10.4794 0
    endloop
  endfacet
  facet normal -0.891007 0.45399 0
    outer loop
      vertex 1.26049 10.4794 0
      vertex 0.323027 8.63951 13.2
      vertex 1.26049 10.4794 13.2
    endloop
  endfacet
  facet normal 0 0 1
    outer loop
      vertex 0.323027 8.63951 13.2
      vertex 0 6.6 13.2
      vertex 0.323027 4.56049 13.2
    endloop
  endfacet
  facet normal 0 0 1
    outer loop
      vertex 2.72062 1.26049 13.2
      vertex 0.323027 8.63951 13.2
      vertex 1.26049 2.72062 13.2
    endloop
  endfacet
  facet normal 0 0 1
    outer loop
      vertex 1.26049 2.72062 13.2
      vertex 0.323027 8.63951 13.2
      vertex 0.323027 4.56049 13.2
    endloop
  endfacet
  facet normal 0 0 1
    outer loop
      vertex 4.56049 0.323027 13.2
      vertex 0.323027 8.63951 13.2
      vertex 2.72062 1.26049 13.2
    endloop
  endfacet
  facet normal 0 0 1
    outer loop
      vertex 6.6 0 13.2
      vertex 0.323027 8.63951 13.2
      vertex 4.56049 0.323027 13.2
    endloop
  endfacet
  facet normal 0 0 1
    outer loop
      vertex 3.68903 4.15741 13.2
      vertex 0.323027 8.63951 13.2
      vertex 6.6 0 13.2
    endloop
  endfacet
  facet normal 0 0 1
    outer loop
      vertex 9.44255 4.1 13.2
      vertex 8.5 3.3091 13.2
      vertex 14.1895 1.46549e-015 13.2
    endloop
  endfacet
  facet normal 0 0 1
    outer loop
      vertex 14.7 0 13.2
      vertex 14.1895 1.46549e-015 13.2
      vertex 6.6 0 13.2
    endloop
  endfacet
  facet normal 0 0 1
    outer loop
      vertex 14.1895 1.46549e-015 13.2
      vertex 8.5 3.3091 13.2
      vertex 6.6 0 13.2
    endloop
  endfacet
  facet normal 0 0 1
    outer loop
      vertex 8.5 3.3091 13.2
      vertex 7.25986 2.85773 13.2
      vertex 6.6 0 13.2
    endloop
  endfacet
  facet normal 0 0 1
    outer loop
      vertex 7.25986 2.85773 13.2
      vertex 5.94014 2.85773 13.2
      vertex 6.6 0 13.2
    endloop
  endfacet
  facet normal 0 0 1
    outer loop
      vertex 5.94014 2.85773 13.2
      vertex 4.7 3.3091 13.2
      vertex 6.6 0 13.2
    endloop
  endfacet
  facet normal 0 0 1
    outer loop
      vertex 4.7 3.3091 13.2
      vertex 3.68903 4.15741 13.2
      vertex 6.6 0 13.2
    endloop
  endfacet
  facet normal 0 0 1
    outer loop
      vertex 3.02917 5.30032 13.2
      vertex 0.323027 8.63951 13.2
      vertex 3.68903 4.15741 13.2
    endloop
  endfacet
  facet normal 0 0 1
    outer loop
      vertex 2.8 6.6 13.2
      vertex 3.02917 7.89968 13.2
      vertex 0.323027 8.63951 13.2
    endloop
  endfacet
  facet normal 0 0 1
    outer loop
      vertex 3.68903 9.04259 13.2
      vertex 0.323027 8.63951 13.2
      vertex 3.02917 7.89968 13.2
    endloop
  endfacet
  facet normal 0 0 1
    outer loop
      vertex 4.7 9.8909 13.2
      vertex 0.323027 8.63951 13.2
      vertex 3.68903 9.04259 13.2
    endloop
  endfacet
  facet normal 0 0 1
    outer loop
      vertex 5.94014 10.3423 13.2
      vertex 0.323027 8.63951 13.2
      vertex 4.7 9.8909 13.2
    endloop
  endfacet
  facet normal 0 0 1
    outer loop
      vertex 14.1895 13.2 13.2
      vertex 0.323027 8.63951 13.2
      vertex 5.94014 10.3423 13.2
    endloop
  endfacet
  facet normal 0 0 1
    outer loop
      vertex 14.1895 13.2 13.2
      vertex 5.94014 10.3423 13.2
      vertex 7.25986 10.3423 13.2
    endloop
  endfacet
  facet normal 0 0 1
    outer loop
      vertex 14.1895 9.1 13.2
      vertex 7.25986 10.3423 13.2
      vertex 8.5 9.8909 13.2
    endloop
  endfacet
  facet normal 0 0 1
    outer loop
      vertex 14.1895 9.1 13.2
      vertex 8.5 9.8909 13.2
      vertex 9.44255 9.1 13.2
    endloop
  endfacet
  facet normal 0 0 1
    outer loop
      vertex 14.1895 13.2 13.2
      vertex 7.25986 10.3423 13.2
      vertex 14.1895 9.1 13.2
    endloop
  endfacet
  facet normal 0 0 1
    outer loop
      vertex 6.6 13.2 13.2
      vertex 0.323027 8.63951 13.2
      vertex 14.1895 13.2 13.2
    endloop
  endfacet
  facet normal 0 0 1
    outer loop
      vertex 4.56049 12.877 13.2
      vertex 0.323027 8.63951 13.2
      vertex 6.6 13.2 13.2
    endloop
  endfacet
  facet normal 0 0 1
    outer loop
      vertex 2.72062 11.9395 13.2
      vertex 0.323027 8.63951 13.2
      vertex 4.56049 12.877 13.2
    endloop
  endfacet
  facet normal 0 0 1
    outer loop
      vertex 1.26049 10.4794 13.2
      vertex 0.323027 8.63951 13.2
      vertex 2.72062 11.9395 13.2
    endloop
  endfacet
  facet normal 0 0 1
    outer loop
      vertex 14.7 1.46549e-015 13.2
      vertex 14.1895 1.46549e-015 13.2
      vertex 14.7 0 13.2
    endloop
  endfacet
  facet normal 0 0 1
    outer loop
      vertex 14.1895 1.46549e-015 13.2
      vertex 14.1895 4.1 13.2
      vertex 9.44255 4.1 13.2
    endloop
  endfacet
  facet normal 0 0 1
    outer loop
      vertex 3.02917 5.30032 13.2
      vertex 2.8 6.6 13.2
      vertex 0.323027 8.63951 13.2
    endloop
  endfacet
  facet normal 1 0 0
    outer loop
      vertex 14.7 0 13.2
      vertex 14.7 0 10.9838
      vertex 14.7 9.73405e-016 10.9838
    endloop
  endfacet
  facet normal 1 0 0
    outer loop
      vertex 14.7 1.46549e-015 13.2
      vertex 14.7 0 13.2
      vertex 14.7 9.73405e-016 10.9838
    endloop
  endfacet
  facet normal 0.45399 -1.97843e-016 -0.891007
    outer loop
      vertex 15.7021 4.1 11.4944
      vertex 15.7021 1.08678e-015 11.4944
      vertex 14.5313 4.1 10.8979
    endloop
  endfacet
  facet normal 0.45399 -1.97843e-016 -0.891007
    outer loop
      vertex 14.5313 4.1 10.8979
      vertex 15.7021 1.08678e-015 11.4944
      vertex 14.7 9.73405e-016 10.9838
    endloop
  endfacet
  facet normal 0.45399 -1.97843e-016 -0.891007
    outer loop
      vertex 14.5313 4.1 10.8979
      vertex 14.7 9.73405e-016 10.9838
      vertex 14.7 0 10.9838
    endloop
  endfacet
  facet normal 0.45399 -1.97843e-016 -0.891007
    outer loop
      vertex 14.5313 4.1 10.8979
      vertex 14.7 0 10.9838
      vertex 14.5313 0 10.8979
    endloop
  endfacet
  facet normal 0.707107 -1.57009e-016 -0.707107
    outer loop
      vertex 13.6021 4.1 9.9687
      vertex 14.5313 4.1 10.8979
      vertex 14.5313 0 10.8979
    endloop
  endfacet
  facet normal 0.707107 -1.57009e-016 -0.707107
    outer loop
      vertex 13.6021 0 9.9687
      vertex 13.6021 4.1 9.9687
      vertex 14.5313 0 10.8979
    endloop
  endfacet
  facet normal 0.891007 -1.00806e-016 -0.45399
    outer loop
      vertex 13.0056 4.1 8.79787
      vertex 13.6021 4.1 9.9687
      vertex 13.6021 0 9.9687
    endloop
  endfacet
  facet normal 0.891007 -1.00806e-016 -0.45399
    outer loop
      vertex 13.0056 0 8.79787
      vertex 13.0056 4.1 8.79787
      vertex 13.6021 0 9.9687
    endloop
  endfacet
  facet normal 0.987688 -3.47355e-017 -0.156435
    outer loop
      vertex 12.8 4.1 7.5
      vertex 13.0056 4.1 8.79787
      vertex 13.0056 0 8.79787
    endloop
  endfacet
  facet normal 0.987688 -3.47355e-017 -0.156435
    outer loop
      vertex 12.8 0 7.5
      vertex 12.8 4.1 7.5
      vertex 13.0056 0 8.79787
    endloop
  endfacet
  facet normal 0.987688 3.47355e-017 0.156435
    outer loop
      vertex 12.9425 0 6.6
      vertex 13.0056 -8.83451e-017 6.20213
      vertex 13.0056 4.1 6.20213
    endloop
  endfacet
  facet normal 0.987688 3.47355e-017 0.156435
    outer loop
      vertex 12.8 0 7.5
      vertex 12.9425 0 6.6
      vertex 12.8 4.1 7.5
    endloop
  endfacet
  facet normal 0.987688 3.47355e-017 0.156435
    outer loop
      vertex 12.8 4.1 7.5
      vertex 12.9425 0 6.6
      vertex 13.0056 4.1 6.20213
    endloop
  endfacet
  facet normal 0 -1 2.22045e-016
    outer loop
      vertex 13.0056 -8.83451e-017 6.20213
      vertex 10.379 0 6.6
      vertex 14.1895 -1.46549e-015 2.93099e-015
    endloop
  endfacet
  facet normal 0 -1 2.22045e-016
    outer loop
      vertex 13.6021 -3.48321e-016 5.0313
      vertex 13.0056 -8.83451e-017 6.20213
      vertex 14.1895 -1.46549e-015 2.93099e-015
    endloop
  endfacet
  facet normal 0 -1 2.22045e-016
    outer loop
      vertex 21.2 1.9984e-016 7.5
      vertex 20.9944 -8.83451e-017 6.20213
      vertex 25.621 0 6.6
    endloop
  endfacet
  facet normal 0 -1 2.22045e-016
    outer loop
      vertex 18.2979 -6.87103e-016 3.50556
      vertex 17 -7.32747e-016 3.3
      vertex 21.8105 -1.46549e-015 2.93099e-015
    endloop
  endfacet
  facet normal 0 -1 2.22045e-016
    outer loop
      vertex 14.1895 1.46549e-015 13.2
      vertex 14.7 1.46549e-015 13.2
      vertex 21.8105 1.46549e-015 13.2
    endloop
  endfacet
  facet normal 0 -1 2.22045e-016
    outer loop
      vertex 14.7 1.46549e-015 13.2
      vertex 15.7021 1.08678e-015 11.4944
      vertex 21.8105 1.46549e-015 13.2
    endloop
  endfacet
  facet normal 0 -1 2.22045e-016
    outer loop
      vertex 14.7 1.46549e-015 13.2
      vertex 14.7 9.73405e-016 10.9838
      vertex 15.7021 1.08678e-015 11.4944
    endloop
  endfacet
  facet normal 0 -1 2.22045e-016
    outer loop
      vertex 17 1.13243e-015 11.7
      vertex 18.2979 1.08678e-015 11.4944
      vertex 21.8105 1.46549e-015 13.2
    endloop
  endfacet
  facet normal 0 -1 2.22045e-016
    outer loop
      vertex 21.8105 1.46549e-015 13.2
      vertex 19.4687 9.54319e-016 10.8979
      vertex 25.621 0 6.6
    endloop
  endfacet
  facet normal 0 -1 2.22045e-016
    outer loop
      vertex 19.4687 9.54319e-016 10.8979
      vertex 20.3979 7.48001e-016 9.9687
      vertex 25.621 0 6.6
    endloop
  endfacet
  facet normal 0 -1 2.22045e-016
    outer loop
      vertex 20.3979 7.48001e-016 9.9687
      vertex 20.9944 4.88025e-016 8.79787
      vertex 25.621 0 6.6
    endloop
  endfacet
  facet normal 0 -1 2.22045e-016
    outer loop
      vertex 20.9944 4.88025e-016 8.79787
      vertex 21.2 1.9984e-016 7.5
      vertex 25.621 0 6.6
    endloop
  endfacet
  facet normal 0 -1 2.22045e-016
    outer loop
      vertex 25.621 0 6.6
      vertex 20.9944 -8.83451e-017 6.20213
      vertex 21.8105 -1.46549e-015 2.93099e-015
    endloop
  endfacet
  facet normal 0 -1 2.22045e-016
    outer loop
      vertex 20.9944 -8.83451e-017 6.20213
      vertex 20.3979 -3.48321e-016 5.0313
      vertex 21.8105 -1.46549e-015 2.93099e-015
    endloop
  endfacet
  facet normal 0 -1 2.22045e-016
    outer loop
      vertex 20.3979 -3.48321e-016 5.0313
      vertex 19.4687 -5.54639e-016 4.10213
      vertex 21.8105 -1.46549e-015 2.93099e-015
    endloop
  endfacet
  facet normal 0 -1 2.22045e-016
    outer loop
      vertex 19.4687 -5.54639e-016 4.10213
      vertex 18.2979 -6.87103e-016 3.50556
      vertex 21.8105 -1.46549e-015 2.93099e-015
    endloop
  endfacet
  facet normal 0 -1 2.22045e-016
    outer loop
      vertex 21.8105 -1.46549e-015 2.93099e-015
      vertex 17 -7.32747e-016 3.3
      vertex 14.1895 -1.46549e-015 2.93099e-015
    endloop
  endfacet
  facet normal 0 -1 2.22045e-016
    outer loop
      vertex 17 -7.32747e-016 3.3
      vertex 15.7021 -6.87103e-016 3.50556
      vertex 14.1895 -1.46549e-015 2.93099e-015
    endloop
  endfacet
  facet normal 0 -1 2.22045e-016
    outer loop
      vertex 15.7021 -6.87103e-016 3.50556
      vertex 14.5313 -5.54639e-016 4.10213
      vertex 14.1895 -1.46549e-015 2.93099e-015
    endloop
  endfacet
  facet normal 0 -1 2.22045e-016
    outer loop
      vertex 14.5313 -5.54639e-016 4.10213
      vertex 13.6021 -3.48321e-016 5.0313
      vertex 14.1895 -1.46549e-015 2.93099e-015
    endloop
  endfacet
  facet normal 0 -1 2.22045e-016
    outer loop
      vertex 12.9425 0 6.6
      vertex 10.379 0 6.6
      vertex 13.0056 -8.83451e-017 6.20213
    endloop
  endfacet
  facet normal 0 -1 2.22045e-016
    outer loop
      vertex 15.7021 1.08678e-015 11.4944
      vertex 17 1.13243e-015 11.7
      vertex 21.8105 1.46549e-015 13.2
    endloop
  endfacet
  facet normal 0 -1 2.22045e-016
    outer loop
      vertex 18.2979 1.08678e-015 11.4944
      vertex 19.4687 9.54319e-016 10.8979
      vertex 21.8105 1.46549e-015 13.2
    endloop
  endfacet
  facet normal -0.866025 -1.11022e-016 -0.5
    outer loop
      vertex 14.1895 -1.46549e-015 2.93099e-015
      vertex 10.379 0 6.6
      vertex 14.1895 0 2.93099e-015
    endloop
  endfacet
  facet normal 0 -2.22045e-016 -1
    outer loop
      vertex 14.1895 -1.46549e-015 2.93099e-015
      vertex 14.1895 0 2.93099e-015
      vertex 21.8105 -1.46549e-015 2.93099e-015
    endloop
  endfacet
  facet normal 0 -2.22045e-016 -1
    outer loop
      vertex 21.8105 -1.46549e-015 2.93099e-015
      vertex 14.1895 0 2.93099e-015
      vertex 14.7 0 2.93099e-015
    endloop
  endfacet
  facet normal 0 -2.22045e-016 -1
    outer loop
      vertex 21.8105 -1.46549e-015 2.93099e-015
      vertex 14.7 0 2.93099e-015
      vertex 14.7 4.1 2.02061e-015
    endloop
  endfacet
  facet normal 0 -2.22045e-016 -1
    outer loop
      vertex 21.8105 -1.46549e-015 2.93099e-015
      vertex 14.7 4.1 2.02061e-015
      vertex 21.8105 4.1 2.02061e-015
    endloop
  endfacet
  facet normal 0.866025 -1.11022e-016 -0.5
    outer loop
      vertex 25.621 0 6.6
      vertex 21.8105 -1.46549e-015 2.93099e-015
      vertex 21.8105 4.1 2.02061e-015
    endloop
  endfacet
  facet normal 0.866025 -1.11022e-016 -0.5
    outer loop
      vertex 25.621 4.1 6.6
      vertex 25.621 0 6.6
      vertex 21.8105 4.1 2.02061e-015
    endloop
  endfacet
  facet normal 0.866025 1.11022e-016 0.5
    outer loop
      vertex 21.8105 4.1 13.2
      vertex 21.8105 1.46549e-015 13.2
      vertex 25.621 0 6.6
    endloop
  endfacet
  facet normal 0.866025 1.11022e-016 0.5
    outer loop
      vertex 25.621 4.1 6.6
      vertex 21.8105 4.1 13.2
      vertex 25.621 0 6.6
    endloop
  endfacet
  facet normal 0 2.22045e-016 1
    outer loop
      vertex 14.1895 4.1 13.2
      vertex 14.1895 1.46549e-015 13.2
      vertex 21.8105 1.46549e-015 13.2
    endloop
  endfacet
  facet normal 0 2.22045e-016 1
    outer loop
      vertex 21.8105 4.1 13.2
      vertex 14.1895 4.1 13.2
      vertex 21.8105 1.46549e-015 13.2
    endloop
  endfacet
  facet normal 0.891007 1.00806e-016 0.45399
    outer loop
      vertex 13.6021 -3.48321e-016 5.0313
      vertex 13.6021 4.1 5.0313
      vertex 13.0056 4.1 6.20213
    endloop
  endfacet
  facet normal 0.891007 1.00806e-016 0.45399
    outer loop
      vertex 13.0056 -8.83451e-017 6.20213
      vertex 13.6021 -3.48321e-016 5.0313
      vertex 13.0056 4.1 6.20213
    endloop
  endfacet
  facet normal 0.156435 -2.19311e-016 -0.987688
    outer loop
      vertex 17 4.1 11.7
      vertex 17 1.13243e-015 11.7
      vertex 15.7021 4.1 11.4944
    endloop
  endfacet
  facet normal 0.156435 -2.19311e-016 -0.987688
    outer loop
      vertex 15.7021 4.1 11.4944
      vertex 17 1.13243e-015 11.7
      vertex 15.7021 1.08678e-015 11.4944
    endloop
  endfacet
  facet normal -0.156435 -2.19311e-016 -0.987688
    outer loop
      vertex 18.2979 4.1 11.4944
      vertex 18.2979 1.08678e-015 11.4944
      vertex 17 4.1 11.7
    endloop
  endfacet
  facet normal -0.156435 -2.19311e-016 -0.987688
    outer loop
      vertex 17 4.1 11.7
      vertex 18.2979 1.08678e-015 11.4944
      vertex 17 1.13243e-015 11.7
    endloop
  endfacet
  facet normal -0.45399 -1.97843e-016 -0.891007
    outer loop
      vertex 19.4687 4.1 10.8979
      vertex 19.4687 9.54319e-016 10.8979
      vertex 18.2979 4.1 11.4944
    endloop
  endfacet
  facet normal -0.45399 -1.97843e-016 -0.891007
    outer loop
      vertex 18.2979 4.1 11.4944
      vertex 19.4687 9.54319e-016 10.8979
      vertex 18.2979 1.08678e-015 11.4944
    endloop
  endfacet
  facet normal -0.707107 -1.57009e-016 -0.707107
    outer loop
      vertex 20.3979 4.1 9.9687
      vertex 20.3979 7.48001e-016 9.9687
      vertex 19.4687 4.1 10.8979
    endloop
  endfacet
  facet normal -0.707107 -1.57009e-016 -0.707107
    outer loop
      vertex 19.4687 4.1 10.8979
      vertex 20.3979 7.48001e-016 9.9687
      vertex 19.4687 9.54319e-016 10.8979
    endloop
  endfacet
  facet normal -0.891007 -1.00806e-016 -0.45399
    outer loop
      vertex 20.9944 4.1 8.79787
      vertex 20.9944 4.88025e-016 8.79787
      vertex 20.3979 4.1 9.9687
    endloop
  endfacet
  facet normal -0.891007 -1.00806e-016 -0.45399
    outer loop
      vertex 20.3979 4.1 9.9687
      vertex 20.9944 4.88025e-016 8.79787
      vertex 20.3979 7.48001e-016 9.9687
    endloop
  endfacet
  facet normal -0.987688 -3.47355e-017 -0.156435
    outer loop
      vertex 21.2 4.1 7.5
      vertex 21.2 1.9984e-016 7.5
      vertex 20.9944 4.1 8.79787
    endloop
  endfacet
  facet normal -0.987688 -3.47355e-017 -0.156435
    outer loop
      vertex 20.9944 4.1 8.79787
      vertex 21.2 1.9984e-016 7.5
      vertex 20.9944 4.88025e-016 8.79787
    endloop
  endfacet
  facet normal -0.987688 3.47355e-017 0.156435
    outer loop
      vertex 21.2 4.1 7.5
      vertex 20.9944 4.1 6.20213
      vertex 21.2 1.9984e-016 7.5
    endloop
  endfacet
  facet normal -0.987688 3.47355e-017 0.156435
    outer loop
      vertex 21.2 1.9984e-016 7.5
      vertex 20.9944 4.1 6.20213
      vertex 20.9944 -8.83451e-017 6.20213
    endloop
  endfacet
  facet normal -0.891007 1.00806e-016 0.45399
    outer loop
      vertex 20.9944 4.1 6.20213
      vertex 20.3979 4.1 5.0313
      vertex 20.9944 -8.83451e-017 6.20213
    endloop
  endfacet
  facet normal -0.891007 1.00806e-016 0.45399
    outer loop
      vertex 20.9944 -8.83451e-017 6.20213
      vertex 20.3979 4.1 5.0313
      vertex 20.3979 -3.48321e-016 5.0313
    endloop
  endfacet
  facet normal -0.707107 1.57009e-016 0.707107
    outer loop
      vertex 20.3979 4.1 5.0313
      vertex 19.4687 4.1 4.10213
      vertex 20.3979 -3.48321e-016 5.0313
    endloop
  endfacet
  facet normal -0.707107 1.57009e-016 0.707107
    outer loop
      vertex 20.3979 -3.48321e-016 5.0313
      vertex 19.4687 4.1 4.10213
      vertex 19.4687 -5.54639e-016 4.10213
    endloop
  endfacet
  facet normal -0.45399 1.97843e-016 0.891007
    outer loop
      vertex 19.4687 -5.54639e-016 4.10213
      vertex 19.4687 4.1 4.10213
      vertex 18.2979 4.1 3.50556
    endloop
  endfacet
  facet normal -0.45399 1.97843e-016 0.891007
    outer loop
      vertex 18.2979 -6.87103e-016 3.50556
      vertex 19.4687 -5.54639e-016 4.10213
      vertex 18.2979 4.1 3.50556
    endloop
  endfacet
  facet normal -0.156435 2.19311e-016 0.987688
    outer loop
      vertex 18.2979 -6.87103e-016 3.50556
      vertex 18.2979 4.1 3.50556
      vertex 17 4.1 3.3
    endloop
  endfacet
  facet normal -0.156435 2.19311e-016 0.987688
    outer loop
      vertex 17 -7.32747e-016 3.3
      vertex 18.2979 -6.87103e-016 3.50556
      vertex 17 4.1 3.3
    endloop
  endfacet
  facet normal 0.156435 2.19311e-016 0.987688
    outer loop
      vertex 17 -7.32747e-016 3.3
      vertex 17 4.1 3.3
      vertex 15.7021 4.1 3.50556
    endloop
  endfacet
  facet normal 0.156435 2.19311e-016 0.987688
    outer loop
      vertex 15.7021 -6.87103e-016 3.50556
      vertex 17 -7.32747e-016 3.3
      vertex 15.7021 4.1 3.50556
    endloop
  endfacet
  facet normal 0.45399 1.97843e-016 0.891007
    outer loop
      vertex 15.7021 -6.87103e-016 3.50556
      vertex 15.7021 4.1 3.50556
      vertex 14.5313 4.1 4.10213
    endloop
  endfacet
  facet normal 0.45399 1.97843e-016 0.891007
    outer loop
      vertex 14.5313 -5.54639e-016 4.10213
      vertex 15.7021 -6.87103e-016 3.50556
      vertex 14.5313 4.1 4.10213
    endloop
  endfacet
  facet normal 0.707107 1.57009e-016 0.707107
    outer loop
      vertex 14.5313 -5.54639e-016 4.10213
      vertex 14.5313 4.1 4.10213
      vertex 13.6021 4.1 5.0313
    endloop
  endfacet
  facet normal 0.707107 1.57009e-016 0.707107
    outer loop
      vertex 13.6021 -3.48321e-016 5.0313
      vertex 14.5313 -5.54639e-016 4.10213
      vertex 13.6021 4.1 5.0313
    endloop
  endfacet
  facet normal 0 2.22045e-016 1
    outer loop
      vertex 14.1895 13.2 13.2
      vertex 14.1895 9.1 13.2
      vertex 21.8105 9.1 13.2
    endloop
  endfacet
  facet normal 0 2.22045e-016 1
    outer loop
      vertex 21.8105 13.2 13.2
      vertex 14.1895 13.2 13.2
      vertex 21.8105 9.1 13.2
    endloop
  endfacet
  facet normal 0.866025 1.11022e-016 0.5
    outer loop
      vertex 21.8105 13.2 13.2
      vertex 21.8105 9.1 13.2
      vertex 25.621 9.1 6.6
    endloop
  endfacet
  facet normal 0.866025 1.11022e-016 0.5
    outer loop
      vertex 25.621 13.2 6.6
      vertex 21.8105 13.2 13.2
      vertex 25.621 9.1 6.6
    endloop
  endfacet
  facet normal 0.866025 -1.11022e-016 -0.5
    outer loop
      vertex 25.621 9.1 6.6
      vertex 21.8105 9.1 9.10383e-016
      vertex 21.8105 13.2 0
    endloop
  endfacet
  facet normal 0.866025 -1.11022e-016 -0.5
    outer loop
      vertex 25.621 13.2 6.6
      vertex 25.621 9.1 6.6
      vertex 21.8105 13.2 0
    endloop
  endfacet
  facet normal 0.987688 -3.47355e-017 -0.156435
    outer loop
      vertex 12.8 13.2 7.5
      vertex 13.0056 13.2 8.79787
      vertex 13.0056 9.1 8.79787
    endloop
  endfacet
  facet normal 0.987688 -3.47355e-017 -0.156435
    outer loop
      vertex 12.8 9.1 7.5
      vertex 12.8 13.2 7.5
      vertex 13.0056 9.1 8.79787
    endloop
  endfacet
  facet normal 0.987688 3.47355e-017 0.156435
    outer loop
      vertex 13.0056 9.1 6.20213
      vertex 13.0056 13.2 6.20213
      vertex 12.9425 13.2 6.6
    endloop
  endfacet
  facet normal 0.987688 3.47355e-017 0.156435
    outer loop
      vertex 12.8 13.2 7.5
      vertex 13.0056 9.1 6.20213
      vertex 12.9425 13.2 6.6
    endloop
  endfacet
  facet normal 0.987688 3.47355e-017 0.156435
    outer loop
      vertex 12.8 13.2 7.5
      vertex 12.8 9.1 7.5
      vertex 13.0056 9.1 6.20213
    endloop
  endfacet
  facet normal 0.891007 1.00806e-016 0.45399
    outer loop
      vertex 13.6021 9.1 5.0313
      vertex 13.6021 13.2 5.0313
      vertex 13.0056 13.2 6.20213
    endloop
  endfacet
  facet normal 0.891007 1.00806e-016 0.45399
    outer loop
      vertex 13.0056 9.1 6.20213
      vertex 13.6021 9.1 5.0313
      vertex 13.0056 13.2 6.20213
    endloop
  endfacet
  facet normal 0.707107 1.57009e-016 0.707107
    outer loop
      vertex 14.5313 9.1 4.10213
      vertex 14.5313 13.2 4.10213
      vertex 13.6021 13.2 5.0313
    endloop
  endfacet
  facet normal 0.707107 1.57009e-016 0.707107
    outer loop
      vertex 13.6021 9.1 5.0313
      vertex 14.5313 9.1 4.10213
      vertex 13.6021 13.2 5.0313
    endloop
  endfacet
  facet normal 0.45399 1.97843e-016 0.891007
    outer loop
      vertex 15.7021 9.1 3.50556
      vertex 15.7021 13.2 3.50556
      vertex 14.7 13.2 4.01617
    endloop
  endfacet
  facet normal 0.45399 1.97843e-016 0.891007
    outer loop
      vertex 14.5313 13.2 4.10213
      vertex 15.7021 9.1 3.50556
      vertex 14.7 13.2 4.01617
    endloop
  endfacet
  facet normal 0.45399 1.97843e-016 0.891007
    outer loop
      vertex 14.5313 13.2 4.10213
      vertex 14.5313 9.1 4.10213
      vertex 15.7021 9.1 3.50556
    endloop
  endfacet
  facet normal 0.156435 2.19311e-016 0.987688
    outer loop
      vertex 17 9.1 3.3
      vertex 17 13.2 3.3
      vertex 15.7021 13.2 3.50556
    endloop
  endfacet
  facet normal 0.156435 2.19311e-016 0.987688
    outer loop
      vertex 15.7021 9.1 3.50556
      vertex 17 9.1 3.3
      vertex 15.7021 13.2 3.50556
    endloop
  endfacet
  facet normal -0.156435 2.19311e-016 0.987688
    outer loop
      vertex 18.2979 9.1 3.50556
      vertex 18.2979 13.2 3.50556
      vertex 17 13.2 3.3
    endloop
  endfacet
  facet normal -0.156435 2.19311e-016 0.987688
    outer loop
      vertex 17 9.1 3.3
      vertex 18.2979 9.1 3.50556
      vertex 17 13.2 3.3
    endloop
  endfacet
  facet normal -0.45399 1.97843e-016 0.891007
    outer loop
      vertex 19.4687 9.1 4.10213
      vertex 19.4687 13.2 4.10213
      vertex 18.2979 13.2 3.50556
    endloop
  endfacet
  facet normal -0.45399 1.97843e-016 0.891007
    outer loop
      vertex 18.2979 9.1 3.50556
      vertex 19.4687 9.1 4.10213
      vertex 18.2979 13.2 3.50556
    endloop
  endfacet
  facet normal -0.707107 1.57009e-016 0.707107
    outer loop
      vertex 20.3979 13.2 5.0313
      vertex 19.4687 13.2 4.10213
      vertex 20.3979 9.1 5.0313
    endloop
  endfacet
  facet normal -0.707107 1.57009e-016 0.707107
    outer loop
      vertex 20.3979 9.1 5.0313
      vertex 19.4687 13.2 4.10213
      vertex 19.4687 9.1 4.10213
    endloop
  endfacet
  facet normal -0.891007 1.00806e-016 0.45399
    outer loop
      vertex 20.9944 13.2 6.20213
      vertex 20.3979 13.2 5.0313
      vertex 20.9944 9.1 6.20213
    endloop
  endfacet
  facet normal -0.891007 1.00806e-016 0.45399
    outer loop
      vertex 20.9944 9.1 6.20213
      vertex 20.3979 13.2 5.0313
      vertex 20.3979 9.1 5.0313
    endloop
  endfacet
  facet normal -0.987688 3.47355e-017 0.156435
    outer loop
      vertex 21.2 13.2 7.5
      vertex 20.9944 13.2 6.20213
      vertex 21.2 9.1 7.5
    endloop
  endfacet
  facet normal -0.987688 3.47355e-017 0.156435
    outer loop
      vertex 21.2 9.1 7.5
      vertex 20.9944 13.2 6.20213
      vertex 20.9944 9.1 6.20213
    endloop
  endfacet
  facet normal -0.987688 -3.47355e-017 -0.156435
    outer loop
      vertex 21.2 13.2 7.5
      vertex 21.2 9.1 7.5
      vertex 20.9944 13.2 8.79787
    endloop
  endfacet
  facet normal -0.987688 -3.47355e-017 -0.156435
    outer loop
      vertex 20.9944 13.2 8.79787
      vertex 21.2 9.1 7.5
      vertex 20.9944 9.1 8.79787
    endloop
  endfacet
  facet normal -0.891007 -1.00806e-016 -0.45399
    outer loop
      vertex 20.9944 13.2 8.79787
      vertex 20.9944 9.1 8.79787
      vertex 20.3979 13.2 9.9687
    endloop
  endfacet
  facet normal -0.891007 -1.00806e-016 -0.45399
    outer loop
      vertex 20.3979 13.2 9.9687
      vertex 20.9944 9.1 8.79787
      vertex 20.3979 9.1 9.9687
    endloop
  endfacet
  facet normal -0.707107 -1.57009e-016 -0.707107
    outer loop
      vertex 20.3979 13.2 9.9687
      vertex 20.3979 9.1 9.9687
      vertex 19.4687 13.2 10.8979
    endloop
  endfacet
  facet normal -0.707107 -1.57009e-016 -0.707107
    outer loop
      vertex 19.4687 13.2 10.8979
      vertex 20.3979 9.1 9.9687
      vertex 19.4687 9.1 10.8979
    endloop
  endfacet
  facet normal -0.45399 -1.97843e-016 -0.891007
    outer loop
      vertex 19.4687 13.2 10.8979
      vertex 19.4687 9.1 10.8979
      vertex 18.2979 13.2 11.4944
    endloop
  endfacet
  facet normal -0.45399 -1.97843e-016 -0.891007
    outer loop
      vertex 18.2979 13.2 11.4944
      vertex 19.4687 9.1 10.8979
      vertex 18.2979 9.1 11.4944
    endloop
  endfacet
  facet normal -0.156435 -2.19311e-016 -0.987688
    outer loop
      vertex 18.2979 13.2 11.4944
      vertex 18.2979 9.1 11.4944
      vertex 17 13.2 11.7
    endloop
  endfacet
  facet normal -0.156435 -2.19311e-016 -0.987688
    outer loop
      vertex 17 13.2 11.7
      vertex 18.2979 9.1 11.4944
      vertex 17 9.1 11.7
    endloop
  endfacet
  facet normal 0.156435 -2.19311e-016 -0.987688
    outer loop
      vertex 17 13.2 11.7
      vertex 17 9.1 11.7
      vertex 15.7021 13.2 11.4944
    endloop
  endfacet
  facet normal 0.156435 -2.19311e-016 -0.987688
    outer loop
      vertex 15.7021 13.2 11.4944
      vertex 17 9.1 11.7
      vertex 15.7021 9.1 11.4944
    endloop
  endfacet
  facet normal 0.45399 -1.97843e-016 -0.891007
    outer loop
      vertex 15.7021 13.2 11.4944
      vertex 15.7021 9.1 11.4944
      vertex 14.5313 13.2 10.8979
    endloop
  endfacet
  facet normal 0.45399 -1.97843e-016 -0.891007
    outer loop
      vertex 14.5313 13.2 10.8979
      vertex 15.7021 9.1 11.4944
      vertex 14.5313 9.1 10.8979
    endloop
  endfacet
  facet normal 0.707107 -1.57009e-016 -0.707107
    outer loop
      vertex 13.6021 13.2 9.9687
      vertex 14.5313 13.2 10.8979
      vertex 14.5313 9.1 10.8979
    endloop
  endfacet
  facet normal 0.707107 -1.57009e-016 -0.707107
    outer loop
      vertex 13.6021 9.1 9.9687
      vertex 13.6021 13.2 9.9687
      vertex 14.5313 9.1 10.8979
    endloop
  endfacet
  facet normal 0.891007 -1.00806e-016 -0.45399
    outer loop
      vertex 13.0056 13.2 8.79787
      vertex 13.6021 13.2 9.9687
      vertex 13.6021 9.1 9.9687
    endloop
  endfacet
  facet normal 0.891007 -1.00806e-016 -0.45399
    outer loop
      vertex 13.0056 9.1 8.79787
      vertex 13.0056 13.2 8.79787
      vertex 13.6021 9.1 9.9687
    endloop
  endfacet
endsolid OpenSCAD_Model
