solid OpenSCAD_Model
  facet normal 0 0 -1
    outer loop
      vertex -16 0 0
      vertex -12.5 6.06218 0
      vertex -12.5 -6.06218 0
    endloop
  endfacet
  facet normal 0 0 -1
    outer loop
      vertex -10.4542 1.4542 0
      vertex -12.5 6.06218 0
      vertex -5.5 6.06218 0
    endloop
  endfacet
  facet normal 0 0 -1
    outer loop
      vertex -7.5458 1.4542 0
      vertex -5.5 6.06218 0
      vertex -4.88675 5 0
    endloop
  endfacet
  facet normal 0 0 -1
    outer loop
      vertex -6.94346 -2.51846e-016 0
      vertex -4.88675 5 0
      vertex 4.88675 5 0
    endloop
  endfacet
  facet normal 0 0 -1
    outer loop
      vertex 4.88675 5 0
      vertex 5.5 6.06218 0
      vertex 12.5 6.06218 0
    endloop
  endfacet
  facet normal 0 0 -1
    outer loop
      vertex 4.88675 5 0
      vertex 12.5 6.06218 0
      vertex -12.5 -6.06218 0
    endloop
  endfacet
  facet normal 0 0 -1
    outer loop
      vertex 10.4542 1.4542 0
      vertex 12.5 6.06218 0
      vertex 16 0 0
    endloop
  endfacet
  facet normal 0 0 -1
    outer loop
      vertex 5.5 -6.06218 0
      vertex 16 0 0
      vertex 12.5 -6.06218 0
    endloop
  endfacet
  facet normal 0 0 -1
    outer loop
      vertex 4.88675 -5 0
      vertex 16 0 0
      vertex 5.5 -6.06218 0
    endloop
  endfacet
  facet normal 0 0 -1
    outer loop
      vertex 9 -2.05654 0
      vertex 16 0 0
      vertex 4.88675 -5 0
    endloop
  endfacet
  facet normal 0 0 -1
    outer loop
      vertex -9 -2.05654 0
      vertex -12.5 -6.06218 0
      vertex -10.4542 -1.4542 0
    endloop
  endfacet
  facet normal 0 0 -1
    outer loop
      vertex -12.5 -6.06218 0
      vertex -12.5 6.06218 0
      vertex -11.0565 2.51846e-016 0
    endloop
  endfacet
  facet normal 0 0 -1
    outer loop
      vertex 9 -2.05654 0
      vertex -12.5 -6.06218 0
      vertex 7.5458 -1.4542 0
    endloop
  endfacet
  facet normal 0 0 -1
    outer loop
      vertex -12.5 -6.06218 0
      vertex -11.0565 2.51846e-016 0
      vertex -10.4542 -1.4542 0
    endloop
  endfacet
  facet normal 0 0 -1
    outer loop
      vertex -6.94346 -2.51846e-016 0
      vertex 4.88675 5 0
      vertex -7.5458 -1.4542 0
    endloop
  endfacet
  facet normal 0 0 -1
    outer loop
      vertex -12.5 -6.06218 0
      vertex -9 -2.05654 0
      vertex -7.5458 -1.4542 0
    endloop
  endfacet
  facet normal 0 0 -1
    outer loop
      vertex -12.5 -6.06218 0
      vertex -7.5458 -1.4542 0
      vertex 4.88675 5 0
    endloop
  endfacet
  facet normal 0 0 -1
    outer loop
      vertex -7.5458 1.4542 0
      vertex -4.88675 5 0
      vertex -6.94346 -2.51846e-016 0
    endloop
  endfacet
  facet normal 0 0 -1
    outer loop
      vertex -10.4542 1.4542 0
      vertex -5.5 6.06218 0
      vertex -9 2.05654 0
    endloop
  endfacet
  facet normal 0 0 -1
    outer loop
      vertex -11.0565 2.51846e-016 0
      vertex -12.5 6.06218 0
      vertex -10.4542 1.4542 0
    endloop
  endfacet
  facet normal 0 0 -1
    outer loop
      vertex 9 -2.05654 0
      vertex -4.88675 -5 0
      vertex -12.5 -6.06218 0
    endloop
  endfacet
  facet normal 0 0 -1
    outer loop
      vertex -12.5 -6.06218 0
      vertex 6.94346 2.51846e-016 0
      vertex 7.5458 -1.4542 0
    endloop
  endfacet
  facet normal 0 0 -1
    outer loop
      vertex 10.4542 -1.4542 0
      vertex 16 0 0
      vertex 9 -2.05654 0
    endloop
  endfacet
  facet normal 0 0 -1
    outer loop
      vertex -4.88675 -5 0
      vertex 9 -2.05654 0
      vertex 4.88675 -5 0
    endloop
  endfacet
  facet normal 0 0 -1
    outer loop
      vertex 11.0565 -2.51846e-016 0
      vertex 16 0 0
      vertex 10.4542 -1.4542 0
    endloop
  endfacet
  facet normal 0 0 -1
    outer loop
      vertex 10.4542 1.4542 0
      vertex 16 0 0
      vertex 11.0565 -2.51846e-016 0
    endloop
  endfacet
  facet normal 0 0 -1
    outer loop
      vertex 9 2.05654 0
      vertex 12.5 6.06218 0
      vertex 10.4542 1.4542 0
    endloop
  endfacet
  facet normal 0 0 -1
    outer loop
      vertex 7.5458 1.4542 0
      vertex 12.5 6.06218 0
      vertex 9 2.05654 0
    endloop
  endfacet
  facet normal 0 0 -1
    outer loop
      vertex -12.5 -6.06218 0
      vertex 12.5 6.06218 0
      vertex 7.5458 1.4542 0
    endloop
  endfacet
  facet normal 0 0 -1
    outer loop
      vertex -12.5 -6.06218 0
      vertex 7.5458 1.4542 0
      vertex 6.94346 2.51846e-016 0
    endloop
  endfacet
  facet normal 0 0 -1
    outer loop
      vertex -5.5 -6.06218 0
      vertex -12.5 -6.06218 0
      vertex -4.88675 -5 0
    endloop
  endfacet
  facet normal 0 0 -1
    outer loop
      vertex -9 2.05654 0
      vertex -5.5 6.06218 0
      vertex -7.5458 1.4542 0
    endloop
  endfacet
  facet normal -0.866025 0.5 0
    outer loop
      vertex -16 0 0
      vertex -16 0 3
      vertex -12.5 6.06218 0
    endloop
  endfacet
  facet normal -0.866025 0.5 0
    outer loop
      vertex -12.5 6.06218 0
      vertex -16 0 3
      vertex -12.5 6.06218 3
    endloop
  endfacet
  facet normal -0.866025 -0.5 0
    outer loop
      vertex -16 0 0
      vertex -12.5 -6.06218 0
      vertex -16 0 3
    endloop
  endfacet
  facet normal -0.866025 -0.5 0
    outer loop
      vertex -16 0 3
      vertex -12.5 -6.06218 0
      vertex -12.5 -6.06218 3
    endloop
  endfacet
  facet normal 0 -1 0
    outer loop
      vertex -12.5 -6.06218 3
      vertex -12.5 -6.06218 0
      vertex -5.5 -6.06218 0
    endloop
  endfacet
  facet normal 0 -1 0
    outer loop
      vertex -5.5 -6.06218 3
      vertex -12.5 -6.06218 3
      vertex -5.5 -6.06218 0
    endloop
  endfacet
  facet normal 0.866025 -0.5 0
    outer loop
      vertex -5.5 -6.06218 3
      vertex -5.5 -6.06218 0
      vertex -4.88675 -5 0
    endloop
  endfacet
  facet normal 0.866025 -0.5 0
    outer loop
      vertex -4.88675 -5 3
      vertex -5.5 -6.06218 3
      vertex -4.88675 -5 0
    endloop
  endfacet
  facet normal 0 -1 0
    outer loop
      vertex -4.88675 -5 3
      vertex -4.88675 -5 0
      vertex 4.88675 -5 0
    endloop
  endfacet
  facet normal 0 -1 0
    outer loop
      vertex 4.88675 -5 3
      vertex -4.88675 -5 3
      vertex 4.88675 -5 0
    endloop
  endfacet
  facet normal -0.866025 -0.5 0
    outer loop
      vertex 4.88675 -5 0
      vertex 5.5 -6.06218 0
      vertex 4.88675 -5 3
    endloop
  endfacet
  facet normal -0.866025 -0.5 0
    outer loop
      vertex 4.88675 -5 3
      vertex 5.5 -6.06218 0
      vertex 5.5 -6.06218 3
    endloop
  endfacet
  facet normal 0 -1 0
    outer loop
      vertex 5.5 -6.06218 3
      vertex 5.5 -6.06218 0
      vertex 12.5 -6.06218 0
    endloop
  endfacet
  facet normal 0 -1 0
    outer loop
      vertex 12.5 -6.06218 3
      vertex 5.5 -6.06218 3
      vertex 12.5 -6.06218 0
    endloop
  endfacet
  facet normal 0.866025 -0.5 0
    outer loop
      vertex 12.5 -6.06218 3
      vertex 12.5 -6.06218 0
      vertex 16 0 0
    endloop
  endfacet
  facet normal 0.866025 -0.5 0
    outer loop
      vertex 16 0 3
      vertex 12.5 -6.06218 3
      vertex 16 0 0
    endloop
  endfacet
  facet normal 0.866025 0.5 0
    outer loop
      vertex 16 0 0
      vertex 12.5 6.06218 0
      vertex 12.5 6.06218 3
    endloop
  endfacet
  facet normal 0.866025 0.5 0
    outer loop
      vertex 16 0 3
      vertex 16 0 0
      vertex 12.5 6.06218 3
    endloop
  endfacet
  facet normal 0 1 0
    outer loop
      vertex 5.5 6.06218 0
      vertex 5.5 6.06218 3
      vertex 12.5 6.06218 0
    endloop
  endfacet
  facet normal 0 1 0
    outer loop
      vertex 12.5 6.06218 0
      vertex 5.5 6.06218 3
      vertex 12.5 6.06218 3
    endloop
  endfacet
  facet normal -0.866025 0.5 0
    outer loop
      vertex 4.88675 5 0
      vertex 4.88675 5 3
      vertex 5.5 6.06218 0
    endloop
  endfacet
  facet normal -0.866025 0.5 0
    outer loop
      vertex 5.5 6.06218 0
      vertex 4.88675 5 3
      vertex 5.5 6.06218 3
    endloop
  endfacet
  facet normal 0 1 0
    outer loop
      vertex -4.88675 5 0
      vertex -4.88675 5 3
      vertex 4.88675 5 0
    endloop
  endfacet
  facet normal 0 1 0
    outer loop
      vertex 4.88675 5 0
      vertex -4.88675 5 3
      vertex 4.88675 5 3
    endloop
  endfacet
  facet normal 0.866025 0.5 0
    outer loop
      vertex -4.88675 5 0
      vertex -5.5 6.06218 0
      vertex -5.5 6.06218 3
    endloop
  endfacet
  facet normal 0.866025 0.5 0
    outer loop
      vertex -4.88675 5 3
      vertex -4.88675 5 0
      vertex -5.5 6.06218 3
    endloop
  endfacet
  facet normal 0 1 0
    outer loop
      vertex -12.5 6.06218 0
      vertex -12.5 6.06218 3
      vertex -5.5 6.06218 0
    endloop
  endfacet
  facet normal 0 1 0
    outer loop
      vertex -5.5 6.06218 0
      vertex -12.5 6.06218 3
      vertex -5.5 6.06218 3
    endloop
  endfacet
  facet normal 0.92388 0.382683 0
    outer loop
      vertex -11.0565 2.51846e-016 0.5
      vertex -10.4542 -1.4542 0.5
      vertex -10.4542 -1.4542 0
    endloop
  endfacet
  facet normal 0.92388 0.382683 0
    outer loop
      vertex -11.0565 2.51846e-016 0
      vertex -11.0565 2.51846e-016 0.5
      vertex -10.4542 -1.4542 0
    endloop
  endfacet
  facet normal 0.92388 -0.382683 0
    outer loop
      vertex -10.4542 1.4542 0
      vertex -10.4542 1.4542 0.5
      vertex -11.0565 2.51846e-016 0.5
    endloop
  endfacet
  facet normal 0.92388 -0.382683 0
    outer loop
      vertex -11.0565 2.51846e-016 0
      vertex -10.4542 1.4542 0
      vertex -11.0565 2.51846e-016 0.5
    endloop
  endfacet
  facet normal 0.382683 -0.92388 0
    outer loop
      vertex -9 2.05654 0
      vertex -9 2.05654 0.5
      vertex -10.4542 1.4542 0.5
    endloop
  endfacet
  facet normal 0.382683 -0.92388 0
    outer loop
      vertex -10.4542 1.4542 0
      vertex -9 2.05654 0
      vertex -10.4542 1.4542 0.5
    endloop
  endfacet
  facet normal -0.382683 -0.92388 0
    outer loop
      vertex -7.5458 1.4542 0
      vertex -7.5458 1.4542 0.5
      vertex -9 2.05654 0.5
    endloop
  endfacet
  facet normal -0.382683 -0.92388 0
    outer loop
      vertex -9 2.05654 0
      vertex -7.5458 1.4542 0
      vertex -9 2.05654 0.5
    endloop
  endfacet
  facet normal -0.92388 -0.382683 0
    outer loop
      vertex -6.94346 -2.51846e-016 0.5
      vertex -7.5458 1.4542 0.5
      vertex -6.94346 -2.51846e-016 0
    endloop
  endfacet
  facet normal -0.92388 -0.382683 0
    outer loop
      vertex -6.94346 -2.51846e-016 0
      vertex -7.5458 1.4542 0.5
      vertex -7.5458 1.4542 0
    endloop
  endfacet
  facet normal -0.92388 0.382683 0
    outer loop
      vertex -6.94346 -2.51846e-016 0.5
      vertex -6.94346 -2.51846e-016 0
      vertex -7.5458 -1.4542 0.5
    endloop
  endfacet
  facet normal -0.92388 0.382683 0
    outer loop
      vertex -7.5458 -1.4542 0.5
      vertex -6.94346 -2.51846e-016 0
      vertex -7.5458 -1.4542 0
    endloop
  endfacet
  facet normal -0.382683 0.92388 0
    outer loop
      vertex -7.5458 -1.4542 0.5
      vertex -7.5458 -1.4542 0
      vertex -9 -2.05654 0.5
    endloop
  endfacet
  facet normal -0.382683 0.92388 0
    outer loop
      vertex -9 -2.05654 0.5
      vertex -7.5458 -1.4542 0
      vertex -9 -2.05654 0
    endloop
  endfacet
  facet normal 0.382683 0.92388 0
    outer loop
      vertex -9 -2.05654 0.5
      vertex -9 -2.05654 0
      vertex -10.4542 -1.4542 0.5
    endloop
  endfacet
  facet normal 0.382683 0.92388 0
    outer loop
      vertex -10.4542 -1.4542 0.5
      vertex -9 -2.05654 0
      vertex -10.4542 -1.4542 0
    endloop
  endfacet
  facet normal 0.92388 0.382683 0
    outer loop
      vertex 6.94346 2.51846e-016 0.5
      vertex 7.5458 -1.4542 0.5
      vertex 7.5458 -1.4542 0
    endloop
  endfacet
  facet normal 0.92388 0.382683 0
    outer loop
      vertex 6.94346 2.51846e-016 0
      vertex 6.94346 2.51846e-016 0.5
      vertex 7.5458 -1.4542 0
    endloop
  endfacet
  facet normal 0.92388 -0.382683 0
    outer loop
      vertex 7.5458 1.4542 0
      vertex 7.5458 1.4542 0.5
      vertex 6.94346 2.51846e-016 0.5
    endloop
  endfacet
  facet normal 0.92388 -0.382683 0
    outer loop
      vertex 6.94346 2.51846e-016 0
      vertex 7.5458 1.4542 0
      vertex 6.94346 2.51846e-016 0.5
    endloop
  endfacet
  facet normal 0.382683 -0.92388 0
    outer loop
      vertex 9 2.05654 0
      vertex 9 2.05654 0.5
      vertex 7.5458 1.4542 0.5
    endloop
  endfacet
  facet normal 0.382683 -0.92388 0
    outer loop
      vertex 7.5458 1.4542 0
      vertex 9 2.05654 0
      vertex 7.5458 1.4542 0.5
    endloop
  endfacet
  facet normal -0.382683 -0.92388 0
    outer loop
      vertex 10.4542 1.4542 0
      vertex 10.4542 1.4542 0.5
      vertex 9 2.05654 0.5
    endloop
  endfacet
  facet normal -0.382683 -0.92388 0
    outer loop
      vertex 9 2.05654 0
      vertex 10.4542 1.4542 0
      vertex 9 2.05654 0.5
    endloop
  endfacet
  facet normal -0.92388 -0.382683 0
    outer loop
      vertex 11.0565 -2.51846e-016 0.5
      vertex 10.4542 1.4542 0.5
      vertex 11.0565 -2.51846e-016 0
    endloop
  endfacet
  facet normal -0.92388 -0.382683 0
    outer loop
      vertex 11.0565 -2.51846e-016 0
      vertex 10.4542 1.4542 0.5
      vertex 10.4542 1.4542 0
    endloop
  endfacet
  facet normal -0.92388 0.382683 0
    outer loop
      vertex 11.0565 -2.51846e-016 0.5
      vertex 11.0565 -2.51846e-016 0
      vertex 10.4542 -1.4542 0.5
    endloop
  endfacet
  facet normal -0.92388 0.382683 0
    outer loop
      vertex 10.4542 -1.4542 0.5
      vertex 11.0565 -2.51846e-016 0
      vertex 10.4542 -1.4542 0
    endloop
  endfacet
  facet normal -0.382683 0.92388 0
    outer loop
      vertex 10.4542 -1.4542 0.5
      vertex 10.4542 -1.4542 0
      vertex 9 -2.05654 0.5
    endloop
  endfacet
  facet normal -0.382683 0.92388 0
    outer loop
      vertex 9 -2.05654 0.5
      vertex 10.4542 -1.4542 0
      vertex 9 -2.05654 0
    endloop
  endfacet
  facet normal 0.382683 0.92388 0
    outer loop
      vertex 9 -2.05654 0.5
      vertex 9 -2.05654 0
      vertex 7.5458 -1.4542 0.5
    endloop
  endfacet
  facet normal 0.382683 0.92388 0
    outer loop
      vertex 7.5458 -1.4542 0.5
      vertex 9 -2.05654 0
      vertex 7.5458 -1.4542 0
    endloop
  endfacet
  facet normal 0 0 1
    outer loop
      vertex -13.5188 -0.473205 3
      vertex -16 0 3
      vertex -12.5 -6.06218 3
    endloop
  endfacet
  facet normal 0 0 1
    outer loop
      vertex -6.504 -4.32321 3
      vertex -7.15041 -4.15 3
      vertex -5.5 -6.06218 3
    endloop
  endfacet
  facet normal 0 0 1
    outer loop
      vertex -13.5188 0.473205 3
      vertex -11.6692 3.6768 3
      vertex -12.5 6.06218 3
    endloop
  endfacet
  facet normal 0 0 1
    outer loop
      vertex -6.504 4.32321 3
      vertex -4.88675 5 3
      vertex -12.5 6.06218 3
    endloop
  endfacet
  facet normal 0 0 1
    outer loop
      vertex 12.5 -6.06218 3
      vertex 4.88675 -5 3
      vertex 5.5 -6.06218 3
    endloop
  endfacet
  facet normal 0 0 1
    outer loop
      vertex 10.8496 -4.15 3
      vertex 7.15041 -4.15 3
      vertex 12.5 -6.06218 3
    endloop
  endfacet
  facet normal 0 0 1
    outer loop
      vertex 6.33079 3.6768 3
      vertex 6.504 4.32321 3
      vertex 4.88675 5 3
    endloop
  endfacet
  facet normal 0 0 1
    outer loop
      vertex -13.992 1.22265e-015 3
      vertex -16 0 3
      vertex -13.5188 -0.473205 3
    endloop
  endfacet
  facet normal 0 0 1
    outer loop
      vertex -12.5 6.06218 3
      vertex -16 0 3
      vertex -13.992 1.22265e-015 3
    endloop
  endfacet
  facet normal 0 0 1
    outer loop
      vertex -12.5 6.06218 3
      vertex -13.992 1.22265e-015 3
      vertex -13.5188 0.473205 3
    endloop
  endfacet
  facet normal 0 0 1
    outer loop
      vertex 6.33079 -3.6768 3
      vertex 4.4812 -0.473205 3
      vertex -6.504 4.32321 3
    endloop
  endfacet
  facet normal 0 0 1
    outer loop
      vertex -11.496 4.32321 3
      vertex -12.5 6.06218 3
      vertex -11.6692 3.6768 3
    endloop
  endfacet
  facet normal 0 0 1
    outer loop
      vertex 6.33079 -3.6768 3
      vertex -6.504 4.32321 3
      vertex -6.33079 3.6768 3
    endloop
  endfacet
  facet normal 0 0 1
    outer loop
      vertex -4.4812 0.473205 3
      vertex -4.00799 -6.11324e-016 3
      vertex 4.88675 -5 3
    endloop
  endfacet
  facet normal 0 0 1
    outer loop
      vertex -6.33079 3.6768 3
      vertex 6.504 -4.32321 3
      vertex 6.33079 -3.6768 3
    endloop
  endfacet
  facet normal 0 0 1
    outer loop
      vertex -6.504 4.32321 3
      vertex -12.5 6.06218 3
      vertex -7.15041 4.15 3
    endloop
  endfacet
  facet normal 0 0 1
    outer loop
      vertex -4.4812 -0.473205 3
      vertex -6.33079 -3.6768 3
      vertex -4.88675 -5 3
    endloop
  endfacet
  facet normal 0 0 1
    outer loop
      vertex 4.88675 -5 3
      vertex -4.00799 -6.11324e-016 3
      vertex -4.88675 -5 3
    endloop
  endfacet
  facet normal 0 0 1
    outer loop
      vertex -4.00799 -6.11324e-016 3
      vertex -4.4812 -0.473205 3
      vertex -4.88675 -5 3
    endloop
  endfacet
  facet normal 0 0 1
    outer loop
      vertex -4.88675 -5 3
      vertex -6.33079 -3.6768 3
      vertex -5.5 -6.06218 3
    endloop
  endfacet
  facet normal 0 0 1
    outer loop
      vertex 4.4812 0.473205 3
      vertex -4.88675 5 3
      vertex -6.504 4.32321 3
    endloop
  endfacet
  facet normal 0 0 1
    outer loop
      vertex -6.33079 -3.6768 3
      vertex -6.504 -4.32321 3
      vertex -5.5 -6.06218 3
    endloop
  endfacet
  facet normal 0 0 1
    outer loop
      vertex -5.5 -6.06218 3
      vertex -7.15041 -4.15 3
      vertex -12.5 -6.06218 3
    endloop
  endfacet
  facet normal 0 0 1
    outer loop
      vertex -7.15041 -4.15 3
      vertex -10.8496 -4.15 3
      vertex -12.5 -6.06218 3
    endloop
  endfacet
  facet normal 0 0 1
    outer loop
      vertex -10.8496 -4.15 3
      vertex -11.496 -4.32321 3
      vertex -12.5 -6.06218 3
    endloop
  endfacet
  facet normal 0 0 1
    outer loop
      vertex -11.496 -4.32321 3
      vertex -11.6692 -3.6768 3
      vertex -12.5 -6.06218 3
    endloop
  endfacet
  facet normal 0 0 1
    outer loop
      vertex -6.33079 3.6768 3
      vertex 4.88675 -5 3
      vertex 6.504 -4.32321 3
    endloop
  endfacet
  facet normal 0 0 1
    outer loop
      vertex -6.33079 3.6768 3
      vertex -4.4812 0.473205 3
      vertex 4.88675 -5 3
    endloop
  endfacet
  facet normal 0 0 1
    outer loop
      vertex 13.992 -6.11324e-016 3
      vertex 13.5188 -0.473205 3
      vertex 16 0 3
    endloop
  endfacet
  facet normal 0 0 1
    outer loop
      vertex 4.4812 0.473205 3
      vertex 6.33079 3.6768 3
      vertex -4.88675 5 3
    endloop
  endfacet
  facet normal 0 0 1
    outer loop
      vertex 7.15041 4.15 3
      vertex 10.8496 4.15 3
      vertex 5.5 6.06218 3
    endloop
  endfacet
  facet normal 0 0 1
    outer loop
      vertex 4.88675 5 3
      vertex -4.88675 5 3
      vertex 6.33079 3.6768 3
    endloop
  endfacet
  facet normal 0 0 1
    outer loop
      vertex 13.5188 0.473205 3
      vertex 13.992 -6.11324e-016 3
      vertex 16 0 3
    endloop
  endfacet
  facet normal 0 0 1
    outer loop
      vertex 5.5 6.06218 3
      vertex 4.88675 5 3
      vertex 6.504 4.32321 3
    endloop
  endfacet
  facet normal 0 0 1
    outer loop
      vertex 5.5 6.06218 3
      vertex 6.504 4.32321 3
      vertex 7.15041 4.15 3
    endloop
  endfacet
  facet normal 0 0 1
    outer loop
      vertex 12.5 6.06218 3
      vertex 5.5 6.06218 3
      vertex 10.8496 4.15 3
    endloop
  endfacet
  facet normal 0 0 1
    outer loop
      vertex 12.5 6.06218 3
      vertex 11.496 4.32321 3
      vertex 16 0 3
    endloop
  endfacet
  facet normal 0 0 1
    outer loop
      vertex 12.5 6.06218 3
      vertex 10.8496 4.15 3
      vertex 11.496 4.32321 3
    endloop
  endfacet
  facet normal 0 0 1
    outer loop
      vertex 11.496 4.32321 3
      vertex 11.6692 3.6768 3
      vertex 16 0 3
    endloop
  endfacet
  facet normal 0 0 1
    outer loop
      vertex 16 0 3
      vertex 13.5188 -0.473205 3
      vertex 12.5 -6.06218 3
    endloop
  endfacet
  facet normal 0 0 1
    outer loop
      vertex 13.5188 -0.473205 3
      vertex 11.6692 -3.6768 3
      vertex 12.5 -6.06218 3
    endloop
  endfacet
  facet normal 0 0 1
    outer loop
      vertex 11.6692 -3.6768 3
      vertex 11.496 -4.32321 3
      vertex 12.5 -6.06218 3
    endloop
  endfacet
  facet normal 0 0 1
    outer loop
      vertex 11.496 -4.32321 3
      vertex 10.8496 -4.15 3
      vertex 12.5 -6.06218 3
    endloop
  endfacet
  facet normal 0 0 1
    outer loop
      vertex 12.5 -6.06218 3
      vertex 7.15041 -4.15 3
      vertex 4.88675 -5 3
    endloop
  endfacet
  facet normal 0 0 1
    outer loop
      vertex -6.504 4.32321 3
      vertex 4.00799 1.22265e-015 3
      vertex 4.4812 0.473205 3
    endloop
  endfacet
  facet normal 0 0 1
    outer loop
      vertex 7.15041 -4.15 3
      vertex 6.504 -4.32321 3
      vertex 4.88675 -5 3
    endloop
  endfacet
  facet normal 0 0 1
    outer loop
      vertex -6.504 4.32321 3
      vertex 4.4812 -0.473205 3
      vertex 4.00799 1.22265e-015 3
    endloop
  endfacet
  facet normal 0 0 1
    outer loop
      vertex 11.6692 3.6768 3
      vertex 13.5188 0.473205 3
      vertex 16 0 3
    endloop
  endfacet
  facet normal 0 0 1
    outer loop
      vertex -4.88675 5 3
      vertex -5.5 6.06218 3
      vertex -12.5 6.06218 3
    endloop
  endfacet
  facet normal 0 0 1
    outer loop
      vertex -11.6692 -3.6768 3
      vertex -13.5188 -0.473205 3
      vertex -12.5 -6.06218 3
    endloop
  endfacet
  facet normal 0 0 1
    outer loop
      vertex -11.496 4.32321 3
      vertex -10.8496 4.15 3
      vertex -12.5 6.06218 3
    endloop
  endfacet
  facet normal 0 0 1
    outer loop
      vertex -10.8496 4.15 3
      vertex -7.15041 4.15 3
      vertex -12.5 6.06218 3
    endloop
  endfacet
  facet normal 0 0 1
    outer loop
      vertex -13.5188 -0.473205 0.5
      vertex -11.6692 -3.6768 0.5
      vertex -10.8496 -4.15 0.5
    endloop
  endfacet
  facet normal 0 0 1
    outer loop
      vertex -10.8496 -4.15 0.5
      vertex -11.6692 -3.6768 0.5
      vertex -11.496 -4.32321 0.5
    endloop
  endfacet
  facet normal 0 0 1
    outer loop
      vertex -13.5188 -0.473205 0.5
      vertex -7.15041 -4.15 0.5
      vertex -6.504 -4.32321 0.5
    endloop
  endfacet
  facet normal 0 0 1
    outer loop
      vertex -13.5188 -0.473205 0.5
      vertex -10.8496 -4.15 0.5
      vertex -7.15041 -4.15 0.5
    endloop
  endfacet
  facet normal 0 0 1
    outer loop
      vertex -6.33079 -3.6768 0.5
      vertex -13.5188 -0.473205 0.5
      vertex -6.504 -4.32321 0.5
    endloop
  endfacet
  facet normal 0 0 1
    outer loop
      vertex -9 -2.05654 0.5
      vertex -13.5188 -0.473205 0.5
      vertex -6.33079 -3.6768 0.5
    endloop
  endfacet
  facet normal 0 0 1
    outer loop
      vertex -11.0565 2.51846e-016 0.5
      vertex -10.4542 1.4542 0.5
      vertex -13.5188 -0.473205 0.5
    endloop
  endfacet
  facet normal 0 0 1
    outer loop
      vertex -10.4542 1.4542 0.5
      vertex -9 2.05654 0.5
      vertex -6.33079 3.6768 0.5
    endloop
  endfacet
  facet normal 0 0 1
    outer loop
      vertex -7.15041 4.15 0.5
      vertex -13.5188 -0.473205 0.5
      vertex -6.504 4.32321 0.5
    endloop
  endfacet
  facet normal 0 0 1
    outer loop
      vertex -10.8496 4.15 0.5
      vertex -13.5188 -0.473205 0.5
      vertex -7.15041 4.15 0.5
    endloop
  endfacet
  facet normal 0 0 1
    outer loop
      vertex -11.6692 3.6768 0.5
      vertex -13.5188 -0.473205 0.5
      vertex -10.8496 4.15 0.5
    endloop
  endfacet
  facet normal 0 0 1
    outer loop
      vertex -11.496 4.32321 0.5
      vertex -11.6692 3.6768 0.5
      vertex -10.8496 4.15 0.5
    endloop
  endfacet
  facet normal 0 0 1
    outer loop
      vertex -6.94346 -2.51846e-016 0.5
      vertex -4.4812 -0.473205 0.5
      vertex -4.00799 -6.11324e-016 0.5
    endloop
  endfacet
  facet normal 0 0 1
    outer loop
      vertex -13.992 1.22265e-015 0.5
      vertex -13.5188 -0.473205 0.5
      vertex -13.5188 0.473205 0.5
    endloop
  endfacet
  facet normal 0 0 1
    outer loop
      vertex -6.94346 -2.51846e-016 0.5
      vertex -7.5458 -1.4542 0.5
      vertex -4.4812 -0.473205 0.5
    endloop
  endfacet
  facet normal 0 0 1
    outer loop
      vertex -6.504 4.32321 0.5
      vertex -10.4542 1.4542 0.5
      vertex -6.33079 3.6768 0.5
    endloop
  endfacet
  facet normal 0 0 1
    outer loop
      vertex -6.504 4.32321 0.5
      vertex -13.5188 -0.473205 0.5
      vertex -10.4542 1.4542 0.5
    endloop
  endfacet
  facet normal 0 0 1
    outer loop
      vertex -7.5458 1.4542 0.5
      vertex -6.94346 -2.51846e-016 0.5
      vertex -4.4812 0.473205 0.5
    endloop
  endfacet
  facet normal 0 0 1
    outer loop
      vertex -9 2.05654 0.5
      vertex -7.5458 1.4542 0.5
      vertex -6.33079 3.6768 0.5
    endloop
  endfacet
  facet normal 0 0 1
    outer loop
      vertex -6.33079 3.6768 0.5
      vertex -7.5458 1.4542 0.5
      vertex -4.4812 0.473205 0.5
    endloop
  endfacet
  facet normal 0 0 1
    outer loop
      vertex -4.4812 0.473205 0.5
      vertex -6.94346 -2.51846e-016 0.5
      vertex -4.00799 -6.11324e-016 0.5
    endloop
  endfacet
  facet normal 0 0 1
    outer loop
      vertex -4.4812 -0.473205 0.5
      vertex -7.5458 -1.4542 0.5
      vertex -6.33079 -3.6768 0.5
    endloop
  endfacet
  facet normal 0 0 1
    outer loop
      vertex -7.5458 -1.4542 0.5
      vertex -9 -2.05654 0.5
      vertex -6.33079 -3.6768 0.5
    endloop
  endfacet
  facet normal 0 0 1
    outer loop
      vertex -10.4542 -1.4542 0.5
      vertex -13.5188 -0.473205 0.5
      vertex -9 -2.05654 0.5
    endloop
  endfacet
  facet normal 0 0 1
    outer loop
      vertex -11.6692 3.6768 0.5
      vertex -13.5188 0.473205 0.5
      vertex -13.5188 -0.473205 0.5
    endloop
  endfacet
  facet normal 0 0 1
    outer loop
      vertex -10.4542 -1.4542 0.5
      vertex -11.0565 2.51846e-016 0.5
      vertex -13.5188 -0.473205 0.5
    endloop
  endfacet
  facet normal 0 0 1
    outer loop
      vertex 4.4812 -0.473205 0.5
      vertex 6.33079 -3.6768 0.5
      vertex 7.15041 -4.15 0.5
    endloop
  endfacet
  facet normal 0 0 1
    outer loop
      vertex 7.15041 -4.15 0.5
      vertex 6.33079 -3.6768 0.5
      vertex 6.504 -4.32321 0.5
    endloop
  endfacet
  facet normal 0 0 1
    outer loop
      vertex 4.4812 -0.473205 0.5
      vertex 10.8496 -4.15 0.5
      vertex 11.496 -4.32321 0.5
    endloop
  endfacet
  facet normal 0 0 1
    outer loop
      vertex 4.4812 -0.473205 0.5
      vertex 7.15041 -4.15 0.5
      vertex 10.8496 -4.15 0.5
    endloop
  endfacet
  facet normal 0 0 1
    outer loop
      vertex 11.6692 -3.6768 0.5
      vertex 4.4812 -0.473205 0.5
      vertex 11.496 -4.32321 0.5
    endloop
  endfacet
  facet normal 0 0 1
    outer loop
      vertex 9 -2.05654 0.5
      vertex 4.4812 -0.473205 0.5
      vertex 11.6692 -3.6768 0.5
    endloop
  endfacet
  facet normal 0 0 1
    outer loop
      vertex 6.94346 2.51846e-016 0.5
      vertex 7.5458 1.4542 0.5
      vertex 4.4812 -0.473205 0.5
    endloop
  endfacet
  facet normal 0 0 1
    outer loop
      vertex 7.5458 1.4542 0.5
      vertex 9 2.05654 0.5
      vertex 11.6692 3.6768 0.5
    endloop
  endfacet
  facet normal 0 0 1
    outer loop
      vertex 10.8496 4.15 0.5
      vertex 4.4812 -0.473205 0.5
      vertex 11.496 4.32321 0.5
    endloop
  endfacet
  facet normal 0 0 1
    outer loop
      vertex 7.15041 4.15 0.5
      vertex 4.4812 -0.473205 0.5
      vertex 10.8496 4.15 0.5
    endloop
  endfacet
  facet normal 0 0 1
    outer loop
      vertex 6.33079 3.6768 0.5
      vertex 4.4812 -0.473205 0.5
      vertex 7.15041 4.15 0.5
    endloop
  endfacet
  facet normal 0 0 1
    outer loop
      vertex 6.504 4.32321 0.5
      vertex 6.33079 3.6768 0.5
      vertex 7.15041 4.15 0.5
    endloop
  endfacet
  facet normal 0 0 1
    outer loop
      vertex 11.0565 -2.51846e-016 0.5
      vertex 13.5188 -0.473205 0.5
      vertex 13.992 -6.11324e-016 0.5
    endloop
  endfacet
  facet normal 0 0 1
    outer loop
      vertex 4.00799 1.22265e-015 0.5
      vertex 4.4812 -0.473205 0.5
      vertex 4.4812 0.473205 0.5
    endloop
  endfacet
  facet normal 0 0 1
    outer loop
      vertex 11.0565 -2.51846e-016 0.5
      vertex 10.4542 -1.4542 0.5
      vertex 13.5188 -0.473205 0.5
    endloop
  endfacet
  facet normal 0 0 1
    outer loop
      vertex 11.496 4.32321 0.5
      vertex 7.5458 1.4542 0.5
      vertex 11.6692 3.6768 0.5
    endloop
  endfacet
  facet normal 0 0 1
    outer loop
      vertex 11.496 4.32321 0.5
      vertex 4.4812 -0.473205 0.5
      vertex 7.5458 1.4542 0.5
    endloop
  endfacet
  facet normal 0 0 1
    outer loop
      vertex 10.4542 1.4542 0.5
      vertex 11.0565 -2.51846e-016 0.5
      vertex 13.5188 0.473205 0.5
    endloop
  endfacet
  facet normal 0 0 1
    outer loop
      vertex 9 2.05654 0.5
      vertex 10.4542 1.4542 0.5
      vertex 11.6692 3.6768 0.5
    endloop
  endfacet
  facet normal 0 0 1
    outer loop
      vertex 11.6692 3.6768 0.5
      vertex 10.4542 1.4542 0.5
      vertex 13.5188 0.473205 0.5
    endloop
  endfacet
  facet normal 0 0 1
    outer loop
      vertex 13.5188 0.473205 0.5
      vertex 11.0565 -2.51846e-016 0.5
      vertex 13.992 -6.11324e-016 0.5
    endloop
  endfacet
  facet normal 0 0 1
    outer loop
      vertex 13.5188 -0.473205 0.5
      vertex 10.4542 -1.4542 0.5
      vertex 11.6692 -3.6768 0.5
    endloop
  endfacet
  facet normal 0 0 1
    outer loop
      vertex 10.4542 -1.4542 0.5
      vertex 9 -2.05654 0.5
      vertex 11.6692 -3.6768 0.5
    endloop
  endfacet
  facet normal 0 0 1
    outer loop
      vertex 7.5458 -1.4542 0.5
      vertex 4.4812 -0.473205 0.5
      vertex 9 -2.05654 0.5
    endloop
  endfacet
  facet normal 0 0 1
    outer loop
      vertex 6.33079 3.6768 0.5
      vertex 4.4812 0.473205 0.5
      vertex 4.4812 -0.473205 0.5
    endloop
  endfacet
  facet normal 0 0 1
    outer loop
      vertex 7.5458 -1.4542 0.5
      vertex 6.94346 2.51846e-016 0.5
      vertex 4.4812 -0.473205 0.5
    endloop
  endfacet
  facet normal 0.866025 0.5 0
    outer loop
      vertex -13.5188 -0.473205 3
      vertex -11.6692 -3.6768 3
      vertex -11.6692 -3.6768 0.5
    endloop
  endfacet
  facet normal 0.866025 0.5 0
    outer loop
      vertex -13.5188 -0.473205 0.5
      vertex -13.5188 -0.473205 3
      vertex -11.6692 -3.6768 0.5
    endloop
  endfacet
  facet normal 0.707107 0.707107 0
    outer loop
      vertex -13.992 1.22265e-015 3
      vertex -13.5188 -0.473205 3
      vertex -13.5188 -0.473205 0.5
    endloop
  endfacet
  facet normal 0.707107 0.707107 0
    outer loop
      vertex -13.992 1.22265e-015 0.5
      vertex -13.992 1.22265e-015 3
      vertex -13.5188 -0.473205 0.5
    endloop
  endfacet
  facet normal 0.965926 0.258819 0
    outer loop
      vertex -11.6692 -3.6768 3
      vertex -11.496 -4.32321 3
      vertex -11.496 -4.32321 0.5
    endloop
  endfacet
  facet normal 0.965926 0.258819 0
    outer loop
      vertex -11.6692 -3.6768 0.5
      vertex -11.6692 -3.6768 3
      vertex -11.496 -4.32321 0.5
    endloop
  endfacet
  facet normal -0.258819 0.965926 0
    outer loop
      vertex -10.8496 -4.15 3
      vertex -10.8496 -4.15 0.5
      vertex -11.496 -4.32321 3
    endloop
  endfacet
  facet normal -0.258819 0.965926 0
    outer loop
      vertex -11.496 -4.32321 3
      vertex -10.8496 -4.15 0.5
      vertex -11.496 -4.32321 0.5
    endloop
  endfacet
  facet normal 0 1 0
    outer loop
      vertex -7.15041 -4.15 3
      vertex -7.15041 -4.15 0.5
      vertex -10.8496 -4.15 3
    endloop
  endfacet
  facet normal 0 1 0
    outer loop
      vertex -10.8496 -4.15 3
      vertex -7.15041 -4.15 0.5
      vertex -10.8496 -4.15 0.5
    endloop
  endfacet
  facet normal 0.258819 0.965926 0
    outer loop
      vertex -6.504 -4.32321 3
      vertex -6.504 -4.32321 0.5
      vertex -7.15041 -4.15 3
    endloop
  endfacet
  facet normal 0.258819 0.965926 0
    outer loop
      vertex -7.15041 -4.15 3
      vertex -6.504 -4.32321 0.5
      vertex -7.15041 -4.15 0.5
    endloop
  endfacet
  facet normal -0.965926 0.258819 0
    outer loop
      vertex -6.33079 -3.6768 3
      vertex -6.33079 -3.6768 0.5
      vertex -6.504 -4.32321 3
    endloop
  endfacet
  facet normal -0.965926 0.258819 0
    outer loop
      vertex -6.504 -4.32321 3
      vertex -6.33079 -3.6768 0.5
      vertex -6.504 -4.32321 0.5
    endloop
  endfacet
  facet normal -0.866025 0.5 0
    outer loop
      vertex -4.4812 -0.473205 3
      vertex -4.4812 -0.473205 0.5
      vertex -6.33079 -3.6768 3
    endloop
  endfacet
  facet normal -0.866025 0.5 0
    outer loop
      vertex -6.33079 -3.6768 3
      vertex -4.4812 -0.473205 0.5
      vertex -6.33079 -3.6768 0.5
    endloop
  endfacet
  facet normal -0.707107 0.707107 0
    outer loop
      vertex -4.00799 -6.11324e-016 3
      vertex -4.00799 -6.11324e-016 0.5
      vertex -4.4812 -0.473205 3
    endloop
  endfacet
  facet normal -0.707107 0.707107 0
    outer loop
      vertex -4.4812 -0.473205 3
      vertex -4.00799 -6.11324e-016 0.5
      vertex -4.4812 -0.473205 0.5
    endloop
  endfacet
  facet normal -0.707107 -0.707107 0
    outer loop
      vertex -4.00799 -6.11324e-016 3
      vertex -4.4812 0.473205 3
      vertex -4.00799 -6.11324e-016 0.5
    endloop
  endfacet
  facet normal -0.707107 -0.707107 0
    outer loop
      vertex -4.00799 -6.11324e-016 0.5
      vertex -4.4812 0.473205 3
      vertex -4.4812 0.473205 0.5
    endloop
  endfacet
  facet normal -0.866025 -0.5 0
    outer loop
      vertex -4.4812 0.473205 3
      vertex -6.33079 3.6768 3
      vertex -4.4812 0.473205 0.5
    endloop
  endfacet
  facet normal -0.866025 -0.5 0
    outer loop
      vertex -4.4812 0.473205 0.5
      vertex -6.33079 3.6768 3
      vertex -6.33079 3.6768 0.5
    endloop
  endfacet
  facet normal -0.965926 -0.258819 0
    outer loop
      vertex -6.33079 3.6768 3
      vertex -6.504 4.32321 3
      vertex -6.33079 3.6768 0.5
    endloop
  endfacet
  facet normal -0.965926 -0.258819 0
    outer loop
      vertex -6.33079 3.6768 0.5
      vertex -6.504 4.32321 3
      vertex -6.504 4.32321 0.5
    endloop
  endfacet
  facet normal 0.258819 -0.965926 0
    outer loop
      vertex -6.504 4.32321 0.5
      vertex -6.504 4.32321 3
      vertex -7.15041 4.15 3
    endloop
  endfacet
  facet normal 0.258819 -0.965926 0
    outer loop
      vertex -7.15041 4.15 0.5
      vertex -6.504 4.32321 0.5
      vertex -7.15041 4.15 3
    endloop
  endfacet
  facet normal 0 -1 0
    outer loop
      vertex -7.15041 4.15 0.5
      vertex -7.15041 4.15 3
      vertex -10.8496 4.15 3
    endloop
  endfacet
  facet normal 0 -1 0
    outer loop
      vertex -10.8496 4.15 0.5
      vertex -7.15041 4.15 0.5
      vertex -10.8496 4.15 3
    endloop
  endfacet
  facet normal -0.258819 -0.965926 0
    outer loop
      vertex -10.8496 4.15 0.5
      vertex -10.8496 4.15 3
      vertex -11.496 4.32321 3
    endloop
  endfacet
  facet normal -0.258819 -0.965926 0
    outer loop
      vertex -11.496 4.32321 0.5
      vertex -10.8496 4.15 0.5
      vertex -11.496 4.32321 3
    endloop
  endfacet
  facet normal 0.965926 -0.258819 0
    outer loop
      vertex -11.496 4.32321 0.5
      vertex -11.496 4.32321 3
      vertex -11.6692 3.6768 3
    endloop
  endfacet
  facet normal 0.965926 -0.258819 0
    outer loop
      vertex -11.6692 3.6768 0.5
      vertex -11.496 4.32321 0.5
      vertex -11.6692 3.6768 3
    endloop
  endfacet
  facet normal 0.866025 -0.5 0
    outer loop
      vertex -11.6692 3.6768 0.5
      vertex -11.6692 3.6768 3
      vertex -13.5188 0.473205 3
    endloop
  endfacet
  facet normal 0.866025 -0.5 0
    outer loop
      vertex -13.5188 0.473205 0.5
      vertex -11.6692 3.6768 0.5
      vertex -13.5188 0.473205 3
    endloop
  endfacet
  facet normal 0.707107 -0.707107 0
    outer loop
      vertex -13.5188 0.473205 0.5
      vertex -13.5188 0.473205 3
      vertex -13.992 1.22265e-015 3
    endloop
  endfacet
  facet normal 0.707107 -0.707107 0
    outer loop
      vertex -13.992 1.22265e-015 0.5
      vertex -13.5188 0.473205 0.5
      vertex -13.992 1.22265e-015 3
    endloop
  endfacet
  facet normal 0.707107 0.707107 0
    outer loop
      vertex 4.00799 1.22265e-015 3
      vertex 4.4812 -0.473205 3
      vertex 4.4812 -0.473205 0.5
    endloop
  endfacet
  facet normal 0.707107 0.707107 0
    outer loop
      vertex 4.00799 1.22265e-015 0.5
      vertex 4.00799 1.22265e-015 3
      vertex 4.4812 -0.473205 0.5
    endloop
  endfacet
  facet normal 0.866025 0.5 0
    outer loop
      vertex 4.4812 -0.473205 3
      vertex 6.33079 -3.6768 3
      vertex 6.33079 -3.6768 0.5
    endloop
  endfacet
  facet normal 0.866025 0.5 0
    outer loop
      vertex 4.4812 -0.473205 0.5
      vertex 4.4812 -0.473205 3
      vertex 6.33079 -3.6768 0.5
    endloop
  endfacet
  facet normal 0.965926 0.258819 0
    outer loop
      vertex 6.33079 -3.6768 3
      vertex 6.504 -4.32321 3
      vertex 6.504 -4.32321 0.5
    endloop
  endfacet
  facet normal 0.965926 0.258819 0
    outer loop
      vertex 6.33079 -3.6768 0.5
      vertex 6.33079 -3.6768 3
      vertex 6.504 -4.32321 0.5
    endloop
  endfacet
  facet normal -0.258819 0.965926 0
    outer loop
      vertex 7.15041 -4.15 3
      vertex 7.15041 -4.15 0.5
      vertex 6.504 -4.32321 3
    endloop
  endfacet
  facet normal -0.258819 0.965926 0
    outer loop
      vertex 6.504 -4.32321 3
      vertex 7.15041 -4.15 0.5
      vertex 6.504 -4.32321 0.5
    endloop
  endfacet
  facet normal 0 1 0
    outer loop
      vertex 10.8496 -4.15 3
      vertex 10.8496 -4.15 0.5
      vertex 7.15041 -4.15 3
    endloop
  endfacet
  facet normal 0 1 0
    outer loop
      vertex 7.15041 -4.15 3
      vertex 10.8496 -4.15 0.5
      vertex 7.15041 -4.15 0.5
    endloop
  endfacet
  facet normal 0.258819 0.965926 0
    outer loop
      vertex 11.496 -4.32321 3
      vertex 11.496 -4.32321 0.5
      vertex 10.8496 -4.15 3
    endloop
  endfacet
  facet normal 0.258819 0.965926 0
    outer loop
      vertex 10.8496 -4.15 3
      vertex 11.496 -4.32321 0.5
      vertex 10.8496 -4.15 0.5
    endloop
  endfacet
  facet normal -0.965926 0.258819 0
    outer loop
      vertex 11.6692 -3.6768 3
      vertex 11.6692 -3.6768 0.5
      vertex 11.496 -4.32321 3
    endloop
  endfacet
  facet normal -0.965926 0.258819 0
    outer loop
      vertex 11.496 -4.32321 3
      vertex 11.6692 -3.6768 0.5
      vertex 11.496 -4.32321 0.5
    endloop
  endfacet
  facet normal -0.866025 0.5 0
    outer loop
      vertex 13.5188 -0.473205 3
      vertex 13.5188 -0.473205 0.5
      vertex 11.6692 -3.6768 3
    endloop
  endfacet
  facet normal -0.866025 0.5 0
    outer loop
      vertex 11.6692 -3.6768 3
      vertex 13.5188 -0.473205 0.5
      vertex 11.6692 -3.6768 0.5
    endloop
  endfacet
  facet normal -0.707107 0.707107 0
    outer loop
      vertex 13.992 -6.11324e-016 3
      vertex 13.992 -6.11324e-016 0.5
      vertex 13.5188 -0.473205 3
    endloop
  endfacet
  facet normal -0.707107 0.707107 0
    outer loop
      vertex 13.5188 -0.473205 3
      vertex 13.992 -6.11324e-016 0.5
      vertex 13.5188 -0.473205 0.5
    endloop
  endfacet
  facet normal -0.707107 -0.707107 0
    outer loop
      vertex 13.992 -6.11324e-016 3
      vertex 13.5188 0.473205 3
      vertex 13.992 -6.11324e-016 0.5
    endloop
  endfacet
  facet normal -0.707107 -0.707107 0
    outer loop
      vertex 13.992 -6.11324e-016 0.5
      vertex 13.5188 0.473205 3
      vertex 13.5188 0.473205 0.5
    endloop
  endfacet
  facet normal -0.866025 -0.5 0
    outer loop
      vertex 13.5188 0.473205 3
      vertex 11.6692 3.6768 3
      vertex 13.5188 0.473205 0.5
    endloop
  endfacet
  facet normal -0.866025 -0.5 0
    outer loop
      vertex 13.5188 0.473205 0.5
      vertex 11.6692 3.6768 3
      vertex 11.6692 3.6768 0.5
    endloop
  endfacet
  facet normal -0.965926 -0.258819 0
    outer loop
      vertex 11.6692 3.6768 3
      vertex 11.496 4.32321 3
      vertex 11.6692 3.6768 0.5
    endloop
  endfacet
  facet normal -0.965926 -0.258819 0
    outer loop
      vertex 11.6692 3.6768 0.5
      vertex 11.496 4.32321 3
      vertex 11.496 4.32321 0.5
    endloop
  endfacet
  facet normal 0.258819 -0.965926 0
    outer loop
      vertex 11.496 4.32321 0.5
      vertex 11.496 4.32321 3
      vertex 10.8496 4.15 3
    endloop
  endfacet
  facet normal 0.258819 -0.965926 0
    outer loop
      vertex 10.8496 4.15 0.5
      vertex 11.496 4.32321 0.5
      vertex 10.8496 4.15 3
    endloop
  endfacet
  facet normal 0 -1 0
    outer loop
      vertex 10.8496 4.15 0.5
      vertex 10.8496 4.15 3
      vertex 7.15041 4.15 3
    endloop
  endfacet
  facet normal 0 -1 0
    outer loop
      vertex 7.15041 4.15 0.5
      vertex 10.8496 4.15 0.5
      vertex 7.15041 4.15 3
    endloop
  endfacet
  facet normal -0.258819 -0.965926 0
    outer loop
      vertex 7.15041 4.15 0.5
      vertex 7.15041 4.15 3
      vertex 6.504 4.32321 3
    endloop
  endfacet
  facet normal -0.258819 -0.965926 0
    outer loop
      vertex 6.504 4.32321 0.5
      vertex 7.15041 4.15 0.5
      vertex 6.504 4.32321 3
    endloop
  endfacet
  facet normal 0.965926 -0.258819 0
    outer loop
      vertex 6.504 4.32321 0.5
      vertex 6.504 4.32321 3
      vertex 6.33079 3.6768 3
    endloop
  endfacet
  facet normal 0.965926 -0.258819 0
    outer loop
      vertex 6.33079 3.6768 0.5
      vertex 6.504 4.32321 0.5
      vertex 6.33079 3.6768 3
    endloop
  endfacet
  facet normal 0.866025 -0.5 0
    outer loop
      vertex 6.33079 3.6768 0.5
      vertex 6.33079 3.6768 3
      vertex 4.4812 0.473205 3
    endloop
  endfacet
  facet normal 0.866025 -0.5 0
    outer loop
      vertex 4.4812 0.473205 0.5
      vertex 6.33079 3.6768 0.5
      vertex 4.4812 0.473205 3
    endloop
  endfacet
  facet normal 0.707107 -0.707107 0
    outer loop
      vertex 4.4812 0.473205 0.5
      vertex 4.4812 0.473205 3
      vertex 4.00799 1.22265e-015 3
    endloop
  endfacet
  facet normal 0.707107 -0.707107 0
    outer loop
      vertex 4.00799 1.22265e-015 0.5
      vertex 4.4812 0.473205 0.5
      vertex 4.00799 1.22265e-015 3
    endloop
  endfacet
endsolid OpenSCAD_Model
