solid OpenSCAD_Model
  facet normal 2.22045e-016 0 1
    outer loop
      vertex -0.95 -8.64545 10
      vertex -5 -12.5 10
      vertex 5 -12.5 10
    endloop
  endfacet
  facet normal 2.22045e-016 0 1
    outer loop
      vertex 5 -4.0101 10
      vertex 0.95 -8.64545 10
      vertex 5 -12.5 10
    endloop
  endfacet
  facet normal 2.22045e-016 0 1
    outer loop
      vertex -5 -4.0101 10
      vertex -5 -12.5 10
      vertex -0.95 -8.64545 10
    endloop
  endfacet
  facet normal 2.22045e-016 0 1
    outer loop
      vertex -1.9 -7 10
      vertex -0.95 -5.35455 10
      vertex -5 -4.0101 10
    endloop
  endfacet
  facet normal 2.22045e-016 0 1
    outer loop
      vertex -5 -4.0101 10
      vertex -0.95 -8.64545 10
      vertex -1.9 -7 10
    endloop
  endfacet
  facet normal 2.22045e-016 0 1
    outer loop
      vertex 5 -4.0101 10
      vertex -5 -4.0101 10
      vertex -0.95 -5.35455 10
    endloop
  endfacet
  facet normal 2.22045e-016 0 1
    outer loop
      vertex 5 -4.0101 10
      vertex -0.95 -5.35455 10
      vertex 0.95 -5.35455 10
    endloop
  endfacet
  facet normal 2.22045e-016 0 1
    outer loop
      vertex 5 -4.0101 10
      vertex 1.9 -7 10
      vertex 0.95 -8.64545 10
    endloop
  endfacet
  facet normal 2.22045e-016 0 1
    outer loop
      vertex 5 -4.0101 10
      vertex 0.95 -5.35455 10
      vertex 1.9 -7 10
    endloop
  endfacet
  facet normal 2.22045e-016 0 1
    outer loop
      vertex 0.95 -8.64545 10
      vertex -0.95 -8.64545 10
      vertex 5 -12.5 10
    endloop
  endfacet
  facet normal 0 -1 0
    outer loop
      vertex 5 -12.5 10
      vertex -5 -12.5 10
      vertex -5 -12.5 0
    endloop
  endfacet
  facet normal 0 -1 0
    outer loop
      vertex 5 -12.5 -2.22045e-015
      vertex 5 -12.5 10
      vertex -5 -12.5 0
    endloop
  endfacet
  facet normal -1 0 2.22045e-016
    outer loop
      vertex -5 -12.5 10
      vertex -5 -4.0101 10
      vertex -5 -12.5 0
    endloop
  endfacet
  facet normal -1 0 2.22045e-016
    outer loop
      vertex -5 -12.5 0
      vertex -5 -4.0101 10
      vertex -5 -4.07011 9.5058
    endloop
  endfacet
  facet normal -1 0 2.22045e-016
    outer loop
      vertex -5 -12.5 0
      vertex -5 -4.07011 9.5058
      vertex -5 -3.37423 7.67094
    endloop
  endfacet
  facet normal -1 0 2.22045e-016
    outer loop
      vertex -5 -3.37423 7.67094
      vertex -5 -1.90537 6.36963
      vertex -5 -12.5 0
    endloop
  endfacet
  facet normal -1 0 2.22045e-016
    outer loop
      vertex -5 -1.90537 6.36963
      vertex -5 0 5.9
      vertex -5 -12.5 0
    endloop
  endfacet
  facet normal -1 0 2.22045e-016
    outer loop
      vertex -5 0 5.9
      vertex -5 1.90537 6.36963
      vertex -5 -12.5 0
    endloop
  endfacet
  facet normal -1 0 2.22045e-016
    outer loop
      vertex -5 1.90537 6.36963
      vertex -5 12.5 10
      vertex -5 -12.5 0
    endloop
  endfacet
  facet normal -1 0 2.22045e-016
    outer loop
      vertex -5 3.37423 7.67094
      vertex -5 12.5 10
      vertex -5 1.90537 6.36963
    endloop
  endfacet
  facet normal -1 0 2.22045e-016
    outer loop
      vertex -5 4.07011 9.5058
      vertex -5 4.0101 10
      vertex -5 12.5 10
    endloop
  endfacet
  facet normal -1 0 2.22045e-016
    outer loop
      vertex -5 4.07011 9.5058
      vertex -5 12.5 10
      vertex -5 3.37423 7.67094
    endloop
  endfacet
  facet normal -1 0 2.22045e-016
    outer loop
      vertex -5 -12.5 0
      vertex -5 12.5 10
      vertex -5 12.5 0
    endloop
  endfacet
  facet normal -2.67644e-017 0.992709 -0.120536
    outer loop
      vertex 5 -4.07011 9.5058
      vertex -5 -4.07011 9.5058
      vertex 5 -4.0101 10
    endloop
  endfacet
  facet normal -2.67644e-017 0.992709 -0.120536
    outer loop
      vertex 5 -4.0101 10
      vertex -5 -4.07011 9.5058
      vertex -5 -4.0101 10
    endloop
  endfacet
  facet normal 1 0 -2.22045e-016
    outer loop
      vertex 5 -4.0101 10
      vertex 5 -12.5 10
      vertex 5 -12.5 -2.22045e-015
    endloop
  endfacet
  facet normal 1 0 -2.22045e-016
    outer loop
      vertex 5 -4.07011 9.5058
      vertex 5 -4.0101 10
      vertex 5 -12.5 -2.22045e-015
    endloop
  endfacet
  facet normal 1 0 -2.22045e-016
    outer loop
      vertex 5 12.5 10
      vertex 5 4.0101 10
      vertex 5 12.5 -2.22045e-015
    endloop
  endfacet
  facet normal 1 0 -2.22045e-016
    outer loop
      vertex 5 4.0101 10
      vertex 5 4.07011 9.5058
      vertex 5 12.5 -2.22045e-015
    endloop
  endfacet
  facet normal 1 0 -2.22045e-016
    outer loop
      vertex 5 4.07011 9.5058
      vertex 5 3.37423 7.67093
      vertex 5 12.5 -2.22045e-015
    endloop
  endfacet
  facet normal 1 0 -2.22045e-016
    outer loop
      vertex 5 12.5 -2.22045e-015
      vertex 5 1.90537 6.36963
      vertex 5 -12.5 -2.22045e-015
    endloop
  endfacet
  facet normal 1 0 -2.22045e-016
    outer loop
      vertex 5 1.90537 6.36963
      vertex 5 0 5.9
      vertex 5 -12.5 -2.22045e-015
    endloop
  endfacet
  facet normal 1 0 -2.22045e-016
    outer loop
      vertex 5 0 5.9
      vertex 5 -1.90537 6.36963
      vertex 5 -12.5 -2.22045e-015
    endloop
  endfacet
  facet normal 1 0 -2.22045e-016
    outer loop
      vertex 5 -1.90537 6.36963
      vertex 5 -3.37423 7.67093
      vertex 5 -12.5 -2.22045e-015
    endloop
  endfacet
  facet normal 1 0 -2.22045e-016
    outer loop
      vertex 5 -3.37423 7.67093
      vertex 5 -4.07011 9.5058
      vertex 5 -12.5 -2.22045e-015
    endloop
  endfacet
  facet normal 1 0 -2.22045e-016
    outer loop
      vertex 5 3.37423 7.67093
      vertex 5 1.90537 6.36963
      vertex 5 12.5 -2.22045e-015
    endloop
  endfacet
  facet normal -0.866025 0.5 0
    outer loop
      vertex 1.9 -7 -1.53211e-015
      vertex 0.95 -8.64545 -1.32117e-015
      vertex 1.9 -7 10
    endloop
  endfacet
  facet normal -0.866025 0.5 0
    outer loop
      vertex 1.9 -7 10
      vertex 0.95 -8.64545 -1.32117e-015
      vertex 0.95 -8.64545 10
    endloop
  endfacet
  facet normal 0 1 0
    outer loop
      vertex 0.95 -8.64545 -1.32117e-015
      vertex -0.95 -8.64545 -8.99281e-016
      vertex 0.95 -8.64545 10
    endloop
  endfacet
  facet normal 0 1 0
    outer loop
      vertex 0.95 -8.64545 10
      vertex -0.95 -8.64545 -8.99281e-016
      vertex -0.95 -8.64545 10
    endloop
  endfacet
  facet normal -0.866025 -0.5 0
    outer loop
      vertex 0.95 -5.35455 -1.32117e-015
      vertex 1.9 -7 -1.53211e-015
      vertex 0.95 -5.35455 10
    endloop
  endfacet
  facet normal -0.866025 -0.5 0
    outer loop
      vertex 0.95 -5.35455 10
      vertex 1.9 -7 -1.53211e-015
      vertex 1.9 -7 10
    endloop
  endfacet
  facet normal 0 -1 0
    outer loop
      vertex -0.95 -5.35455 -8.99281e-016
      vertex 0.95 -5.35455 -1.32117e-015
      vertex 0.95 -5.35455 10
    endloop
  endfacet
  facet normal 0 -1 0
    outer loop
      vertex -0.95 -5.35455 10
      vertex -0.95 -5.35455 -8.99281e-016
      vertex 0.95 -5.35455 10
    endloop
  endfacet
  facet normal 0.866025 -0.5 0
    outer loop
      vertex -1.9 -7 -6.88338e-016
      vertex -0.95 -5.35455 -8.99281e-016
      vertex -0.95 -5.35455 10
    endloop
  endfacet
  facet normal 0.866025 -0.5 0
    outer loop
      vertex -1.9 -7 10
      vertex -1.9 -7 -6.88338e-016
      vertex -0.95 -5.35455 10
    endloop
  endfacet
  facet normal 0.866025 0.5 0
    outer loop
      vertex -0.95 -8.64545 -8.99281e-016
      vertex -1.9 -7 -6.88338e-016
      vertex -1.9 -7 10
    endloop
  endfacet
  facet normal 0.866025 0.5 0
    outer loop
      vertex -0.95 -8.64545 10
      vertex -0.95 -8.64545 -8.99281e-016
      vertex -1.9 -7 10
    endloop
  endfacet
  facet normal -2.22045e-016 0 -1
    outer loop
      vertex 1.9 -7 -1.53211e-015
      vertex -5 12.5 0
      vertex 5 -12.5 -2.22045e-015
    endloop
  endfacet
  facet normal -2.22045e-016 0 -1
    outer loop
      vertex 0.95 8.64545 -1.32117e-015
      vertex -5 12.5 0
      vertex 5 12.5 -2.22045e-015
    endloop
  endfacet
  facet normal -2.22045e-016 0 -1
    outer loop
      vertex 0.95 8.64545 -1.32117e-015
      vertex 5 12.5 -2.22045e-015
      vertex 1.9 7 -1.53211e-015
    endloop
  endfacet
  facet normal -2.22045e-016 0 -1
    outer loop
      vertex -5 -12.5 0
      vertex -0.95 -8.64545 -8.99281e-016
      vertex 5 -12.5 -2.22045e-015
    endloop
  endfacet
  facet normal -2.22045e-016 0 -1
    outer loop
      vertex -1.9 -7 -6.88338e-016
      vertex -5 12.5 0
      vertex -0.95 -5.35455 -8.99281e-016
    endloop
  endfacet
  facet normal -2.22045e-016 0 -1
    outer loop
      vertex -0.95 -8.64545 -8.99281e-016
      vertex 0.95 -8.64545 -1.32117e-015
      vertex 5 -12.5 -2.22045e-015
    endloop
  endfacet
  facet normal -2.22045e-016 0 -1
    outer loop
      vertex 0.95 -5.35455 -1.32117e-015
      vertex -5 12.5 0
      vertex 1.9 -7 -1.53211e-015
    endloop
  endfacet
  facet normal -2.22045e-016 0 -1
    outer loop
      vertex 0.95 -8.64545 -1.32117e-015
      vertex 1.9 -7 -1.53211e-015
      vertex 5 -12.5 -2.22045e-015
    endloop
  endfacet
  facet normal -2.22045e-016 0 -1
    outer loop
      vertex -5 -12.5 0
      vertex -5 12.5 0
      vertex -1.9 -7 -6.88338e-016
    endloop
  endfacet
  facet normal -2.22045e-016 0 -1
    outer loop
      vertex -5 -12.5 0
      vertex -1.9 -7 -6.88338e-016
      vertex -0.95 -8.64545 -8.99281e-016
    endloop
  endfacet
  facet normal -2.22045e-016 0 -1
    outer loop
      vertex 5 -12.5 -2.22045e-015
      vertex -0.95 5.35455 -8.99281e-016
      vertex 0.95 5.35455 -1.32117e-015
    endloop
  endfacet
  facet normal -2.22045e-016 0 -1
    outer loop
      vertex 5 -12.5 -2.22045e-015
      vertex 0.95 5.35455 -1.32117e-015
      vertex 1.9 7 -1.53211e-015
    endloop
  endfacet
  facet normal -2.22045e-016 0 -1
    outer loop
      vertex 5 -12.5 -2.22045e-015
      vertex 1.9 7 -1.53211e-015
      vertex 5 12.5 -2.22045e-015
    endloop
  endfacet
  facet normal -2.22045e-016 0 -1
    outer loop
      vertex -0.95 8.64545 -8.99281e-016
      vertex -5 12.5 0
      vertex 0.95 8.64545 -1.32117e-015
    endloop
  endfacet
  facet normal -2.22045e-016 0 -1
    outer loop
      vertex -1.9 7 -6.88338e-016
      vertex -5 12.5 0
      vertex -0.95 8.64545 -8.99281e-016
    endloop
  endfacet
  facet normal -2.22045e-016 0 -1
    outer loop
      vertex 5 -12.5 -2.22045e-015
      vertex -5 12.5 0
      vertex -1.9 7 -6.88338e-016
    endloop
  endfacet
  facet normal -2.22045e-016 0 -1
    outer loop
      vertex 5 -12.5 -2.22045e-015
      vertex -1.9 7 -6.88338e-016
      vertex -0.95 5.35455 -8.99281e-016
    endloop
  endfacet
  facet normal -2.22045e-016 0 -1
    outer loop
      vertex -0.95 -5.35455 -8.99281e-016
      vertex -5 12.5 0
      vertex 0.95 -5.35455 -1.32117e-015
    endloop
  endfacet
  facet normal 0 1 0
    outer loop
      vertex -5 12.5 10
      vertex 5 12.5 10
      vertex -5 12.5 0
    endloop
  endfacet
  facet normal 0 1 0
    outer loop
      vertex -5 12.5 0
      vertex 5 12.5 10
      vertex 5 12.5 -2.22045e-015
    endloop
  endfacet
  facet normal 2.22045e-016 0 1
    outer loop
      vertex 0.95 5.35455 10
      vertex -5 4.0101 10
      vertex 5 4.0101 10
    endloop
  endfacet
  facet normal 2.22045e-016 0 1
    outer loop
      vertex -1.9 7 10
      vertex -0.95 8.64545 10
      vertex -5 12.5 10
    endloop
  endfacet
  facet normal 2.22045e-016 0 1
    outer loop
      vertex -0.95 5.35455 10
      vertex -5 4.0101 10
      vertex 0.95 5.35455 10
    endloop
  endfacet
  facet normal 2.22045e-016 0 1
    outer loop
      vertex -0.95 8.64545 10
      vertex 0.95 8.64545 10
      vertex -5 12.5 10
    endloop
  endfacet
  facet normal 2.22045e-016 0 1
    outer loop
      vertex -1.9 7 10
      vertex -5 4.0101 10
      vertex -0.95 5.35455 10
    endloop
  endfacet
  facet normal 2.22045e-016 0 1
    outer loop
      vertex -5 12.5 10
      vertex -5 4.0101 10
      vertex -1.9 7 10
    endloop
  endfacet
  facet normal 2.22045e-016 0 1
    outer loop
      vertex 5 12.5 10
      vertex 0.95 8.64545 10
      vertex 5 4.0101 10
    endloop
  endfacet
  facet normal 2.22045e-016 0 1
    outer loop
      vertex 5 12.5 10
      vertex -5 12.5 10
      vertex 0.95 8.64545 10
    endloop
  endfacet
  facet normal 2.22045e-016 0 1
    outer loop
      vertex 0.95 8.64545 10
      vertex 1.9 7 10
      vertex 5 4.0101 10
    endloop
  endfacet
  facet normal 2.22045e-016 0 1
    outer loop
      vertex 1.9 7 10
      vertex 0.95 5.35455 10
      vertex 5 4.0101 10
    endloop
  endfacet
  facet normal -2.67644e-017 -0.992709 -0.120536
    outer loop
      vertex -5 4.07011 9.5058
      vertex 5 4.07011 9.5058
      vertex 5 4.0101 10
    endloop
  endfacet
  facet normal -2.67644e-017 -0.992709 -0.120536
    outer loop
      vertex -5 4.0101 10
      vertex -5 4.07011 9.5058
      vertex 5 4.0101 10
    endloop
  endfacet
  facet normal 7.87381e-017 -0.935016 0.354605
    outer loop
      vertex -5 3.37423 7.67094
      vertex 5 3.37423 7.67093
      vertex 5 4.07011 9.5058
    endloop
  endfacet
  facet normal 7.87381e-017 -0.935016 0.354605
    outer loop
      vertex -5 4.07011 9.5058
      vertex -5 3.37423 7.67094
      vertex 5 4.07011 9.5058
    endloop
  endfacet
  facet normal 1.66203e-016 -0.663123 0.748511
    outer loop
      vertex -5 1.90537 6.36963
      vertex 5 1.90537 6.36963
      vertex 5 3.37423 7.67093
    endloop
  endfacet
  facet normal 1.66203e-016 -0.663123 0.748511
    outer loop
      vertex -5 3.37423 7.67094
      vertex -5 1.90537 6.36963
      vertex 5 3.37423 7.67093
    endloop
  endfacet
  facet normal 2.15592e-016 -0.239316 0.970942
    outer loop
      vertex -5 0 5.9
      vertex 5 0 5.9
      vertex 5 1.90537 6.36963
    endloop
  endfacet
  facet normal 2.15592e-016 -0.239316 0.970942
    outer loop
      vertex -5 1.90537 6.36963
      vertex -5 0 5.9
      vertex 5 1.90537 6.36963
    endloop
  endfacet
  facet normal 2.15592e-016 0.239316 0.970942
    outer loop
      vertex 5 -1.90537 6.36963
      vertex 5 0 5.9
      vertex -5 0 5.9
    endloop
  endfacet
  facet normal 2.15592e-016 0.239316 0.970942
    outer loop
      vertex -5 -1.90537 6.36963
      vertex 5 -1.90537 6.36963
      vertex -5 0 5.9
    endloop
  endfacet
  facet normal 1.66203e-016 0.663123 0.748511
    outer loop
      vertex 5 -3.37423 7.67093
      vertex 5 -1.90537 6.36963
      vertex -5 -1.90537 6.36963
    endloop
  endfacet
  facet normal 1.66203e-016 0.663123 0.748511
    outer loop
      vertex -5 -3.37423 7.67094
      vertex 5 -3.37423 7.67093
      vertex -5 -1.90537 6.36963
    endloop
  endfacet
  facet normal 7.87381e-017 0.935016 0.354605
    outer loop
      vertex 5 -3.37423 7.67093
      vertex -5 -3.37423 7.67094
      vertex 5 -4.07011 9.5058
    endloop
  endfacet
  facet normal 7.87381e-017 0.935016 0.354605
    outer loop
      vertex 5 -4.07011 9.5058
      vertex -5 -3.37423 7.67094
      vertex -5 -4.07011 9.5058
    endloop
  endfacet
  facet normal 0 1 0
    outer loop
      vertex 0.95 5.35455 -1.32117e-015
      vertex -0.95 5.35455 -8.99281e-016
      vertex 0.95 5.35455 10
    endloop
  endfacet
  facet normal 0 1 0
    outer loop
      vertex 0.95 5.35455 10
      vertex -0.95 5.35455 -8.99281e-016
      vertex -0.95 5.35455 10
    endloop
  endfacet
  facet normal 0.866025 0.5 0
    outer loop
      vertex -0.95 5.35455 -8.99281e-016
      vertex -1.9 7 -6.88338e-016
      vertex -1.9 7 10
    endloop
  endfacet
  facet normal 0.866025 0.5 0
    outer loop
      vertex -0.95 5.35455 10
      vertex -0.95 5.35455 -8.99281e-016
      vertex -1.9 7 10
    endloop
  endfacet
  facet normal 0.866025 -0.5 0
    outer loop
      vertex -1.9 7 -6.88338e-016
      vertex -0.95 8.64545 -8.99281e-016
      vertex -0.95 8.64545 10
    endloop
  endfacet
  facet normal 0.866025 -0.5 0
    outer loop
      vertex -1.9 7 10
      vertex -1.9 7 -6.88338e-016
      vertex -0.95 8.64545 10
    endloop
  endfacet
  facet normal 0 -1 0
    outer loop
      vertex -0.95 8.64545 -8.99281e-016
      vertex 0.95 8.64545 -1.32117e-015
      vertex 0.95 8.64545 10
    endloop
  endfacet
  facet normal 0 -1 0
    outer loop
      vertex -0.95 8.64545 10
      vertex -0.95 8.64545 -8.99281e-016
      vertex 0.95 8.64545 10
    endloop
  endfacet
  facet normal -0.866025 -0.5 0
    outer loop
      vertex 0.95 8.64545 -1.32117e-015
      vertex 1.9 7 -1.53211e-015
      vertex 0.95 8.64545 10
    endloop
  endfacet
  facet normal -0.866025 -0.5 0
    outer loop
      vertex 0.95 8.64545 10
      vertex 1.9 7 -1.53211e-015
      vertex 1.9 7 10
    endloop
  endfacet
  facet normal -0.866025 0.5 0
    outer loop
      vertex 1.9 7 -1.53211e-015
      vertex 0.95 5.35455 -1.32117e-015
      vertex 1.9 7 10
    endloop
  endfacet
  facet normal -0.866025 0.5 0
    outer loop
      vertex 1.9 7 10
      vertex 0.95 5.35455 -1.32117e-015
      vertex 0.95 5.35455 10
    endloop
  endfacet
endsolid OpenSCAD_Model
