solid OpenSCAD_Model
  facet normal 0 -1 2.22045e-016
    outer loop
      vertex -52 2 6.33368
      vertex -52.77 2 5
      vertex -52 2 3.66632
    endloop
  endfacet
  facet normal -0.866025 -1.11022e-016 -0.5
    outer loop
      vertex -52.77 2 5
      vertex -52.77 7 5
      vertex -52 2 3.66632
    endloop
  endfacet
  facet normal -0.866025 -1.11022e-016 -0.5
    outer loop
      vertex -52 4 3.66632
      vertex -52.77 7 5
      vertex -49.885 7 0.003033
    endloop
  endfacet
  facet normal -0.866025 -1.11022e-016 -0.5
    outer loop
      vertex -52 2 3.66632
      vertex -52.77 7 5
      vertex -52 4 3.66632
    endloop
  endfacet
  facet normal -0.866025 -1.11022e-016 -0.5
    outer loop
      vertex -52 4 3.66632
      vertex -49.885 7 0.003033
      vertex -49.885 4 0.003033
    endloop
  endfacet
  facet normal -0.866025 1.11022e-016 0.5
    outer loop
      vertex -52.77 2 5
      vertex -52 2 6.33368
      vertex -52.77 7 5
    endloop
  endfacet
  facet normal -0.866025 1.11022e-016 0.5
    outer loop
      vertex -52.77 7 5
      vertex -52 2 6.33368
      vertex -52 4 6.33368
    endloop
  endfacet
  facet normal -0.866025 1.11022e-016 0.5
    outer loop
      vertex -52.77 7 5
      vertex -52 4 6.33368
      vertex -49.885 4 9.99697
    endloop
  endfacet
  facet normal -0.866025 1.11022e-016 0.5
    outer loop
      vertex -52.77 7 5
      vertex -49.885 4 9.99697
      vertex -49.885 7 9.99697
    endloop
  endfacet
  facet normal -1 0 0
    outer loop
      vertex -52 4 3.66632
      vertex -52 4 0
      vertex -52 2 3.66632
    endloop
  endfacet
  facet normal -1 0 0
    outer loop
      vertex -52 4 6.33368
      vertex -52 0 10
      vertex -52 4 10
    endloop
  endfacet
  facet normal -1 0 0
    outer loop
      vertex -52 2 6.33368
      vertex -52 0 10
      vertex -52 4 6.33368
    endloop
  endfacet
  facet normal -1 0 0
    outer loop
      vertex -52 0 0
      vertex -52 0 10
      vertex -52 2 3.66632
    endloop
  endfacet
  facet normal -1 0 0
    outer loop
      vertex -52 0 0
      vertex -52 2 3.66632
      vertex -52 4 0
    endloop
  endfacet
  facet normal -1 0 0
    outer loop
      vertex -52 2 3.66632
      vertex -52 0 10
      vertex -52 2 6.33368
    endloop
  endfacet
  facet normal 0 1 0
    outer loop
      vertex -52 4 0
      vertex -49.885 4 0.003033
      vertex 0.969525 4 0
    endloop
  endfacet
  facet normal 0 1 0
    outer loop
      vertex -52 4 0
      vertex -52 4 3.66632
      vertex -49.885 4 0.003033
    endloop
  endfacet
  facet normal 0 1 0
    outer loop
      vertex -49.885 4 0.003033
      vertex -44.115 4 0.003033
      vertex 0.969525 4 0
    endloop
  endfacet
  facet normal 0 1 0
    outer loop
      vertex -9.77 4 5
      vertex -44.115 4 9.99697
      vertex -6.885 4 9.99697
    endloop
  endfacet
  facet normal 0 1 0
    outer loop
      vertex -49.885 4 9.99697
      vertex -52 4 6.33368
      vertex -52 4 10
    endloop
  endfacet
  facet normal 0 1 0
    outer loop
      vertex -49.885 4 9.99697
      vertex -52 4 10
      vertex -44.115 4 9.99697
    endloop
  endfacet
  facet normal 0 1 0
    outer loop
      vertex -44.115 4 9.99697
      vertex -52 4 10
      vertex 0.969525 4 10
    endloop
  endfacet
  facet normal 0 1 0
    outer loop
      vertex -1.115 4 9.99697
      vertex 0.969525 4 10
      vertex 0.969525 4 6.38646
    endloop
  endfacet
  facet normal 0 1 0
    outer loop
      vertex -6.885 4 9.99697
      vertex 0.969525 4 10
      vertex -1.115 4 9.99697
    endloop
  endfacet
  facet normal 0 1 0
    outer loop
      vertex -44.115 4 9.99697
      vertex 0.969525 4 10
      vertex -6.885 4 9.99697
    endloop
  endfacet
  facet normal 0 1 0
    outer loop
      vertex -6.885 4 0.003033
      vertex -44.115 4 9.99697
      vertex -9.77 4 5
    endloop
  endfacet
  facet normal 0 1 0
    outer loop
      vertex -6.885 4 0.003033
      vertex -41.23 4 5
      vertex -44.115 4 9.99697
    endloop
  endfacet
  facet normal 0 1 0
    outer loop
      vertex -44.115 4 0.003033
      vertex -6.885 4 0.003033
      vertex 0.969525 4 0
    endloop
  endfacet
  facet normal 0 1 0
    outer loop
      vertex -6.885 4 0.003033
      vertex -1.115 4 0.003033
      vertex 0.969525 4 0
    endloop
  endfacet
  facet normal 0 1 0
    outer loop
      vertex 0.969525 4 3.61354
      vertex 0.969525 4 0
      vertex -1.115 4 0.003033
    endloop
  endfacet
  facet normal 0 1 0
    outer loop
      vertex -41.23 4 5
      vertex -6.885 4 0.003033
      vertex -44.115 4 0.003033
    endloop
  endfacet
  facet normal 0 -2.22045e-016 -1
    outer loop
      vertex -49.885 4 0.003033
      vertex -49.885 7 0.003033
      vertex -44.115 4 0.003033
    endloop
  endfacet
  facet normal 0 -2.22045e-016 -1
    outer loop
      vertex -44.115 4 0.003033
      vertex -49.885 7 0.003033
      vertex -44.115 7 0.003033
    endloop
  endfacet
  facet normal 0 1 -2.22045e-016
    outer loop
      vertex -49.075 7 1.406
      vertex -49.885 7 0.003033
      vertex -51.15 7 5
    endloop
  endfacet
  facet normal 0 1 -2.22045e-016
    outer loop
      vertex -49.075 7 8.594
      vertex -49.885 7 9.99697
      vertex -44.115 7 9.99697
    endloop
  endfacet
  facet normal 0 1 -2.22045e-016
    outer loop
      vertex -42.85 7 5
      vertex -44.115 7 9.99697
      vertex -41.23 7 5
    endloop
  endfacet
  facet normal 0 1 -2.22045e-016
    outer loop
      vertex -44.925 7 1.406
      vertex -41.23 7 5
      vertex -44.115 7 0.003033
    endloop
  endfacet
  facet normal 0 1 -2.22045e-016
    outer loop
      vertex -52.77 7 5
      vertex -49.885 7 9.99697
      vertex -51.15 7 5
    endloop
  endfacet
  facet normal 0 1 -2.22045e-016
    outer loop
      vertex -52.77 7 5
      vertex -51.15 7 5
      vertex -49.885 7 0.003033
    endloop
  endfacet
  facet normal 0 1 -2.22045e-016
    outer loop
      vertex -42.85 7 5
      vertex -41.23 7 5
      vertex -44.925 7 1.406
    endloop
  endfacet
  facet normal 0 1 -2.22045e-016
    outer loop
      vertex -49.885 7 0.003033
      vertex -44.925 7 1.406
      vertex -44.115 7 0.003033
    endloop
  endfacet
  facet normal 0 1 -2.22045e-016
    outer loop
      vertex -44.925 7 8.594
      vertex -44.115 7 9.99697
      vertex -42.85 7 5
    endloop
  endfacet
  facet normal 0 1 -2.22045e-016
    outer loop
      vertex -51.15 7 5
      vertex -49.885 7 9.99697
      vertex -49.075 7 8.594
    endloop
  endfacet
  facet normal 0 1 -2.22045e-016
    outer loop
      vertex -44.925 7 1.406
      vertex -49.885 7 0.003033
      vertex -49.075 7 1.406
    endloop
  endfacet
  facet normal 0 1 -2.22045e-016
    outer loop
      vertex -49.075 7 8.594
      vertex -44.115 7 9.99697
      vertex -44.925 7 8.594
    endloop
  endfacet
  facet normal 0 2.22045e-016 1
    outer loop
      vertex -49.885 7 9.99697
      vertex -49.885 4 9.99697
      vertex -44.115 4 9.99697
    endloop
  endfacet
  facet normal 0 2.22045e-016 1
    outer loop
      vertex -44.115 7 9.99697
      vertex -49.885 7 9.99697
      vertex -44.115 4 9.99697
    endloop
  endfacet
  facet normal 0 0 -1
    outer loop
      vertex -52 0 0
      vertex -52 4 0
      vertex -50 0 0
    endloop
  endfacet
  facet normal 0 0 -1
    outer loop
      vertex -50 0 0
      vertex -52 4 0
      vertex 0.969525 4 0
    endloop
  endfacet
  facet normal 0 0 -1
    outer loop
      vertex 0.969525 4 0
      vertex 0.367076 5.18237 0
      vertex 0 7.5 0
    endloop
  endfacet
  facet normal 0 0 -1
    outer loop
      vertex 0.969525 4 0
      vertex 0 7.5 0
      vertex 0.367076 9.81763 0
    endloop
  endfacet
  facet normal 0 0 -1
    outer loop
      vertex 0.969525 4 0
      vertex 0.367076 9.81763 0
      vertex 1.43237 11.9084 0
    endloop
  endfacet
  facet normal 0 0 -1
    outer loop
      vertex 0.969525 4 0
      vertex 1.43237 11.9084 0
      vertex 3.09161 13.5676 0
    endloop
  endfacet
  facet normal 0 0 -1
    outer loop
      vertex 0.969525 4 0
      vertex 3.09161 13.5676 0
      vertex 5.18237 14.6329 0
    endloop
  endfacet
  facet normal 0 0 -1
    outer loop
      vertex 4.28261 10.1997 0
      vertex 5.18237 14.6329 0
      vertex 7.5 15 0
    endloop
  endfacet
  facet normal 0 0 -1
    outer loop
      vertex 9.82322 10.95 0
      vertex 7.5 15 0
      vertex 23 15 0
    endloop
  endfacet
  facet normal 0 0 -1
    outer loop
      vertex 9.6 11.1373 0
      vertex 7.5 15 0
      vertex 9.82322 10.95 0
    endloop
  endfacet
  facet normal 0 0 -1
    outer loop
      vertex 4.28261 10.1997 0
      vertex 7.5 15 0
      vertex 5.4 11.1373 0
    endloop
  endfacet
  facet normal 0 0 -1
    outer loop
      vertex 8.22932 11.6362 0
      vertex 7.5 15 0
      vertex 9.6 11.1373 0
    endloop
  endfacet
  facet normal 0 0 -1
    outer loop
      vertex 6.77068 11.6362 0
      vertex 7.5 15 0
      vertex 8.22932 11.6362 0
    endloop
  endfacet
  facet normal 0 0 -1
    outer loop
      vertex 5.4 11.1373 0
      vertex 7.5 15 0
      vertex 6.77068 11.6362 0
    endloop
  endfacet
  facet normal 0 0 -1
    outer loop
      vertex 3.55329 8.93648 0
      vertex 5.18237 14.6329 0
      vertex 4.28261 10.1997 0
    endloop
  endfacet
  facet normal 0 0 -1
    outer loop
      vertex 3.3 7.5 0
      vertex 0.969525 4 0
      vertex 3.55329 8.93648 0
    endloop
  endfacet
  facet normal 0 0 -1
    outer loop
      vertex 0.969525 4 0
      vertex 5.18237 14.6329 0
      vertex 3.55329 8.93648 0
    endloop
  endfacet
  facet normal 0 0 -1
    outer loop
      vertex 3.55329 6.06351 0
      vertex 0.969525 4 0
      vertex 3.3 7.5 0
    endloop
  endfacet
  facet normal 0 0 -1
    outer loop
      vertex 4.28261 4.80029 0
      vertex 0.969525 4 0
      vertex 3.55329 6.06351 0
    endloop
  endfacet
  facet normal 0 0 -1
    outer loop
      vertex 23 4.05 0
      vertex 9.6 3.86269 0
      vertex 9.82322 4.05 0
    endloop
  endfacet
  facet normal 0 0 -1
    outer loop
      vertex 0.969525 4 0
      vertex 4.28261 4.80029 0
      vertex 5.4 3.86269 0
    endloop
  endfacet
  facet normal 0 0 -1
    outer loop
      vertex 0.969525 4 0
      vertex 5.4 3.86269 0
      vertex -50 0 0
    endloop
  endfacet
  facet normal 0 0 -1
    outer loop
      vertex 5.4 3.86269 0
      vertex 6.77068 3.36381 0
      vertex -50 0 0
    endloop
  endfacet
  facet normal 0 0 -1
    outer loop
      vertex 6.77068 3.36381 0
      vertex 8.22932 3.36381 0
      vertex -50 0 0
    endloop
  endfacet
  facet normal 0 0 -1
    outer loop
      vertex 8.22932 3.36381 0
      vertex 23 4.05 0
      vertex -50 0 0
    endloop
  endfacet
  facet normal 0 0 -1
    outer loop
      vertex -7 0 0
      vertex -1 -3 0
      vertex -7 -3 0
    endloop
  endfacet
  facet normal 0 0 -1
    outer loop
      vertex 9.6 3.86269 0
      vertex 23 4.05 0
      vertex 8.22932 3.36381 0
    endloop
  endfacet
  facet normal 0 0 -1
    outer loop
      vertex -1 0 0
      vertex 23 4.05 0
      vertex 23 0 0
    endloop
  endfacet
  facet normal 0 0 -1
    outer loop
      vertex -50 0 0
      vertex 23 4.05 0
      vertex -44 0 0
    endloop
  endfacet
  facet normal 0 0 -1
    outer loop
      vertex 9.82322 10.95 0
      vertex 23 15 0
      vertex 23 10.95 0
    endloop
  endfacet
  facet normal 0 0 -1
    outer loop
      vertex -1 0 0
      vertex -1 -3 0
      vertex -7 0 0
    endloop
  endfacet
  facet normal 0 0 -1
    outer loop
      vertex -1 0 0
      vertex -7 0 0
      vertex 23 4.05 0
    endloop
  endfacet
  facet normal 0 0 -1
    outer loop
      vertex -44 -3 0
      vertex -50 0 0
      vertex -44 0 0
    endloop
  endfacet
  facet normal 0 0 -1
    outer loop
      vertex -7 0 0
      vertex -44 0 0
      vertex 23 4.05 0
    endloop
  endfacet
  facet normal 0 0 -1
    outer loop
      vertex -50 0 0
      vertex -44 -3 0
      vertex -50 -3 0
    endloop
  endfacet
  facet normal 0 0 1
    outer loop
      vertex -44 0 10
      vertex -7 0 10
      vertex -52 4 10
    endloop
  endfacet
  facet normal 0 0 1
    outer loop
      vertex -52 4 10
      vertex -52 0 10
      vertex -50 0 10
    endloop
  endfacet
  facet normal 0 0 1
    outer loop
      vertex -44 -3 10
      vertex -52 4 10
      vertex -50 0 10
    endloop
  endfacet
  facet normal 0 0 1
    outer loop
      vertex -50 -3 10
      vertex -44 -3 10
      vertex -50 0 10
    endloop
  endfacet
  facet normal 0 0 1
    outer loop
      vertex -44 -3 10
      vertex -44 0 10
      vertex -52 4 10
    endloop
  endfacet
  facet normal 0 0 1
    outer loop
      vertex -7 0 10
      vertex -1 0 10
      vertex -52 4 10
    endloop
  endfacet
  facet normal 0 0 1
    outer loop
      vertex -7 -3 10
      vertex -1 -3 10
      vertex -7 0 10
    endloop
  endfacet
  facet normal 0 0 1
    outer loop
      vertex -1 -3 10
      vertex -1 0 10
      vertex -7 0 10
    endloop
  endfacet
  facet normal 0 0 1
    outer loop
      vertex -1 0 10
      vertex 23 0 10
      vertex -52 4 10
    endloop
  endfacet
  facet normal 0 0 1
    outer loop
      vertex 6.77068 3.36381 10
      vertex 5.4 3.86269 10
      vertex -52 4 10
    endloop
  endfacet
  facet normal 0 0 1
    outer loop
      vertex 5.4 3.86269 10
      vertex 0.969525 4 10
      vertex -52 4 10
    endloop
  endfacet
  facet normal 0 0 1
    outer loop
      vertex 23 0 10
      vertex 23 4.05 10
      vertex 9.6 3.86269 10
    endloop
  endfacet
  facet normal 0 0 1
    outer loop
      vertex 23 0 10
      vertex 9.6 3.86269 10
      vertex 8.22932 3.36381 10
    endloop
  endfacet
  facet normal 0 0 1
    outer loop
      vertex 23 0 10
      vertex 6.77068 3.36381 10
      vertex -52 4 10
    endloop
  endfacet
  facet normal 0 0 1
    outer loop
      vertex 23 0 10
      vertex 8.22932 3.36381 10
      vertex 6.77068 3.36381 10
    endloop
  endfacet
  facet normal 0 0 1
    outer loop
      vertex 0.367076 5.18237 10
      vertex 0.969525 4 10
      vertex 4.28261 4.80029 10
    endloop
  endfacet
  facet normal 0 0 1
    outer loop
      vertex 0 7.5 10
      vertex 3.55329 6.06351 10
      vertex 3.3 7.5 10
    endloop
  endfacet
  facet normal 0 0 1
    outer loop
      vertex 0.367076 9.81763 10
      vertex 3.55329 8.93648 10
      vertex 4.28261 10.1997 10
    endloop
  endfacet
  facet normal 0 0 1
    outer loop
      vertex 0.367076 9.81763 10
      vertex 0 7.5 10
      vertex 3.55329 8.93648 10
    endloop
  endfacet
  facet normal 0 0 1
    outer loop
      vertex 8.22932 11.6362 10
      vertex 23 15 10
      vertex 6.77068 11.6362 10
    endloop
  endfacet
  facet normal 0 0 1
    outer loop
      vertex 9.6 11.1373 10
      vertex 23 10.95 10
      vertex 8.22932 11.6362 10
    endloop
  endfacet
  facet normal 0 0 1
    outer loop
      vertex 5.18237 14.6329 10
      vertex 3.09161 13.5676 10
      vertex 7.5 15 10
    endloop
  endfacet
  facet normal 0 0 1
    outer loop
      vertex 23 10.95 10
      vertex 23 15 10
      vertex 8.22932 11.6362 10
    endloop
  endfacet
  facet normal 0 0 1
    outer loop
      vertex 1.43237 11.9084 10
      vertex 6.77068 11.6362 10
      vertex 23 15 10
    endloop
  endfacet
  facet normal 0 0 1
    outer loop
      vertex 23 15 10
      vertex 7.5 15 10
      vertex 3.09161 13.5676 10
    endloop
  endfacet
  facet normal 0 0 1
    outer loop
      vertex 23 15 10
      vertex 3.09161 13.5676 10
      vertex 1.43237 11.9084 10
    endloop
  endfacet
  facet normal 0 0 1
    outer loop
      vertex 0 7.5 10
      vertex 0.367076 5.18237 10
      vertex 3.55329 6.06351 10
    endloop
  endfacet
  facet normal 0 0 1
    outer loop
      vertex 4.28261 10.1997 10
      vertex 5.4 11.1373 10
      vertex 0.367076 9.81763 10
    endloop
  endfacet
  facet normal 0 0 1
    outer loop
      vertex 3.3 7.5 10
      vertex 3.55329 8.93648 10
      vertex 0 7.5 10
    endloop
  endfacet
  facet normal 0 0 1
    outer loop
      vertex 4.28261 4.80029 10
      vertex 3.55329 6.06351 10
      vertex 0.367076 5.18237 10
    endloop
  endfacet
  facet normal 0 0 1
    outer loop
      vertex 1.43237 11.9084 10
      vertex 0.367076 9.81763 10
      vertex 5.4 11.1373 10
    endloop
  endfacet
  facet normal 0 0 1
    outer loop
      vertex 9.82322 10.95 10
      vertex 23 10.95 10
      vertex 9.6 11.1373 10
    endloop
  endfacet
  facet normal 0 0 1
    outer loop
      vertex 1.43237 11.9084 10
      vertex 5.4 11.1373 10
      vertex 6.77068 11.6362 10
    endloop
  endfacet
  facet normal 0 0 1
    outer loop
      vertex 9.82322 4.05 10
      vertex 9.6 3.86269 10
      vertex 23 4.05 10
    endloop
  endfacet
  facet normal 0 0 1
    outer loop
      vertex 5.4 3.86269 10
      vertex 4.28261 4.80029 10
      vertex 0.969525 4 10
    endloop
  endfacet
  facet normal 0 -1 0
    outer loop
      vertex -52 0 10
      vertex -52 0 0
      vertex -50 0 0
    endloop
  endfacet
  facet normal 0 -1 0
    outer loop
      vertex -50 0 10
      vertex -52 0 10
      vertex -50 0 0
    endloop
  endfacet
  facet normal -0.891006 -0.453991 0
    outer loop
      vertex 0.367076 5.18237 0
      vertex 0.969525 4 0
      vertex 0.367076 5.18237 2.57006
    endloop
  endfacet
  facet normal -0.891006 -0.453991 0
    outer loop
      vertex 0.367076 5.18237 2.57006
      vertex 0.969525 4 0
      vertex 0.969525 4 3.61354
    endloop
  endfacet
  facet normal 0.866025 -1.11022e-016 -0.5
    outer loop
      vertex 0.969525 4 3.61354
      vertex -1.115 4 0.003033
      vertex -1.115 7 0.003033
    endloop
  endfacet
  facet normal 0.866025 -1.11022e-016 -0.5
    outer loop
      vertex 0.367076 5.18237 2.57006
      vertex 0.969525 4 3.61354
      vertex -1.115 7 0.003033
    endloop
  endfacet
  facet normal 0.866025 -1.11022e-016 -0.5
    outer loop
      vertex 0.0791922 7 2.07143
      vertex 0.367076 5.18237 2.57006
      vertex -1.115 7 0.003033
    endloop
  endfacet
  facet normal 0 -2.22045e-016 -1
    outer loop
      vertex -6.885 4 0.003033
      vertex -6.885 7 0.003033
      vertex -1.115 4 0.003033
    endloop
  endfacet
  facet normal 0 -2.22045e-016 -1
    outer loop
      vertex -1.115 4 0.003033
      vertex -6.885 7 0.003033
      vertex -1.115 7 0.003033
    endloop
  endfacet
  facet normal -0.866025 -1.11022e-016 -0.5
    outer loop
      vertex -9.77 4 5
      vertex -9.77 7 5
      vertex -6.885 4 0.003033
    endloop
  endfacet
  facet normal -0.866025 -1.11022e-016 -0.5
    outer loop
      vertex -6.885 4 0.003033
      vertex -9.77 7 5
      vertex -6.885 7 0.003033
    endloop
  endfacet
  facet normal -0.866025 1.11022e-016 0.5
    outer loop
      vertex -9.77 4 5
      vertex -6.885 4 9.99697
      vertex -9.77 7 5
    endloop
  endfacet
  facet normal -0.866025 1.11022e-016 0.5
    outer loop
      vertex -9.77 7 5
      vertex -6.885 4 9.99697
      vertex -6.885 7 9.99697
    endloop
  endfacet
  facet normal 0 2.22045e-016 1
    outer loop
      vertex -6.885 7 9.99697
      vertex -6.885 4 9.99697
      vertex -1.115 4 9.99697
    endloop
  endfacet
  facet normal 0 2.22045e-016 1
    outer loop
      vertex -1.115 7 9.99697
      vertex -6.885 7 9.99697
      vertex -1.115 4 9.99697
    endloop
  endfacet
  facet normal 0.866025 1.11022e-016 0.5
    outer loop
      vertex -1.115 7 9.99697
      vertex -1.115 4 9.99697
      vertex 0.969525 4 6.38646
    endloop
  endfacet
  facet normal 0.866025 1.11022e-016 0.5
    outer loop
      vertex 0.0791922 7 7.92857
      vertex -1.115 7 9.99697
      vertex 0.367076 5.18237 7.42994
    endloop
  endfacet
  facet normal 0.866025 1.11022e-016 0.5
    outer loop
      vertex 0.367076 5.18237 7.42994
      vertex -1.115 7 9.99697
      vertex 0.969525 4 6.38646
    endloop
  endfacet
  facet normal -0.891006 -0.453991 0
    outer loop
      vertex 0.367076 5.18237 7.42994
      vertex 0.969525 4 6.38646
      vertex 0.367076 5.18237 10
    endloop
  endfacet
  facet normal -0.891006 -0.453991 0
    outer loop
      vertex 0.367076 5.18237 10
      vertex 0.969525 4 6.38646
      vertex 0.969525 4 10
    endloop
  endfacet
  facet normal 0.866025 1.11022e-016 0.5
    outer loop
      vertex -44.115 7 9.99697
      vertex -44.115 4 9.99697
      vertex -41.23 4 5
    endloop
  endfacet
  facet normal 0.866025 1.11022e-016 0.5
    outer loop
      vertex -41.23 7 5
      vertex -44.115 7 9.99697
      vertex -41.23 4 5
    endloop
  endfacet
  facet normal 0.866025 -1.11022e-016 -0.5
    outer loop
      vertex -41.23 4 5
      vertex -44.115 4 0.003033
      vertex -44.115 7 0.003033
    endloop
  endfacet
  facet normal 0.866025 -1.11022e-016 -0.5
    outer loop
      vertex -41.23 7 5
      vertex -41.23 4 5
      vertex -44.115 7 0.003033
    endloop
  endfacet
  facet normal 0.866025 -1.11022e-016 -0.5
    outer loop
      vertex -51.15 7 5
      vertex -49.075 7 8.594
      vertex -49.075 4 8.594
    endloop
  endfacet
  facet normal 0.866025 -1.11022e-016 -0.5
    outer loop
      vertex -51.15 4 5
      vertex -51.15 7 5
      vertex -49.075 4 8.594
    endloop
  endfacet
  facet normal 0.866025 1.11022e-016 0.5
    outer loop
      vertex -49.075 4 1.406
      vertex -49.075 7 1.406
      vertex -51.15 7 5
    endloop
  endfacet
  facet normal 0.866025 1.11022e-016 0.5
    outer loop
      vertex -51.15 4 5
      vertex -49.075 4 1.406
      vertex -51.15 7 5
    endloop
  endfacet
  facet normal 0 -2.22045e-016 -1
    outer loop
      vertex -44.925 7 8.594
      vertex -44.925 4 8.594
      vertex -49.075 7 8.594
    endloop
  endfacet
  facet normal 0 -2.22045e-016 -1
    outer loop
      vertex -49.075 7 8.594
      vertex -44.925 4 8.594
      vertex -49.075 4 8.594
    endloop
  endfacet
  facet normal -0.866025 -1.11022e-016 -0.5
    outer loop
      vertex -42.85 7 5
      vertex -42.85 4 5
      vertex -44.925 7 8.594
    endloop
  endfacet
  facet normal -0.866025 -1.11022e-016 -0.5
    outer loop
      vertex -44.925 7 8.594
      vertex -42.85 4 5
      vertex -44.925 4 8.594
    endloop
  endfacet
  facet normal -0.866025 1.11022e-016 0.5
    outer loop
      vertex -42.85 7 5
      vertex -44.925 7 1.406
      vertex -42.85 4 5
    endloop
  endfacet
  facet normal -0.866025 1.11022e-016 0.5
    outer loop
      vertex -42.85 4 5
      vertex -44.925 7 1.406
      vertex -44.925 4 1.406
    endloop
  endfacet
  facet normal 0 2.22045e-016 1
    outer loop
      vertex -44.925 4 1.406
      vertex -44.925 7 1.406
      vertex -49.075 7 1.406
    endloop
  endfacet
  facet normal 0 2.22045e-016 1
    outer loop
      vertex -49.075 4 1.406
      vertex -44.925 4 1.406
      vertex -49.075 7 1.406
    endloop
  endfacet
  facet normal -1 0 0
    outer loop
      vertex -50 -3 0
      vertex -50 -3 10
      vertex -50 0 0
    endloop
  endfacet
  facet normal -1 0 0
    outer loop
      vertex -50 0 0
      vertex -50 -3 10
      vertex -50 0 10
    endloop
  endfacet
  facet normal 0 -1 0
    outer loop
      vertex -48.5371 -3 3.88321
      vertex -50 -3 0
      vertex -44 -3 0
    endloop
  endfacet
  facet normal 0 -1 0
    outer loop
      vertex -47.5871 -3 3.19299
      vertex -48.5371 -3 3.88321
      vertex -44 -3 0
    endloop
  endfacet
  facet normal 0 -1 0
    outer loop
      vertex -48.9 -3 5
      vertex -50 -3 0
      vertex -48.5371 -3 3.88321
    endloop
  endfacet
  facet normal 0 -1 0
    outer loop
      vertex -50 -3 10
      vertex -50 -3 0
      vertex -48.9 -3 5
    endloop
  endfacet
  facet normal 0 -1 0
    outer loop
      vertex -44 -3 10
      vertex -45.1 -3 5
      vertex -44 -3 0
    endloop
  endfacet
  facet normal 0 -1 0
    outer loop
      vertex -44 -3 10
      vertex -50 -3 10
      vertex -45.1 -3 5
    endloop
  endfacet
  facet normal 0 -1 0
    outer loop
      vertex -45.1 -3 5
      vertex -45.4629 -3 3.88321
      vertex -44 -3 0
    endloop
  endfacet
  facet normal 0 -1 0
    outer loop
      vertex -46.4129 -3 3.19299
      vertex -47.5871 -3 3.19299
      vertex -44 -3 0
    endloop
  endfacet
  facet normal 0 -1 0
    outer loop
      vertex -45.4629 -3 3.88321
      vertex -46.4129 -3 3.19299
      vertex -44 -3 0
    endloop
  endfacet
  facet normal 0 -1 0
    outer loop
      vertex -48.9 -3 5
      vertex -45.1 -3 5
      vertex -50 -3 10
    endloop
  endfacet
  facet normal 1 0 0
    outer loop
      vertex -44 -3 10
      vertex -44 -3 0
      vertex -44 0 0
    endloop
  endfacet
  facet normal 1 0 0
    outer loop
      vertex -44 0 10
      vertex -44 -3 10
      vertex -44 0 0
    endloop
  endfacet
  facet normal 0 -1 0
    outer loop
      vertex -44 0 10
      vertex -44 0 0
      vertex -7 0 0
    endloop
  endfacet
  facet normal 0 -1 0
    outer loop
      vertex -7 0 10
      vertex -44 0 10
      vertex -7 0 0
    endloop
  endfacet
  facet normal -1 0 0
    outer loop
      vertex -7 -3 0
      vertex -7 -3 10
      vertex -7 0 0
    endloop
  endfacet
  facet normal -1 0 0
    outer loop
      vertex -7 0 0
      vertex -7 -3 10
      vertex -7 0 10
    endloop
  endfacet
  facet normal 0 -1 0
    outer loop
      vertex -5.53713 -3 3.88321
      vertex -7 -3 0
      vertex -1 -3 0
    endloop
  endfacet
  facet normal 0 -1 0
    outer loop
      vertex -4.58713 -3 3.19299
      vertex -5.53713 -3 3.88321
      vertex -1 -3 0
    endloop
  endfacet
  facet normal 0 -1 0
    outer loop
      vertex -5.9 -3 5
      vertex -7 -3 0
      vertex -5.53713 -3 3.88321
    endloop
  endfacet
  facet normal 0 -1 0
    outer loop
      vertex -7 -3 10
      vertex -7 -3 0
      vertex -5.9 -3 5
    endloop
  endfacet
  facet normal 0 -1 0
    outer loop
      vertex -1 -3 10
      vertex -2.1 -3 5
      vertex -1 -3 0
    endloop
  endfacet
  facet normal 0 -1 0
    outer loop
      vertex -1 -3 10
      vertex -7 -3 10
      vertex -2.1 -3 5
    endloop
  endfacet
  facet normal 0 -1 0
    outer loop
      vertex -2.1 -3 5
      vertex -2.46287 -3 3.88321
      vertex -1 -3 0
    endloop
  endfacet
  facet normal 0 -1 0
    outer loop
      vertex -3.41287 -3 3.19299
      vertex -4.58713 -3 3.19299
      vertex -1 -3 0
    endloop
  endfacet
  facet normal 0 -1 0
    outer loop
      vertex -2.46287 -3 3.88321
      vertex -3.41287 -3 3.19299
      vertex -1 -3 0
    endloop
  endfacet
  facet normal 0 -1 0
    outer loop
      vertex -5.9 -3 5
      vertex -2.1 -3 5
      vertex -7 -3 10
    endloop
  endfacet
  facet normal 1 0 0
    outer loop
      vertex -1 -3 10
      vertex -1 -3 0
      vertex -1 0 0
    endloop
  endfacet
  facet normal 1 0 0
    outer loop
      vertex -1 0 10
      vertex -1 -3 10
      vertex -1 0 0
    endloop
  endfacet
  facet normal 0 -1 0
    outer loop
      vertex -1 0 10
      vertex -1 0 0
      vertex 23 0 0
    endloop
  endfacet
  facet normal 0 -1 0
    outer loop
      vertex 16.4129 0 3.19299
      vertex -1 0 10
      vertex 23 0 0
    endloop
  endfacet
  facet normal 0 -1 0
    outer loop
      vertex 15.1 0 5
      vertex -1 0 10
      vertex 15.4629 0 3.88321
    endloop
  endfacet
  facet normal 0 -1 0
    outer loop
      vertex 17.5871 0 3.19299
      vertex 16.4129 0 3.19299
      vertex 23 0 0
    endloop
  endfacet
  facet normal 0 -1 0
    outer loop
      vertex 15.4629 0 6.11679
      vertex -1 0 10
      vertex 15.1 0 5
    endloop
  endfacet
  facet normal 0 -1 0
    outer loop
      vertex 16.4129 0 6.80701
      vertex -1 0 10
      vertex 15.4629 0 6.11679
    endloop
  endfacet
  facet normal 0 -1 0
    outer loop
      vertex 23 0 10
      vertex -1 0 10
      vertex 16.4129 0 6.80701
    endloop
  endfacet
  facet normal 0 -1 0
    outer loop
      vertex 23 0 10
      vertex 18.5371 0 6.11679
      vertex 23 0 0
    endloop
  endfacet
  facet normal 0 -1 0
    outer loop
      vertex 18.5371 0 6.11679
      vertex 18.9 0 5
      vertex 23 0 0
    endloop
  endfacet
  facet normal 0 -1 0
    outer loop
      vertex 18.9 0 5
      vertex 18.5371 0 3.88321
      vertex 23 0 0
    endloop
  endfacet
  facet normal 0 -1 0
    outer loop
      vertex 18.5371 0 3.88321
      vertex 17.5871 0 3.19299
      vertex 23 0 0
    endloop
  endfacet
  facet normal 0 -1 0
    outer loop
      vertex 15.4629 0 3.88321
      vertex -1 0 10
      vertex 16.4129 0 3.19299
    endloop
  endfacet
  facet normal 0 -1 0
    outer loop
      vertex 16.4129 0 6.80701
      vertex 17.5871 0 6.80701
      vertex 23 0 10
    endloop
  endfacet
  facet normal 0 -1 0
    outer loop
      vertex 17.5871 0 6.80701
      vertex 18.5371 0 6.11679
      vertex 23 0 10
    endloop
  endfacet
  facet normal 1 0 0
    outer loop
      vertex 23 0 10
      vertex 23 0 0
      vertex 23 4.05 0
    endloop
  endfacet
  facet normal 1 0 0
    outer loop
      vertex 23 4.05 10
      vertex 23 0 10
      vertex 23 4.05 0
    endloop
  endfacet
  facet normal 0 1 0
    outer loop
      vertex 16.4129 4.05 6.80701
      vertex 9.82322 4.05 10
      vertex 17.5871 4.05 6.80701
    endloop
  endfacet
  facet normal 0 1 0
    outer loop
      vertex 16.4129 4.05 3.19299
      vertex 23 4.05 0
      vertex 9.82322 4.05 0
    endloop
  endfacet
  facet normal 0 1 0
    outer loop
      vertex 18.5371 4.05 3.88321
      vertex 23 4.05 0
      vertex 17.5871 4.05 3.19299
    endloop
  endfacet
  facet normal 0 1 0
    outer loop
      vertex 9.82322 4.05 10
      vertex 15.4629 4.05 3.88321
      vertex 9.82322 4.05 0
    endloop
  endfacet
  facet normal 0 1 0
    outer loop
      vertex 15.4629 4.05 3.88321
      vertex 16.4129 4.05 3.19299
      vertex 9.82322 4.05 0
    endloop
  endfacet
  facet normal 0 1 0
    outer loop
      vertex 23 4.05 10
      vertex 23 4.05 0
      vertex 18.5371 4.05 3.88321
    endloop
  endfacet
  facet normal 0 1 0
    outer loop
      vertex 23 4.05 10
      vertex 18.5371 4.05 3.88321
      vertex 18.9 4.05 5
    endloop
  endfacet
  facet normal 0 1 0
    outer loop
      vertex 23 4.05 10
      vertex 18.9 4.05 5
      vertex 18.5371 4.05 6.11679
    endloop
  endfacet
  facet normal 0 1 0
    outer loop
      vertex 23 4.05 10
      vertex 18.5371 4.05 6.11679
      vertex 17.5871 4.05 6.80701
    endloop
  endfacet
  facet normal 0 1 0
    outer loop
      vertex 23 4.05 10
      vertex 17.5871 4.05 6.80701
      vertex 9.82322 4.05 10
    endloop
  endfacet
  facet normal 0 1 0
    outer loop
      vertex 15.4629 4.05 6.11679
      vertex 9.82322 4.05 10
      vertex 16.4129 4.05 6.80701
    endloop
  endfacet
  facet normal 0 1 0
    outer loop
      vertex 15.1 4.05 5
      vertex 9.82322 4.05 10
      vertex 15.4629 4.05 6.11679
    endloop
  endfacet
  facet normal 0 1 0
    outer loop
      vertex 9.82322 4.05 10
      vertex 15.1 4.05 5
      vertex 15.4629 4.05 3.88321
    endloop
  endfacet
  facet normal 0 1 0
    outer loop
      vertex 17.5871 4.05 3.19299
      vertex 23 4.05 0
      vertex 16.4129 4.05 3.19299
    endloop
  endfacet
  facet normal -0.642788 0.766044 0
    outer loop
      vertex 9.82322 4.05 10
      vertex 9.82322 4.05 0
      vertex 9.6 3.86269 10
    endloop
  endfacet
  facet normal -0.642788 0.766044 0
    outer loop
      vertex 9.6 3.86269 10
      vertex 9.82322 4.05 0
      vertex 9.6 3.86269 0
    endloop
  endfacet
  facet normal -0.34202 0.939693 0
    outer loop
      vertex 9.6 3.86269 10
      vertex 9.6 3.86269 0
      vertex 8.22932 3.36381 10
    endloop
  endfacet
  facet normal -0.34202 0.939693 0
    outer loop
      vertex 8.22932 3.36381 10
      vertex 9.6 3.86269 0
      vertex 8.22932 3.36381 0
    endloop
  endfacet
  facet normal 0 1 0
    outer loop
      vertex 8.22932 3.36381 10
      vertex 8.22932 3.36381 0
      vertex 6.77068 3.36381 10
    endloop
  endfacet
  facet normal 0 1 0
    outer loop
      vertex 6.77068 3.36381 10
      vertex 8.22932 3.36381 0
      vertex 6.77068 3.36381 0
    endloop
  endfacet
  facet normal 0.34202 0.939693 0
    outer loop
      vertex 6.77068 3.36381 10
      vertex 6.77068 3.36381 0
      vertex 5.4 3.86269 10
    endloop
  endfacet
  facet normal 0.34202 0.939693 0
    outer loop
      vertex 5.4 3.86269 10
      vertex 6.77068 3.36381 0
      vertex 5.4 3.86269 0
    endloop
  endfacet
  facet normal 0.642788 0.766044 0
    outer loop
      vertex 5.4 3.86269 10
      vertex 5.4 3.86269 0
      vertex 4.28261 4.80029 10
    endloop
  endfacet
  facet normal 0.642788 0.766044 0
    outer loop
      vertex 4.28261 4.80029 10
      vertex 5.4 3.86269 0
      vertex 4.28261 4.80029 0
    endloop
  endfacet
  facet normal 0.866025 0.5 0
    outer loop
      vertex 3.55329 6.06351 10
      vertex 4.28261 4.80029 10
      vertex 4.28261 4.80029 0
    endloop
  endfacet
  facet normal 0.866025 0.5 0
    outer loop
      vertex 3.55329 6.06351 0
      vertex 3.55329 6.06351 10
      vertex 4.28261 4.80029 0
    endloop
  endfacet
  facet normal 0.984808 0.173648 0
    outer loop
      vertex 3.3 7.5 10
      vertex 3.55329 6.06351 10
      vertex 3.55329 6.06351 0
    endloop
  endfacet
  facet normal 0.984808 0.173648 0
    outer loop
      vertex 3.3 7.5 0
      vertex 3.3 7.5 10
      vertex 3.55329 6.06351 0
    endloop
  endfacet
  facet normal 0.984808 -0.173648 0
    outer loop
      vertex 3.55329 8.93648 0
      vertex 3.55329 8.93648 10
      vertex 3.3 7.5 10
    endloop
  endfacet
  facet normal 0.984808 -0.173648 0
    outer loop
      vertex 3.3 7.5 0
      vertex 3.55329 8.93648 0
      vertex 3.3 7.5 10
    endloop
  endfacet
  facet normal 0.866025 -0.5 0
    outer loop
      vertex 4.28261 10.1997 0
      vertex 4.28261 10.1997 10
      vertex 3.55329 8.93648 10
    endloop
  endfacet
  facet normal 0.866025 -0.5 0
    outer loop
      vertex 3.55329 8.93648 0
      vertex 4.28261 10.1997 0
      vertex 3.55329 8.93648 10
    endloop
  endfacet
  facet normal 0.642788 -0.766044 0
    outer loop
      vertex 5.4 11.1373 0
      vertex 5.4 11.1373 10
      vertex 4.28261 10.1997 10
    endloop
  endfacet
  facet normal 0.642788 -0.766044 0
    outer loop
      vertex 4.28261 10.1997 0
      vertex 5.4 11.1373 0
      vertex 4.28261 10.1997 10
    endloop
  endfacet
  facet normal 0.34202 -0.939693 0
    outer loop
      vertex 6.77068 11.6362 0
      vertex 6.77068 11.6362 10
      vertex 5.4 11.1373 10
    endloop
  endfacet
  facet normal 0.34202 -0.939693 0
    outer loop
      vertex 5.4 11.1373 0
      vertex 6.77068 11.6362 0
      vertex 5.4 11.1373 10
    endloop
  endfacet
  facet normal 0 -1 0
    outer loop
      vertex 8.22932 11.6362 0
      vertex 8.22932 11.6362 10
      vertex 6.77068 11.6362 10
    endloop
  endfacet
  facet normal 0 -1 0
    outer loop
      vertex 6.77068 11.6362 0
      vertex 8.22932 11.6362 0
      vertex 6.77068 11.6362 10
    endloop
  endfacet
  facet normal -0.34202 -0.939693 0
    outer loop
      vertex 9.6 11.1373 0
      vertex 9.6 11.1373 10
      vertex 8.22932 11.6362 10
    endloop
  endfacet
  facet normal -0.34202 -0.939693 0
    outer loop
      vertex 8.22932 11.6362 0
      vertex 9.6 11.1373 0
      vertex 8.22932 11.6362 10
    endloop
  endfacet
  facet normal -0.642788 -0.766044 0
    outer loop
      vertex 9.82322 10.95 0
      vertex 9.82322 10.95 10
      vertex 9.6 11.1373 10
    endloop
  endfacet
  facet normal -0.642788 -0.766044 0
    outer loop
      vertex 9.6 11.1373 0
      vertex 9.82322 10.95 0
      vertex 9.6 11.1373 10
    endloop
  endfacet
  facet normal 0 -1 0
    outer loop
      vertex 16.4129 10.95 6.80701
      vertex 23 10.95 10
      vertex 9.82322 10.95 10
    endloop
  endfacet
  facet normal 0 -1 0
    outer loop
      vertex 16.4129 10.95 6.80701
      vertex 17.5871 10.95 6.80701
      vertex 23 10.95 10
    endloop
  endfacet
  facet normal 0 -1 0
    outer loop
      vertex 9.82322 10.95 0
      vertex 15.1 10.95 5
      vertex 9.82322 10.95 10
    endloop
  endfacet
  facet normal 0 -1 0
    outer loop
      vertex 15.4629 10.95 6.11679
      vertex 16.4129 10.95 6.80701
      vertex 9.82322 10.95 10
    endloop
  endfacet
  facet normal 0 -1 0
    outer loop
      vertex 18.5371 10.95 6.11679
      vertex 18.9 10.95 5
      vertex 23 10.95 0
    endloop
  endfacet
  facet normal 0 -1 0
    outer loop
      vertex 18.5371 10.95 6.11679
      vertex 23 10.95 10
      vertex 17.5871 10.95 6.80701
    endloop
  endfacet
  facet normal 0 -1 0
    outer loop
      vertex 23 10.95 0
      vertex 23 10.95 10
      vertex 18.5371 10.95 6.11679
    endloop
  endfacet
  facet normal 0 -1 0
    outer loop
      vertex 23 10.95 0
      vertex 18.9 10.95 5
      vertex 18.5371 10.95 3.88321
    endloop
  endfacet
  facet normal 0 -1 0
    outer loop
      vertex 9.82322 10.95 0
      vertex 23 10.95 0
      vertex 17.5871 10.95 3.19299
    endloop
  endfacet
  facet normal 0 -1 0
    outer loop
      vertex 9.82322 10.95 0
      vertex 17.5871 10.95 3.19299
      vertex 16.4129 10.95 3.19299
    endloop
  endfacet
  facet normal 0 -1 0
    outer loop
      vertex 9.82322 10.95 0
      vertex 15.4629 10.95 3.88321
      vertex 15.1 10.95 5
    endloop
  endfacet
  facet normal 0 -1 0
    outer loop
      vertex 9.82322 10.95 0
      vertex 16.4129 10.95 3.19299
      vertex 15.4629 10.95 3.88321
    endloop
  endfacet
  facet normal 0 -1 0
    outer loop
      vertex 15.1 10.95 5
      vertex 15.4629 10.95 6.11679
      vertex 9.82322 10.95 10
    endloop
  endfacet
  facet normal 0 -1 0
    outer loop
      vertex 18.5371 10.95 3.88321
      vertex 17.5871 10.95 3.19299
      vertex 23 10.95 0
    endloop
  endfacet
  facet normal 1 0 0
    outer loop
      vertex 23 10.95 10
      vertex 23 10.95 0
      vertex 23 15 0
    endloop
  endfacet
  facet normal 1 0 0
    outer loop
      vertex 23 15 10
      vertex 23 10.95 10
      vertex 23 15 0
    endloop
  endfacet
  facet normal 0 1 0
    outer loop
      vertex 22.77 15 5
      vertex 23 15 0
      vertex 19.885 15 0.003033
    endloop
  endfacet
  facet normal 0 1 0
    outer loop
      vertex 19.885 15 9.99697
      vertex 7.5 15 10
      vertex 23 15 10
    endloop
  endfacet
  facet normal 0 1 0
    outer loop
      vertex 7.5 15 0
      vertex 7.5 15 10
      vertex 11.23 15 5
    endloop
  endfacet
  facet normal 0 1 0
    outer loop
      vertex 7.5 15 0
      vertex 11.23 15 5
      vertex 14.115 15 0.003033
    endloop
  endfacet
  facet normal 0 1 0
    outer loop
      vertex 7.5 15 0
      vertex 14.115 15 0.003033
      vertex 23 15 0
    endloop
  endfacet
  facet normal 0 1 0
    outer loop
      vertex 14.115 15 0.003033
      vertex 19.885 15 0.003033
      vertex 23 15 0
    endloop
  endfacet
  facet normal 0 1 0
    outer loop
      vertex 23 15 0
      vertex 22.77 15 5
      vertex 23 15 10
    endloop
  endfacet
  facet normal 0 1 0
    outer loop
      vertex 14.115 15 9.99697
      vertex 7.5 15 10
      vertex 19.885 15 9.99697
    endloop
  endfacet
  facet normal 0 1 0
    outer loop
      vertex 22.77 15 5
      vertex 19.885 15 9.99697
      vertex 23 15 10
    endloop
  endfacet
  facet normal 0 1 0
    outer loop
      vertex 11.23 15 5
      vertex 7.5 15 10
      vertex 14.115 15 9.99697
    endloop
  endfacet
  facet normal -0.156434 0.987688 0
    outer loop
      vertex 5.18237 14.6329 0
      vertex 5.18237 14.6329 10
      vertex 7.5 15 0
    endloop
  endfacet
  facet normal -0.156434 0.987688 0
    outer loop
      vertex 7.5 15 0
      vertex 5.18237 14.6329 10
      vertex 7.5 15 10
    endloop
  endfacet
  facet normal -0.453991 0.891006 0
    outer loop
      vertex 3.09161 13.5676 0
      vertex 3.09161 13.5676 10
      vertex 5.18237 14.6329 0
    endloop
  endfacet
  facet normal -0.453991 0.891006 0
    outer loop
      vertex 5.18237 14.6329 0
      vertex 3.09161 13.5676 10
      vertex 5.18237 14.6329 10
    endloop
  endfacet
  facet normal -0.707107 0.707107 0
    outer loop
      vertex 1.43237 11.9084 0
      vertex 1.43237 11.9084 10
      vertex 3.09161 13.5676 0
    endloop
  endfacet
  facet normal -0.707107 0.707107 0
    outer loop
      vertex 3.09161 13.5676 0
      vertex 1.43237 11.9084 10
      vertex 3.09161 13.5676 10
    endloop
  endfacet
  facet normal -0.891006 0.453991 0
    outer loop
      vertex 0.367076 9.81763 0
      vertex 0.367076 9.81763 10
      vertex 1.43237 11.9084 0
    endloop
  endfacet
  facet normal -0.891006 0.453991 0
    outer loop
      vertex 1.43237 11.9084 0
      vertex 0.367076 9.81763 10
      vertex 1.43237 11.9084 10
    endloop
  endfacet
  facet normal -0.987688 0.156434 0
    outer loop
      vertex 0 7.5 0
      vertex 0 7.5 4.74019
      vertex 0.367076 9.81763 0
    endloop
  endfacet
  facet normal -0.987688 0.156434 0
    outer loop
      vertex 0.367076 9.81763 0
      vertex 0 7.5 4.74019
      vertex 0.15 8.44706 5
    endloop
  endfacet
  facet normal -0.987688 0.156434 0
    outer loop
      vertex 0.15 8.44706 5
      vertex 0 7.5 5.25981
      vertex 0 7.5 10
    endloop
  endfacet
  facet normal -0.987688 0.156434 0
    outer loop
      vertex 0.15 8.44706 5
      vertex 0 7.5 10
      vertex 0.367076 9.81763 0
    endloop
  endfacet
  facet normal -0.987688 0.156434 0
    outer loop
      vertex 0.367076 9.81763 0
      vertex 0 7.5 10
      vertex 0.367076 9.81763 10
    endloop
  endfacet
  facet normal -0.987688 -0.156434 0
    outer loop
      vertex 0.0791922 7 4.87736
      vertex 0 7.5 4.74019
      vertex 0.0791922 7 2.07143
    endloop
  endfacet
  facet normal -0.987688 -0.156434 0
    outer loop
      vertex 0 7.5 0
      vertex 0.367076 5.18237 0
      vertex 0.0791922 7 2.07143
    endloop
  endfacet
  facet normal -0.987688 -0.156434 0
    outer loop
      vertex 0 7.5 0
      vertex 0.0791922 7 2.07143
      vertex 0 7.5 4.74019
    endloop
  endfacet
  facet normal -0.987688 -0.156434 0
    outer loop
      vertex 0.0791922 7 2.07143
      vertex 0.367076 5.18237 0
      vertex 0.367076 5.18237 2.57006
    endloop
  endfacet
  facet normal -0.987688 -0.156434 0
    outer loop
      vertex 0 7.5 5.25981
      vertex 0.0791922 7 5.12264
      vertex 0 7.5 10
    endloop
  endfacet
  facet normal -0.987688 -0.156434 0
    outer loop
      vertex 0 7.5 10
      vertex 0.0791922 7 5.12264
      vertex 0.0791922 7 7.92857
    endloop
  endfacet
  facet normal -0.987688 -0.156434 0
    outer loop
      vertex 0 7.5 10
      vertex 0.0791922 7 7.92857
      vertex 0.367076 5.18237 7.42994
    endloop
  endfacet
  facet normal -0.987688 -0.156434 0
    outer loop
      vertex 0 7.5 10
      vertex 0.367076 5.18237 7.42994
      vertex 0.367076 5.18237 10
    endloop
  endfacet
  facet normal 0 1 -2.22045e-016
    outer loop
      vertex -6.075 7 1.406
      vertex -6.885 7 0.003033
      vertex -8.15 7 5
    endloop
  endfacet
  facet normal 0 1 -2.22045e-016
    outer loop
      vertex -6.075 7 8.594
      vertex -6.885 7 9.99697
      vertex -1.115 7 9.99697
    endloop
  endfacet
  facet normal 0 1 -2.22045e-016
    outer loop
      vertex -1.925 7 8.594
      vertex -1.115 7 9.99697
      vertex 0.0791922 7 7.92857
    endloop
  endfacet
  facet normal 0 1 -2.22045e-016
    outer loop
      vertex -6.075 7 8.594
      vertex -1.115 7 9.99697
      vertex -1.925 7 8.594
    endloop
  endfacet
  facet normal 0 1 -2.22045e-016
    outer loop
      vertex -8.15 7 5
      vertex -6.885 7 9.99697
      vertex -6.075 7 8.594
    endloop
  endfacet
  facet normal 0 1 -2.22045e-016
    outer loop
      vertex -9.77 7 5
      vertex -6.885 7 9.99697
      vertex -8.15 7 5
    endloop
  endfacet
  facet normal 0 1 -2.22045e-016
    outer loop
      vertex -9.77 7 5
      vertex -8.15 7 5
      vertex -6.885 7 0.003033
    endloop
  endfacet
  facet normal 0 1 -2.22045e-016
    outer loop
      vertex -1.925 7 1.406
      vertex -6.885 7 0.003033
      vertex -6.075 7 1.406
    endloop
  endfacet
  facet normal 0 1 -2.22045e-016
    outer loop
      vertex -1.925 7 1.406
      vertex 0.0791922 7 4.87736
      vertex 0.0791922 7 2.07143
    endloop
  endfacet
  facet normal 0 1 -2.22045e-016
    outer loop
      vertex -1.925 7 1.406
      vertex 0.0791922 7 2.07143
      vertex -1.115 7 0.003033
    endloop
  endfacet
  facet normal 0 1 -2.22045e-016
    outer loop
      vertex -1.925 7 1.406
      vertex -1.115 7 0.003033
      vertex -6.885 7 0.003033
    endloop
  endfacet
  facet normal 0 1 -2.22045e-016
    outer loop
      vertex -1.925 7 8.594
      vertex 0.0791922 7 7.92857
      vertex 0.0791922 7 5.12264
    endloop
  endfacet
  facet normal 0 1 -2.22045e-016
    outer loop
      vertex -44.925 4 8.594
      vertex -42.85 4 5
      vertex -49.075 4 8.594
    endloop
  endfacet
  facet normal 0 1 -2.22045e-016
    outer loop
      vertex -45.4629 4 3.88321
      vertex -42.85 4 5
      vertex -44.925 4 1.406
    endloop
  endfacet
  facet normal 0 1 -2.22045e-016
    outer loop
      vertex -47.5871 4 3.19299
      vertex -44.925 4 1.406
      vertex -49.075 4 1.406
    endloop
  endfacet
  facet normal 0 1 -2.22045e-016
    outer loop
      vertex -49.075 4 8.594
      vertex -49.075 4 1.406
      vertex -51.15 4 5
    endloop
  endfacet
  facet normal 0 1 -2.22045e-016
    outer loop
      vertex -45.4629 4 3.88321
      vertex -44.925 4 1.406
      vertex -46.4129 4 3.19299
    endloop
  endfacet
  facet normal 0 1 -2.22045e-016
    outer loop
      vertex -48.9 4 5
      vertex -48.5371 4 3.88321
      vertex -49.075 4 1.406
    endloop
  endfacet
  facet normal 0 1 -2.22045e-016
    outer loop
      vertex -48.5371 4 3.88321
      vertex -47.5871 4 3.19299
      vertex -49.075 4 1.406
    endloop
  endfacet
  facet normal 0 1 -2.22045e-016
    outer loop
      vertex -45.1 4 5
      vertex -42.85 4 5
      vertex -45.4629 4 3.88321
    endloop
  endfacet
  facet normal 0 1 -2.22045e-016
    outer loop
      vertex -47.5871 4 6.80701
      vertex -49.075 4 8.594
      vertex -46.4129 4 6.80701
    endloop
  endfacet
  facet normal 0 1 -2.22045e-016
    outer loop
      vertex -45.4629 4 6.11679
      vertex -42.85 4 5
      vertex -45.1 4 5
    endloop
  endfacet
  facet normal 0 1 -2.22045e-016
    outer loop
      vertex -46.4129 4 6.80701
      vertex -42.85 4 5
      vertex -45.4629 4 6.11679
    endloop
  endfacet
  facet normal 0 1 -2.22045e-016
    outer loop
      vertex -49.075 4 8.594
      vertex -42.85 4 5
      vertex -46.4129 4 6.80701
    endloop
  endfacet
  facet normal 0 1 -2.22045e-016
    outer loop
      vertex -48.5371 4 6.11679
      vertex -49.075 4 8.594
      vertex -47.5871 4 6.80701
    endloop
  endfacet
  facet normal 0 1 -2.22045e-016
    outer loop
      vertex -48.9 4 5
      vertex -49.075 4 8.594
      vertex -48.5371 4 6.11679
    endloop
  endfacet
  facet normal 0 1 -2.22045e-016
    outer loop
      vertex -49.075 4 8.594
      vertex -48.9 4 5
      vertex -49.075 4 1.406
    endloop
  endfacet
  facet normal 0 1 -2.22045e-016
    outer loop
      vertex -46.4129 4 3.19299
      vertex -44.925 4 1.406
      vertex -47.5871 4 3.19299
    endloop
  endfacet
  facet normal 0.951056 6.86156e-017 0.309017
    outer loop
      vertex -48.5371 -3 3.88321
      vertex -48.5371 4 3.88321
      vertex -48.9 4 5
    endloop
  endfacet
  facet normal 0.951056 6.86156e-017 0.309017
    outer loop
      vertex -48.9 -3 5
      vertex -48.5371 -3 3.88321
      vertex -48.9 4 5
    endloop
  endfacet
  facet normal 0.587785 1.79638e-016 0.809017
    outer loop
      vertex -47.5871 -3 3.19299
      vertex -47.5871 4 3.19299
      vertex -48.5371 4 3.88321
    endloop
  endfacet
  facet normal 0.587785 1.79638e-016 0.809017
    outer loop
      vertex -48.5371 -3 3.88321
      vertex -47.5871 -3 3.19299
      vertex -48.5371 4 3.88321
    endloop
  endfacet
  facet normal 0 2.22045e-016 1
    outer loop
      vertex -46.4129 -3 3.19299
      vertex -46.4129 4 3.19299
      vertex -47.5871 4 3.19299
    endloop
  endfacet
  facet normal 0 2.22045e-016 1
    outer loop
      vertex -47.5871 -3 3.19299
      vertex -46.4129 -3 3.19299
      vertex -47.5871 4 3.19299
    endloop
  endfacet
  facet normal -0.587785 1.79638e-016 0.809017
    outer loop
      vertex -45.4629 -3 3.88321
      vertex -45.4629 4 3.88321
      vertex -46.4129 4 3.19299
    endloop
  endfacet
  facet normal -0.587785 1.79638e-016 0.809017
    outer loop
      vertex -46.4129 -3 3.19299
      vertex -45.4629 -3 3.88321
      vertex -46.4129 4 3.19299
    endloop
  endfacet
  facet normal -0.951056 6.86156e-017 0.309017
    outer loop
      vertex -45.1 4 5
      vertex -45.4629 4 3.88321
      vertex -45.1 -3 5
    endloop
  endfacet
  facet normal -0.951056 6.86156e-017 0.309017
    outer loop
      vertex -45.1 -3 5
      vertex -45.4629 4 3.88321
      vertex -45.4629 -3 3.88321
    endloop
  endfacet
  facet normal 0 1 -2.22045e-016
    outer loop
      vertex -47.5871 -3 6.80701
      vertex -46.4129 -3 6.80701
      vertex -48.5371 -3 6.11679
    endloop
  endfacet
  facet normal 0 1 -2.22045e-016
    outer loop
      vertex -48.5371 -3 6.11679
      vertex -46.4129 -3 6.80701
      vertex -45.4629 -3 6.11679
    endloop
  endfacet
  facet normal 0 1 -2.22045e-016
    outer loop
      vertex -48.5371 -3 6.11679
      vertex -45.4629 -3 6.11679
      vertex -45.1 -3 5
    endloop
  endfacet
  facet normal 0 1 -2.22045e-016
    outer loop
      vertex -48.5371 -3 6.11679
      vertex -45.1 -3 5
      vertex -48.9 -3 5
    endloop
  endfacet
  facet normal -0.951056 -6.86156e-017 -0.309017
    outer loop
      vertex -45.1 4 5
      vertex -45.1 -3 5
      vertex -45.4629 4 6.11679
    endloop
  endfacet
  facet normal -0.951056 -6.86156e-017 -0.309017
    outer loop
      vertex -45.4629 4 6.11679
      vertex -45.1 -3 5
      vertex -45.4629 -3 6.11679
    endloop
  endfacet
  facet normal 0.951056 -6.86156e-017 -0.309017
    outer loop
      vertex -48.9 4 5
      vertex -48.5371 4 6.11679
      vertex -48.5371 -3 6.11679
    endloop
  endfacet
  facet normal 0.951056 -6.86156e-017 -0.309017
    outer loop
      vertex -48.9 -3 5
      vertex -48.9 4 5
      vertex -48.5371 -3 6.11679
    endloop
  endfacet
  facet normal 0.951056 6.86156e-017 0.309017
    outer loop
      vertex -5.53713 -3 3.88321
      vertex -5.53713 4 3.88321
      vertex -5.9 4 5
    endloop
  endfacet
  facet normal 0.951056 6.86156e-017 0.309017
    outer loop
      vertex -5.9 -3 5
      vertex -5.53713 -3 3.88321
      vertex -5.9 4 5
    endloop
  endfacet
  facet normal 0.587785 1.79638e-016 0.809017
    outer loop
      vertex -4.58713 -3 3.19299
      vertex -4.58713 4 3.19299
      vertex -5.53713 4 3.88321
    endloop
  endfacet
  facet normal 0.587785 1.79638e-016 0.809017
    outer loop
      vertex -5.53713 -3 3.88321
      vertex -4.58713 -3 3.19299
      vertex -5.53713 4 3.88321
    endloop
  endfacet
  facet normal 0 2.22045e-016 1
    outer loop
      vertex -3.41287 -3 3.19299
      vertex -3.41287 4 3.19299
      vertex -4.58713 4 3.19299
    endloop
  endfacet
  facet normal 0 2.22045e-016 1
    outer loop
      vertex -4.58713 -3 3.19299
      vertex -3.41287 -3 3.19299
      vertex -4.58713 4 3.19299
    endloop
  endfacet
  facet normal -0.587785 1.79638e-016 0.809017
    outer loop
      vertex -2.46287 -3 3.88321
      vertex -2.46287 4 3.88321
      vertex -3.41287 4 3.19299
    endloop
  endfacet
  facet normal -0.587785 1.79638e-016 0.809017
    outer loop
      vertex -3.41287 -3 3.19299
      vertex -2.46287 -3 3.88321
      vertex -3.41287 4 3.19299
    endloop
  endfacet
  facet normal -0.951056 6.86156e-017 0.309017
    outer loop
      vertex -2.1 4 5
      vertex -2.46287 4 3.88321
      vertex -2.1 -3 5
    endloop
  endfacet
  facet normal -0.951056 6.86156e-017 0.309017
    outer loop
      vertex -2.1 -3 5
      vertex -2.46287 4 3.88321
      vertex -2.46287 -3 3.88321
    endloop
  endfacet
  facet normal 0 1 -2.22045e-016
    outer loop
      vertex -4.58713 -3 6.80701
      vertex -3.41287 -3 6.80701
      vertex -5.53713 -3 6.11679
    endloop
  endfacet
  facet normal 0 1 -2.22045e-016
    outer loop
      vertex -5.53713 -3 6.11679
      vertex -3.41287 -3 6.80701
      vertex -2.46287 -3 6.11679
    endloop
  endfacet
  facet normal 0 1 -2.22045e-016
    outer loop
      vertex -5.53713 -3 6.11679
      vertex -2.46287 -3 6.11679
      vertex -2.1 -3 5
    endloop
  endfacet
  facet normal 0 1 -2.22045e-016
    outer loop
      vertex -5.53713 -3 6.11679
      vertex -2.1 -3 5
      vertex -5.9 -3 5
    endloop
  endfacet
  facet normal -0.951056 -6.86156e-017 -0.309017
    outer loop
      vertex -2.1 4 5
      vertex -2.1 -3 5
      vertex -2.46287 4 6.11679
    endloop
  endfacet
  facet normal -0.951056 -6.86156e-017 -0.309017
    outer loop
      vertex -2.46287 4 6.11679
      vertex -2.1 -3 5
      vertex -2.46287 -3 6.11679
    endloop
  endfacet
  facet normal 0.951056 -6.86156e-017 -0.309017
    outer loop
      vertex -5.9 4 5
      vertex -5.53713 4 6.11679
      vertex -5.53713 -3 6.11679
    endloop
  endfacet
  facet normal 0.951056 -6.86156e-017 -0.309017
    outer loop
      vertex -5.9 -3 5
      vertex -5.9 4 5
      vertex -5.53713 -3 6.11679
    endloop
  endfacet
  facet normal 0.587785 1.79638e-016 0.809017
    outer loop
      vertex 16.4129 0 3.19299
      vertex 16.4129 4.05 3.19299
      vertex 15.4629 4.05 3.88321
    endloop
  endfacet
  facet normal 0.587785 1.79638e-016 0.809017
    outer loop
      vertex 15.4629 0 3.88321
      vertex 16.4129 0 3.19299
      vertex 15.4629 4.05 3.88321
    endloop
  endfacet
  facet normal 0.951056 6.86156e-017 0.309017
    outer loop
      vertex 15.4629 0 3.88321
      vertex 15.4629 4.05 3.88321
      vertex 15.1 4.05 5
    endloop
  endfacet
  facet normal 0.951056 6.86156e-017 0.309017
    outer loop
      vertex 15.1 0 5
      vertex 15.4629 0 3.88321
      vertex 15.1 4.05 5
    endloop
  endfacet
  facet normal 0 2.22045e-016 1
    outer loop
      vertex 17.5871 0 3.19299
      vertex 17.5871 4.05 3.19299
      vertex 16.4129 4.05 3.19299
    endloop
  endfacet
  facet normal 0 2.22045e-016 1
    outer loop
      vertex 16.4129 0 3.19299
      vertex 17.5871 0 3.19299
      vertex 16.4129 4.05 3.19299
    endloop
  endfacet
  facet normal -0.587785 1.79638e-016 0.809017
    outer loop
      vertex 18.5371 0 3.88321
      vertex 18.5371 4.05 3.88321
      vertex 17.5871 4.05 3.19299
    endloop
  endfacet
  facet normal -0.587785 1.79638e-016 0.809017
    outer loop
      vertex 17.5871 0 3.19299
      vertex 18.5371 0 3.88321
      vertex 17.5871 4.05 3.19299
    endloop
  endfacet
  facet normal -0.951056 6.86156e-017 0.309017
    outer loop
      vertex 18.9 4.05 5
      vertex 18.5371 4.05 3.88321
      vertex 18.9 0 5
    endloop
  endfacet
  facet normal -0.951056 6.86156e-017 0.309017
    outer loop
      vertex 18.9 0 5
      vertex 18.5371 4.05 3.88321
      vertex 18.5371 0 3.88321
    endloop
  endfacet
  facet normal -0.951056 -6.86156e-017 -0.309017
    outer loop
      vertex 18.9 4.05 5
      vertex 18.9 0 5
      vertex 18.5371 4.05 6.11679
    endloop
  endfacet
  facet normal -0.951056 -6.86156e-017 -0.309017
    outer loop
      vertex 18.5371 4.05 6.11679
      vertex 18.9 0 5
      vertex 18.5371 0 6.11679
    endloop
  endfacet
  facet normal -0.587785 -1.79638e-016 -0.809017
    outer loop
      vertex 18.5371 4.05 6.11679
      vertex 18.5371 0 6.11679
      vertex 17.5871 4.05 6.80701
    endloop
  endfacet
  facet normal -0.587785 -1.79638e-016 -0.809017
    outer loop
      vertex 17.5871 4.05 6.80701
      vertex 18.5371 0 6.11679
      vertex 17.5871 0 6.80701
    endloop
  endfacet
  facet normal 0 -2.22045e-016 -1
    outer loop
      vertex 17.5871 4.05 6.80701
      vertex 17.5871 0 6.80701
      vertex 16.4129 4.05 6.80701
    endloop
  endfacet
  facet normal 0 -2.22045e-016 -1
    outer loop
      vertex 16.4129 4.05 6.80701
      vertex 17.5871 0 6.80701
      vertex 16.4129 0 6.80701
    endloop
  endfacet
  facet normal 0.587785 -1.79638e-016 -0.809017
    outer loop
      vertex 16.4129 4.05 6.80701
      vertex 16.4129 0 6.80701
      vertex 15.4629 4.05 6.11679
    endloop
  endfacet
  facet normal 0.587785 -1.79638e-016 -0.809017
    outer loop
      vertex 15.4629 4.05 6.11679
      vertex 16.4129 0 6.80701
      vertex 15.4629 0 6.11679
    endloop
  endfacet
  facet normal 0.951056 -6.86156e-017 -0.309017
    outer loop
      vertex 15.1 4.05 5
      vertex 15.4629 4.05 6.11679
      vertex 15.4629 0 6.11679
    endloop
  endfacet
  facet normal 0.951056 -6.86156e-017 -0.309017
    outer loop
      vertex 15.1 0 5
      vertex 15.1 4.05 5
      vertex 15.4629 0 6.11679
    endloop
  endfacet
  facet normal 0.951056 -6.86156e-017 -0.309017
    outer loop
      vertex 15.1 14.5 5
      vertex 15.4629 14.5 6.11679
      vertex 15.4629 10.95 6.11679
    endloop
  endfacet
  facet normal 0.951056 -6.86156e-017 -0.309017
    outer loop
      vertex 15.1 10.95 5
      vertex 15.1 14.5 5
      vertex 15.4629 10.95 6.11679
    endloop
  endfacet
  facet normal 0.951056 6.86156e-017 0.309017
    outer loop
      vertex 15.4629 10.95 3.88321
      vertex 15.4629 14.5 3.88321
      vertex 15.1 14.5 5
    endloop
  endfacet
  facet normal 0.951056 6.86156e-017 0.309017
    outer loop
      vertex 15.1 10.95 5
      vertex 15.4629 10.95 3.88321
      vertex 15.1 14.5 5
    endloop
  endfacet
  facet normal 0.587785 1.79638e-016 0.809017
    outer loop
      vertex 16.4129 10.95 3.19299
      vertex 16.4129 14.5 3.19299
      vertex 15.4629 14.5 3.88321
    endloop
  endfacet
  facet normal 0.587785 1.79638e-016 0.809017
    outer loop
      vertex 15.4629 10.95 3.88321
      vertex 16.4129 10.95 3.19299
      vertex 15.4629 14.5 3.88321
    endloop
  endfacet
  facet normal 0 2.22045e-016 1
    outer loop
      vertex 17.5871 10.95 3.19299
      vertex 17.5871 14.5 3.19299
      vertex 16.4129 14.5 3.19299
    endloop
  endfacet
  facet normal 0 2.22045e-016 1
    outer loop
      vertex 16.4129 10.95 3.19299
      vertex 17.5871 10.95 3.19299
      vertex 16.4129 14.5 3.19299
    endloop
  endfacet
  facet normal -0.587785 1.79638e-016 0.809017
    outer loop
      vertex 18.5371 10.95 3.88321
      vertex 18.5371 14.5 3.88321
      vertex 17.5871 14.5 3.19299
    endloop
  endfacet
  facet normal -0.587785 1.79638e-016 0.809017
    outer loop
      vertex 17.5871 10.95 3.19299
      vertex 18.5371 10.95 3.88321
      vertex 17.5871 14.5 3.19299
    endloop
  endfacet
  facet normal -0.951056 6.86156e-017 0.309017
    outer loop
      vertex 18.9 14.5 5
      vertex 18.5371 14.5 3.88321
      vertex 18.9 10.95 5
    endloop
  endfacet
  facet normal -0.951056 6.86156e-017 0.309017
    outer loop
      vertex 18.9 10.95 5
      vertex 18.5371 14.5 3.88321
      vertex 18.5371 10.95 3.88321
    endloop
  endfacet
  facet normal -0.951056 -6.86156e-017 -0.309017
    outer loop
      vertex 18.9 14.5 5
      vertex 18.9 10.95 5
      vertex 18.5371 14.5 6.11679
    endloop
  endfacet
  facet normal -0.951056 -6.86156e-017 -0.309017
    outer loop
      vertex 18.5371 14.5 6.11679
      vertex 18.9 10.95 5
      vertex 18.5371 10.95 6.11679
    endloop
  endfacet
  facet normal -0.587785 -1.79638e-016 -0.809017
    outer loop
      vertex 18.5371 14.5 6.11679
      vertex 18.5371 10.95 6.11679
      vertex 17.5871 14.5 6.80701
    endloop
  endfacet
  facet normal -0.587785 -1.79638e-016 -0.809017
    outer loop
      vertex 17.5871 14.5 6.80701
      vertex 18.5371 10.95 6.11679
      vertex 17.5871 10.95 6.80701
    endloop
  endfacet
  facet normal 0 -2.22045e-016 -1
    outer loop
      vertex 17.5871 14.5 6.80701
      vertex 17.5871 10.95 6.80701
      vertex 16.4129 14.5 6.80701
    endloop
  endfacet
  facet normal 0 -2.22045e-016 -1
    outer loop
      vertex 16.4129 14.5 6.80701
      vertex 17.5871 10.95 6.80701
      vertex 16.4129 10.95 6.80701
    endloop
  endfacet
  facet normal 0.587785 -1.79638e-016 -0.809017
    outer loop
      vertex 16.4129 14.5 6.80701
      vertex 16.4129 10.95 6.80701
      vertex 15.4629 14.5 6.11679
    endloop
  endfacet
  facet normal 0.587785 -1.79638e-016 -0.809017
    outer loop
      vertex 15.4629 14.5 6.11679
      vertex 16.4129 10.95 6.80701
      vertex 15.4629 10.95 6.11679
    endloop
  endfacet
  facet normal -0.866025 1.11022e-016 0.5
    outer loop
      vertex 11.23 15 5
      vertex 14.115 15 9.99697
      vertex 11.23 17.5 5
    endloop
  endfacet
  facet normal -0.866025 1.11022e-016 0.5
    outer loop
      vertex 11.23 17.5 5
      vertex 14.115 15 9.99697
      vertex 14.115 17.5 9.99697
    endloop
  endfacet
  facet normal -0.866025 -1.11022e-016 -0.5
    outer loop
      vertex 11.23 15 5
      vertex 11.23 17.5 5
      vertex 14.115 15 0.003033
    endloop
  endfacet
  facet normal -0.866025 -1.11022e-016 -0.5
    outer loop
      vertex 14.115 15 0.003033
      vertex 11.23 17.5 5
      vertex 14.115 17.5 0.003033
    endloop
  endfacet
  facet normal 0 2.22045e-016 1
    outer loop
      vertex 14.115 17.5 9.99697
      vertex 14.115 15 9.99697
      vertex 19.885 15 9.99697
    endloop
  endfacet
  facet normal 0 2.22045e-016 1
    outer loop
      vertex 19.885 17.5 9.99697
      vertex 14.115 17.5 9.99697
      vertex 19.885 15 9.99697
    endloop
  endfacet
  facet normal 0.866025 1.11022e-016 0.5
    outer loop
      vertex 19.885 17.5 9.99697
      vertex 19.885 15 9.99697
      vertex 22.77 15 5
    endloop
  endfacet
  facet normal 0.866025 1.11022e-016 0.5
    outer loop
      vertex 22.77 17.5 5
      vertex 19.885 17.5 9.99697
      vertex 22.77 15 5
    endloop
  endfacet
  facet normal 0.866025 -1.11022e-016 -0.5
    outer loop
      vertex 22.77 15 5
      vertex 19.885 15 0.003033
      vertex 19.885 17.5 0.003033
    endloop
  endfacet
  facet normal 0.866025 -1.11022e-016 -0.5
    outer loop
      vertex 22.77 17.5 5
      vertex 22.77 15 5
      vertex 19.885 17.5 0.003033
    endloop
  endfacet
  facet normal 0 -2.22045e-016 -1
    outer loop
      vertex 14.115 15 0.003033
      vertex 14.115 17.5 0.003033
      vertex 19.885 15 0.003033
    endloop
  endfacet
  facet normal 0 -2.22045e-016 -1
    outer loop
      vertex 19.885 15 0.003033
      vertex 14.115 17.5 0.003033
      vertex 19.885 17.5 0.003033
    endloop
  endfacet
  facet normal -0.866025 -1.11022e-016 -0.5
    outer loop
      vertex 0.0791922 7 5.12264
      vertex 0.15 8.44706 5
      vertex 0.15 4 5
    endloop
  endfacet
  facet normal -0.866025 -1.11022e-016 -0.5
    outer loop
      vertex 0.0791922 7 5.12264
      vertex 0 7.5 5.25981
      vertex 0.15 8.44706 5
    endloop
  endfacet
  facet normal -0.866025 -1.11022e-016 -0.5
    outer loop
      vertex 0.0791922 7 5.12264
      vertex 0.15 4 5
      vertex -1.925 7 8.594
    endloop
  endfacet
  facet normal -0.866025 -1.11022e-016 -0.5
    outer loop
      vertex 0.15 4 5
      vertex -1.925 4 8.594
      vertex -1.925 7 8.594
    endloop
  endfacet
  facet normal -0.866025 1.11022e-016 0.5
    outer loop
      vertex 0.15 8.44706 5
      vertex 0.0791922 7 4.87736
      vertex 0.15 4 5
    endloop
  endfacet
  facet normal -0.866025 1.11022e-016 0.5
    outer loop
      vertex 0.15 8.44706 5
      vertex 0 7.5 4.74019
      vertex 0.0791922 7 4.87736
    endloop
  endfacet
  facet normal -0.866025 1.11022e-016 0.5
    outer loop
      vertex 0.15 4 5
      vertex -1.925 7 1.406
      vertex -1.925 4 1.406
    endloop
  endfacet
  facet normal -0.866025 1.11022e-016 0.5
    outer loop
      vertex -1.925 7 1.406
      vertex 0.15 4 5
      vertex 0.0791922 7 4.87736
    endloop
  endfacet
  facet normal 0 2.22045e-016 1
    outer loop
      vertex -1.925 4 1.406
      vertex -1.925 7 1.406
      vertex -6.075 7 1.406
    endloop
  endfacet
  facet normal 0 2.22045e-016 1
    outer loop
      vertex -6.075 4 1.406
      vertex -1.925 4 1.406
      vertex -6.075 7 1.406
    endloop
  endfacet
  facet normal 0.866025 1.11022e-016 0.5
    outer loop
      vertex -6.075 4 1.406
      vertex -6.075 7 1.406
      vertex -8.15 7 5
    endloop
  endfacet
  facet normal 0.866025 1.11022e-016 0.5
    outer loop
      vertex -8.15 4 5
      vertex -6.075 4 1.406
      vertex -8.15 7 5
    endloop
  endfacet
  facet normal 0.866025 -1.11022e-016 -0.5
    outer loop
      vertex -8.15 7 5
      vertex -6.075 7 8.594
      vertex -6.075 4 8.594
    endloop
  endfacet
  facet normal 0.866025 -1.11022e-016 -0.5
    outer loop
      vertex -8.15 4 5
      vertex -8.15 7 5
      vertex -6.075 4 8.594
    endloop
  endfacet
  facet normal 0 -2.22045e-016 -1
    outer loop
      vertex -1.925 7 8.594
      vertex -1.925 4 8.594
      vertex -6.075 7 8.594
    endloop
  endfacet
  facet normal 0 -2.22045e-016 -1
    outer loop
      vertex -6.075 7 8.594
      vertex -1.925 4 8.594
      vertex -6.075 4 8.594
    endloop
  endfacet
  facet normal 0.587785 -1.79638e-016 -0.809017
    outer loop
      vertex -47.5871 4 6.80701
      vertex -47.5871 -3 6.80701
      vertex -48.5371 4 6.11679
    endloop
  endfacet
  facet normal 0.587785 -1.79638e-016 -0.809017
    outer loop
      vertex -48.5371 4 6.11679
      vertex -47.5871 -3 6.80701
      vertex -48.5371 -3 6.11679
    endloop
  endfacet
  facet normal 0 -2.22045e-016 -1
    outer loop
      vertex -46.4129 4 6.80701
      vertex -46.4129 -3 6.80701
      vertex -47.5871 4 6.80701
    endloop
  endfacet
  facet normal 0 -2.22045e-016 -1
    outer loop
      vertex -47.5871 4 6.80701
      vertex -46.4129 -3 6.80701
      vertex -47.5871 -3 6.80701
    endloop
  endfacet
  facet normal -0.587785 -1.79638e-016 -0.809017
    outer loop
      vertex -45.4629 4 6.11679
      vertex -45.4629 -3 6.11679
      vertex -46.4129 4 6.80701
    endloop
  endfacet
  facet normal -0.587785 -1.79638e-016 -0.809017
    outer loop
      vertex -46.4129 4 6.80701
      vertex -45.4629 -3 6.11679
      vertex -46.4129 -3 6.80701
    endloop
  endfacet
  facet normal 0 1 -2.22045e-016
    outer loop
      vertex -1.925 4 8.594
      vertex 0.15 4 5
      vertex -6.075 4 8.594
    endloop
  endfacet
  facet normal 0 1 -2.22045e-016
    outer loop
      vertex -2.46287 4 3.88321
      vertex 0.15 4 5
      vertex -1.925 4 1.406
    endloop
  endfacet
  facet normal 0 1 -2.22045e-016
    outer loop
      vertex -4.58713 4 3.19299
      vertex -1.925 4 1.406
      vertex -6.075 4 1.406
    endloop
  endfacet
  facet normal 0 1 -2.22045e-016
    outer loop
      vertex -6.075 4 8.594
      vertex -6.075 4 1.406
      vertex -8.15 4 5
    endloop
  endfacet
  facet normal 0 1 -2.22045e-016
    outer loop
      vertex -2.46287 4 3.88321
      vertex -1.925 4 1.406
      vertex -3.41287 4 3.19299
    endloop
  endfacet
  facet normal 0 1 -2.22045e-016
    outer loop
      vertex -5.9 4 5
      vertex -5.53713 4 3.88321
      vertex -6.075 4 1.406
    endloop
  endfacet
  facet normal 0 1 -2.22045e-016
    outer loop
      vertex -5.53713 4 3.88321
      vertex -4.58713 4 3.19299
      vertex -6.075 4 1.406
    endloop
  endfacet
  facet normal 0 1 -2.22045e-016
    outer loop
      vertex -2.1 4 5
      vertex 0.15 4 5
      vertex -2.46287 4 3.88321
    endloop
  endfacet
  facet normal 0 1 -2.22045e-016
    outer loop
      vertex -4.58713 4 6.80701
      vertex -6.075 4 8.594
      vertex -3.41287 4 6.80701
    endloop
  endfacet
  facet normal 0 1 -2.22045e-016
    outer loop
      vertex -2.46287 4 6.11679
      vertex 0.15 4 5
      vertex -2.1 4 5
    endloop
  endfacet
  facet normal 0 1 -2.22045e-016
    outer loop
      vertex -3.41287 4 6.80701
      vertex 0.15 4 5
      vertex -2.46287 4 6.11679
    endloop
  endfacet
  facet normal 0 1 -2.22045e-016
    outer loop
      vertex -6.075 4 8.594
      vertex 0.15 4 5
      vertex -3.41287 4 6.80701
    endloop
  endfacet
  facet normal 0 1 -2.22045e-016
    outer loop
      vertex -5.53713 4 6.11679
      vertex -6.075 4 8.594
      vertex -4.58713 4 6.80701
    endloop
  endfacet
  facet normal 0 1 -2.22045e-016
    outer loop
      vertex -5.9 4 5
      vertex -6.075 4 8.594
      vertex -5.53713 4 6.11679
    endloop
  endfacet
  facet normal 0 1 -2.22045e-016
    outer loop
      vertex -6.075 4 8.594
      vertex -5.9 4 5
      vertex -6.075 4 1.406
    endloop
  endfacet
  facet normal 0 1 -2.22045e-016
    outer loop
      vertex -3.41287 4 3.19299
      vertex -1.925 4 1.406
      vertex -4.58713 4 3.19299
    endloop
  endfacet
  facet normal 0.587785 -1.79638e-016 -0.809017
    outer loop
      vertex -4.58713 4 6.80701
      vertex -4.58713 -3 6.80701
      vertex -5.53713 4 6.11679
    endloop
  endfacet
  facet normal 0.587785 -1.79638e-016 -0.809017
    outer loop
      vertex -5.53713 4 6.11679
      vertex -4.58713 -3 6.80701
      vertex -5.53713 -3 6.11679
    endloop
  endfacet
  facet normal -0.587785 -1.79638e-016 -0.809017
    outer loop
      vertex -2.46287 4 6.11679
      vertex -2.46287 -3 6.11679
      vertex -3.41287 4 6.80701
    endloop
  endfacet
  facet normal -0.587785 -1.79638e-016 -0.809017
    outer loop
      vertex -3.41287 4 6.80701
      vertex -2.46287 -3 6.11679
      vertex -3.41287 -3 6.80701
    endloop
  endfacet
  facet normal 0 -2.22045e-016 -1
    outer loop
      vertex -3.41287 4 6.80701
      vertex -3.41287 -3 6.80701
      vertex -4.58713 4 6.80701
    endloop
  endfacet
  facet normal 0 -2.22045e-016 -1
    outer loop
      vertex -4.58713 4 6.80701
      vertex -3.41287 -3 6.80701
      vertex -4.58713 -3 6.80701
    endloop
  endfacet
  facet normal 0 1 -2.22045e-016
    outer loop
      vertex 19.075 14.5 8.594
      vertex 21.15 14.5 5
      vertex 14.925 14.5 8.594
    endloop
  endfacet
  facet normal 0 1 -2.22045e-016
    outer loop
      vertex 18.5371 14.5 3.88321
      vertex 21.15 14.5 5
      vertex 19.075 14.5 1.406
    endloop
  endfacet
  facet normal 0 1 -2.22045e-016
    outer loop
      vertex 16.4129 14.5 3.19299
      vertex 19.075 14.5 1.406
      vertex 14.925 14.5 1.406
    endloop
  endfacet
  facet normal 0 1 -2.22045e-016
    outer loop
      vertex 14.925 14.5 8.594
      vertex 14.925 14.5 1.406
      vertex 12.85 14.5 5
    endloop
  endfacet
  facet normal 0 1 -2.22045e-016
    outer loop
      vertex 18.5371 14.5 3.88321
      vertex 19.075 14.5 1.406
      vertex 17.5871 14.5 3.19299
    endloop
  endfacet
  facet normal 0 1 -2.22045e-016
    outer loop
      vertex 15.1 14.5 5
      vertex 15.4629 14.5 3.88321
      vertex 14.925 14.5 1.406
    endloop
  endfacet
  facet normal 0 1 -2.22045e-016
    outer loop
      vertex 15.4629 14.5 3.88321
      vertex 16.4129 14.5 3.19299
      vertex 14.925 14.5 1.406
    endloop
  endfacet
  facet normal 0 1 -2.22045e-016
    outer loop
      vertex 18.9 14.5 5
      vertex 21.15 14.5 5
      vertex 18.5371 14.5 3.88321
    endloop
  endfacet
  facet normal 0 1 -2.22045e-016
    outer loop
      vertex 16.4129 14.5 6.80701
      vertex 14.925 14.5 8.594
      vertex 17.5871 14.5 6.80701
    endloop
  endfacet
  facet normal 0 1 -2.22045e-016
    outer loop
      vertex 18.5371 14.5 6.11679
      vertex 21.15 14.5 5
      vertex 18.9 14.5 5
    endloop
  endfacet
  facet normal 0 1 -2.22045e-016
    outer loop
      vertex 17.5871 14.5 6.80701
      vertex 21.15 14.5 5
      vertex 18.5371 14.5 6.11679
    endloop
  endfacet
  facet normal 0 1 -2.22045e-016
    outer loop
      vertex 14.925 14.5 8.594
      vertex 21.15 14.5 5
      vertex 17.5871 14.5 6.80701
    endloop
  endfacet
  facet normal 0 1 -2.22045e-016
    outer loop
      vertex 15.4629 14.5 6.11679
      vertex 14.925 14.5 8.594
      vertex 16.4129 14.5 6.80701
    endloop
  endfacet
  facet normal 0 1 -2.22045e-016
    outer loop
      vertex 15.1 14.5 5
      vertex 14.925 14.5 8.594
      vertex 15.4629 14.5 6.11679
    endloop
  endfacet
  facet normal 0 1 -2.22045e-016
    outer loop
      vertex 14.925 14.5 8.594
      vertex 15.1 14.5 5
      vertex 14.925 14.5 1.406
    endloop
  endfacet
  facet normal 0 1 -2.22045e-016
    outer loop
      vertex 17.5871 14.5 3.19299
      vertex 19.075 14.5 1.406
      vertex 16.4129 14.5 3.19299
    endloop
  endfacet
  facet normal 0 1 -2.22045e-016
    outer loop
      vertex 14.925 17.5 1.406
      vertex 14.115 17.5 0.003033
      vertex 12.85 17.5 5
    endloop
  endfacet
  facet normal 0 1 -2.22045e-016
    outer loop
      vertex 14.925 17.5 8.594
      vertex 14.115 17.5 9.99697
      vertex 19.885 17.5 9.99697
    endloop
  endfacet
  facet normal 0 1 -2.22045e-016
    outer loop
      vertex 21.15 17.5 5
      vertex 19.885 17.5 9.99697
      vertex 22.77 17.5 5
    endloop
  endfacet
  facet normal 0 1 -2.22045e-016
    outer loop
      vertex 19.075 17.5 1.406
      vertex 22.77 17.5 5
      vertex 19.885 17.5 0.003033
    endloop
  endfacet
  facet normal 0 1 -2.22045e-016
    outer loop
      vertex 11.23 17.5 5
      vertex 14.115 17.5 9.99697
      vertex 12.85 17.5 5
    endloop
  endfacet
  facet normal 0 1 -2.22045e-016
    outer loop
      vertex 11.23 17.5 5
      vertex 12.85 17.5 5
      vertex 14.115 17.5 0.003033
    endloop
  endfacet
  facet normal 0 1 -2.22045e-016
    outer loop
      vertex 21.15 17.5 5
      vertex 22.77 17.5 5
      vertex 19.075 17.5 1.406
    endloop
  endfacet
  facet normal 0 1 -2.22045e-016
    outer loop
      vertex 14.115 17.5 0.003033
      vertex 19.075 17.5 1.406
      vertex 19.885 17.5 0.003033
    endloop
  endfacet
  facet normal 0 1 -2.22045e-016
    outer loop
      vertex 19.075 17.5 8.594
      vertex 19.885 17.5 9.99697
      vertex 21.15 17.5 5
    endloop
  endfacet
  facet normal 0 1 -2.22045e-016
    outer loop
      vertex 12.85 17.5 5
      vertex 14.115 17.5 9.99697
      vertex 14.925 17.5 8.594
    endloop
  endfacet
  facet normal 0 1 -2.22045e-016
    outer loop
      vertex 19.075 17.5 1.406
      vertex 14.115 17.5 0.003033
      vertex 14.925 17.5 1.406
    endloop
  endfacet
  facet normal 0 1 -2.22045e-016
    outer loop
      vertex 14.925 17.5 8.594
      vertex 19.885 17.5 9.99697
      vertex 19.075 17.5 8.594
    endloop
  endfacet
  facet normal 0 -2.22045e-016 -1
    outer loop
      vertex 19.075 17.5 8.594
      vertex 19.075 14.5 8.594
      vertex 14.925 17.5 8.594
    endloop
  endfacet
  facet normal 0 -2.22045e-016 -1
    outer loop
      vertex 14.925 17.5 8.594
      vertex 19.075 14.5 8.594
      vertex 14.925 14.5 8.594
    endloop
  endfacet
  facet normal 0.866025 -1.11022e-016 -0.5
    outer loop
      vertex 12.85 17.5 5
      vertex 14.925 17.5 8.594
      vertex 14.925 14.5 8.594
    endloop
  endfacet
  facet normal 0.866025 -1.11022e-016 -0.5
    outer loop
      vertex 12.85 14.5 5
      vertex 12.85 17.5 5
      vertex 14.925 14.5 8.594
    endloop
  endfacet
  facet normal 0.866025 1.11022e-016 0.5
    outer loop
      vertex 14.925 14.5 1.406
      vertex 14.925 17.5 1.406
      vertex 12.85 17.5 5
    endloop
  endfacet
  facet normal 0.866025 1.11022e-016 0.5
    outer loop
      vertex 12.85 14.5 5
      vertex 14.925 14.5 1.406
      vertex 12.85 17.5 5
    endloop
  endfacet
  facet normal 0 2.22045e-016 1
    outer loop
      vertex 19.075 14.5 1.406
      vertex 19.075 17.5 1.406
      vertex 14.925 17.5 1.406
    endloop
  endfacet
  facet normal 0 2.22045e-016 1
    outer loop
      vertex 14.925 14.5 1.406
      vertex 19.075 14.5 1.406
      vertex 14.925 17.5 1.406
    endloop
  endfacet
  facet normal -0.866025 1.11022e-016 0.5
    outer loop
      vertex 21.15 17.5 5
      vertex 19.075 17.5 1.406
      vertex 21.15 14.5 5
    endloop
  endfacet
  facet normal -0.866025 1.11022e-016 0.5
    outer loop
      vertex 21.15 14.5 5
      vertex 19.075 17.5 1.406
      vertex 19.075 14.5 1.406
    endloop
  endfacet
  facet normal -0.866025 -1.11022e-016 -0.5
    outer loop
      vertex 21.15 17.5 5
      vertex 21.15 14.5 5
      vertex 19.075 17.5 8.594
    endloop
  endfacet
  facet normal -0.866025 -1.11022e-016 -0.5
    outer loop
      vertex 19.075 17.5 8.594
      vertex 21.15 14.5 5
      vertex 19.075 14.5 8.594
    endloop
  endfacet
endsolid OpenSCAD_Model
